<?xml version="1.0" encoding="UTF-8" standalone="no"?><!-- Generator: Gravit.io --><svg xmlns="http://www.w3.org/2000/svg" xmlns:xlink="http://www.w3.org/1999/xlink" style="isolation:isolate" viewBox="-564 103.757 2094 572.555" width="2094pt" height="572.555pt"><defs><clipPath id="_clipPath_oROZmygoVztJBDpKbqcnjNGYujN04f6I"><rect x="-564" y="103.757" width="2094" height="572.555"/></clipPath></defs><g clip-path="url(#_clipPath_oROZmygoVztJBDpKbqcnjNGYujN04f6I)"><path d=" M 178.277 644.965 L 168.228 644.965 L 168.228 661.664 L 162.603 661.664 L 162.603 619.008 L 178.336 619.008 L 178.336 619.008 Q 185.338 619.008 189.307 622.582 L 189.307 622.582 L 189.307 622.582 Q 193.277 626.156 193.277 632.045 L 193.277 632.045 L 193.277 632.045 Q 193.277 638.256 189.395 641.61 L 189.395 641.61 L 189.395 641.61 Q 185.513 644.965 178.277 644.965 L 178.277 644.965 L 178.277 644.965 Z  M 168.228 623.637 L 168.228 640.365 L 178.336 640.365 L 178.336 640.365 Q 182.847 640.365 185.25 638.241 L 185.25 638.241 L 185.25 638.241 Q 187.652 636.117 187.652 632.104 L 187.652 632.104 L 187.652 632.104 Q 187.652 628.295 185.25 626.01 L 185.25 626.01 L 185.25 626.01 Q 182.847 623.725 178.658 623.637 L 178.658 623.637 L 168.228 623.637 L 168.228 623.637 Z  M 224.537 661.664 L 218.853 661.664 L 218.853 661.664 Q 218.384 660.727 218.091 658.324 L 218.091 658.324 L 218.091 658.324 Q 214.312 662.25 209.068 662.25 L 209.068 662.25 L 209.068 662.25 Q 204.381 662.25 201.378 659.599 L 201.378 659.599 L 201.378 659.599 Q 198.375 656.947 198.375 652.875 L 198.375 652.875 L 198.375 652.875 Q 198.375 647.924 202.139 645.185 L 202.139 645.185 L 202.139 645.185 Q 205.904 642.445 212.73 642.445 L 212.73 642.445 L 218.004 642.445 L 218.004 639.955 L 218.004 639.955 Q 218.004 637.113 216.304 635.429 L 216.304 635.429 L 216.304 635.429 Q 214.605 633.744 211.295 633.744 L 211.295 633.744 L 211.295 633.744 Q 208.394 633.744 206.431 635.209 L 206.431 635.209 L 206.431 635.209 Q 204.468 636.674 204.468 638.754 L 204.468 638.754 L 199.019 638.754 L 199.019 638.754 Q 199.019 636.381 200.704 634.169 L 200.704 634.169 L 200.704 634.169 Q 202.388 631.957 205.274 630.668 L 205.274 630.668 L 205.274 630.668 Q 208.16 629.379 211.617 629.379 L 211.617 629.379 L 211.617 629.379 Q 217.095 629.379 220.201 632.118 L 220.201 632.118 L 220.201 632.118 Q 223.306 634.857 223.424 639.662 L 223.424 639.662 L 223.424 654.252 L 223.424 654.252 Q 223.424 658.617 224.537 661.195 L 224.537 661.195 L 224.537 661.664 L 224.537 661.664 Z  M 209.859 657.533 L 209.859 657.533 L 209.859 657.533 Q 212.408 657.533 214.693 656.215 L 214.693 656.215 L 214.693 656.215 Q 216.978 654.896 218.004 652.787 L 218.004 652.787 L 218.004 646.283 L 213.756 646.283 L 213.756 646.283 Q 203.795 646.283 203.795 652.113 L 203.795 652.113 L 203.795 652.113 Q 203.795 654.662 205.494 656.098 L 205.494 656.098 L 205.494 656.098 Q 207.193 657.533 209.859 657.533 Z  M 237.808 629.965 L 237.808 661.664 L 232.388 661.664 L 232.388 629.965 L 237.808 629.965 L 237.808 629.965 Z  M 231.949 621.557 L 231.949 621.557 L 231.949 621.557 Q 231.949 620.238 232.755 619.33 L 232.755 619.33 L 232.755 619.33 Q 233.56 618.422 235.142 618.422 L 235.142 618.422 L 235.142 618.422 Q 236.724 618.422 237.545 619.33 L 237.545 619.33 L 237.545 619.33 Q 238.365 620.238 238.365 621.557 L 238.365 621.557 L 238.365 621.557 Q 238.365 622.875 237.545 623.754 L 237.545 623.754 L 237.545 623.754 Q 236.724 624.633 235.142 624.633 L 235.142 624.633 L 235.142 624.633 Q 233.56 624.633 232.755 623.754 L 232.755 623.754 L 232.755 623.754 Q 231.949 622.875 231.949 621.557 Z  M 261.802 629.789 L 261.802 634.828 L 261.802 634.828 Q 260.572 634.623 259.136 634.623 L 259.136 634.623 L 259.136 634.623 Q 253.804 634.623 251.9 639.164 L 251.9 639.164 L 251.9 661.664 L 246.48 661.664 L 246.48 629.965 L 251.754 629.965 L 251.841 633.627 L 251.841 633.627 Q 254.507 629.379 259.4 629.379 L 259.4 629.379 L 259.4 629.379 Q 260.982 629.379 261.802 629.789 L 261.802 629.789 L 261.802 629.789 Z  M 319.4 548.695 L 319.4 586.752 L 339.615 586.752 L 339.615 591.352 L 313.746 591.352 L 313.746 548.695 L 319.4 548.695 L 319.4 548.695 Z  M 343.746 575.59 L 343.746 575.209 L 343.746 575.209 Q 343.746 570.551 345.577 566.83 L 345.577 566.83 L 345.577 566.83 Q 347.408 563.109 350.674 561.088 L 350.674 561.088 L 350.674 561.088 Q 353.941 559.066 358.131 559.066 L 358.131 559.066 L 358.131 559.066 Q 364.605 559.066 368.604 563.549 L 368.604 563.549 L 368.604 563.549 Q 372.603 568.031 372.603 575.473 L 372.603 575.473 L 372.603 575.854 L 372.603 575.854 Q 372.603 580.482 370.831 584.159 L 370.831 584.159 L 370.831 584.159 Q 369.058 587.836 365.762 589.887 L 365.762 589.887 L 365.762 589.887 Q 362.466 591.938 358.189 591.938 L 358.189 591.938 L 358.189 591.938 Q 351.744 591.938 347.745 587.455 L 347.745 587.455 L 347.745 587.455 Q 343.746 582.973 343.746 575.59 L 343.746 575.59 L 343.746 575.59 Z  M 349.195 575.854 L 349.195 575.854 L 349.195 575.854 Q 349.195 581.127 351.641 584.32 L 351.641 584.32 L 351.641 584.32 Q 354.088 587.514 358.189 587.514 L 358.189 587.514 L 358.189 587.514 Q 362.32 587.514 364.752 584.276 L 364.752 584.276 L 364.752 584.276 Q 367.183 581.039 367.183 575.209 L 367.183 575.209 L 367.183 575.209 Q 367.183 569.994 364.708 566.757 L 364.708 566.757 L 364.708 566.757 Q 362.232 563.52 358.131 563.52 L 358.131 563.52 L 358.131 563.52 Q 354.117 563.52 351.656 566.713 L 351.656 566.713 L 351.656 566.713 Q 349.195 569.906 349.195 575.854 Z  M 379.4 559.652 L 384.527 559.652 L 384.703 563.637 L 384.703 563.637 Q 388.336 559.066 394.195 559.066 L 394.195 559.066 L 394.195 559.066 Q 404.244 559.066 404.332 570.404 L 404.332 570.404 L 404.332 591.352 L 398.912 591.352 L 398.912 570.375 L 398.912 570.375 Q 398.882 566.947 397.344 565.307 L 397.344 565.307 L 397.344 565.307 Q 395.806 563.666 392.554 563.666 L 392.554 563.666 L 392.554 563.666 Q 389.918 563.666 387.925 565.072 L 387.925 565.072 L 387.925 565.072 Q 385.933 566.479 384.82 568.764 L 384.82 568.764 L 384.82 591.352 L 379.4 591.352 L 379.4 559.652 L 379.4 559.652 Z  M 425.66 591.938 L 425.66 591.938 L 425.66 591.938 Q 419.215 591.938 415.172 587.704 L 415.172 587.704 L 415.172 587.704 Q 411.129 583.471 411.129 576.381 L 411.129 576.381 L 411.129 575.385 L 411.129 575.385 Q 411.129 570.668 412.93 566.962 L 412.93 566.962 L 412.93 566.962 Q 414.732 563.256 417.969 561.161 L 417.969 561.161 L 417.969 561.161 Q 421.207 559.066 424.986 559.066 L 424.986 559.066 L 424.986 559.066 Q 431.168 559.066 434.595 563.139 L 434.595 563.139 L 434.595 563.139 Q 438.023 567.211 438.023 574.799 L 438.023 574.799 L 438.023 577.055 L 416.549 577.055 L 416.549 577.055 Q 416.666 581.742 419.288 584.628 L 419.288 584.628 L 419.288 584.628 Q 421.91 587.514 425.953 587.514 L 425.953 587.514 L 425.953 587.514 Q 428.824 587.514 430.816 586.342 L 430.816 586.342 L 430.816 586.342 Q 432.808 585.17 434.302 583.236 L 434.302 583.236 L 437.613 585.814 L 437.613 585.814 Q 433.629 591.938 425.66 591.938 Z  M 424.986 563.52 L 424.986 563.52 L 424.986 563.52 Q 421.705 563.52 419.478 565.907 L 419.478 565.907 L 419.478 565.907 Q 417.252 568.295 416.724 572.602 L 416.724 572.602 L 432.603 572.602 L 432.603 572.191 L 432.603 572.191 Q 432.369 568.061 430.377 565.79 L 430.377 565.79 L 430.377 565.79 Q 428.384 563.52 424.986 563.52 Z  M -14.907 548.695 L -7.641 548.695 L 6.304 583.5 L 20.25 548.695 L 27.545 548.695 L 27.545 591.352 L 21.92 591.352 L 21.92 574.74 L 22.447 556.811 L 8.443 591.352 L 4.136 591.352 L -9.838 556.898 L -9.282 574.74 L -9.282 591.352 L -14.907 591.352 L -14.907 548.695 L -14.907 548.695 Z  M 35.191 575.59 L 35.191 575.209 L 35.191 575.209 Q 35.191 570.551 37.022 566.83 L 37.022 566.83 L 37.022 566.83 Q 38.853 563.109 42.12 561.088 L 42.12 561.088 L 42.12 561.088 Q 45.386 559.066 49.576 559.066 L 49.576 559.066 L 49.576 559.066 Q 56.05 559.066 60.049 563.549 L 60.049 563.549 L 60.049 563.549 Q 64.049 568.031 64.049 575.473 L 64.049 575.473 L 64.049 575.854 L 64.049 575.854 Q 64.049 580.482 62.276 584.159 L 62.276 584.159 L 62.276 584.159 Q 60.504 587.836 57.208 589.887 L 57.208 589.887 L 57.208 589.887 Q 53.912 591.938 49.634 591.938 L 49.634 591.938 L 49.634 591.938 Q 43.189 591.938 39.19 587.455 L 39.19 587.455 L 39.19 587.455 Q 35.191 582.973 35.191 575.59 L 35.191 575.59 L 35.191 575.59 Z  M 40.64 575.854 L 40.64 575.854 L 40.64 575.854 Q 40.64 581.127 43.087 584.32 L 43.087 584.32 L 43.087 584.32 Q 45.533 587.514 49.634 587.514 L 49.634 587.514 L 49.634 587.514 Q 53.765 587.514 56.197 584.276 L 56.197 584.276 L 56.197 584.276 Q 58.629 581.039 58.629 575.209 L 58.629 575.209 L 58.629 575.209 Q 58.629 569.994 56.153 566.757 L 56.153 566.757 L 56.153 566.757 Q 53.677 563.52 49.576 563.52 L 49.576 563.52 L 49.576 563.52 Q 45.562 563.52 43.101 566.713 L 43.101 566.713 L 43.101 566.713 Q 40.64 569.906 40.64 575.854 Z  M 70.845 559.652 L 75.972 559.652 L 76.148 563.637 L 76.148 563.637 Q 79.781 559.066 85.64 559.066 L 85.64 559.066 L 85.64 559.066 Q 95.689 559.066 95.777 570.404 L 95.777 570.404 L 95.777 591.352 L 90.357 591.352 L 90.357 570.375 L 90.357 570.375 Q 90.328 566.947 88.79 565.307 L 88.79 565.307 L 88.79 565.307 Q 87.252 563.666 84 563.666 L 84 563.666 L 84 563.666 Q 81.363 563.666 79.371 565.072 L 79.371 565.072 L 79.371 565.072 Q 77.379 566.479 76.265 568.764 L 76.265 568.764 L 76.265 591.352 L 70.845 591.352 L 70.845 559.652 L 70.845 559.652 Z  M 102.515 575.59 L 102.515 575.209 L 102.515 575.209 Q 102.515 570.551 104.346 566.83 L 104.346 566.83 L 104.346 566.83 Q 106.177 563.109 109.444 561.088 L 109.444 561.088 L 109.444 561.088 Q 112.711 559.066 116.9 559.066 L 116.9 559.066 L 116.9 559.066 Q 123.375 559.066 127.374 563.549 L 127.374 563.549 L 127.374 563.549 Q 131.373 568.031 131.373 575.473 L 131.373 575.473 L 131.373 575.854 L 131.373 575.854 Q 131.373 580.482 129.6 584.159 L 129.6 584.159 L 129.6 584.159 Q 127.828 587.836 124.532 589.887 L 124.532 589.887 L 124.532 589.887 Q 121.236 591.938 116.959 591.938 L 116.959 591.938 L 116.959 591.938 Q 110.513 591.938 106.514 587.455 L 106.514 587.455 L 106.514 587.455 Q 102.515 582.973 102.515 575.59 L 102.515 575.59 L 102.515 575.59 Z  M 107.965 575.854 L 107.965 575.854 L 107.965 575.854 Q 107.965 581.127 110.411 584.32 L 110.411 584.32 L 110.411 584.32 Q 112.857 587.514 116.959 587.514 L 116.959 587.514 L 116.959 587.514 Q 121.09 587.514 123.521 584.276 L 123.521 584.276 L 123.521 584.276 Q 125.953 581.039 125.953 575.209 L 125.953 575.209 L 125.953 575.209 Q 125.953 569.994 123.477 566.757 L 123.477 566.757 L 123.477 566.757 Q 121.002 563.52 116.9 563.52 L 116.9 563.52 L 116.9 563.52 Q 112.886 563.52 110.425 566.713 L 110.425 566.713 L 110.425 566.713 Q 107.965 569.906 107.965 575.854 Z  M 140.132 559.652 L 148.189 583.998 L 156.041 559.652 L 161.578 559.652 L 150.211 591.352 L 146.08 591.352 L 134.595 559.652 L 140.132 559.652 L 140.132 559.652 Z  M 191.607 591.352 L 185.924 591.352 L 185.924 591.352 Q 185.455 590.414 185.162 588.012 L 185.162 588.012 L 185.162 588.012 Q 181.382 591.938 176.138 591.938 L 176.138 591.938 L 176.138 591.938 Q 171.451 591.938 168.448 589.286 L 168.448 589.286 L 168.448 589.286 Q 165.445 586.635 165.445 582.563 L 165.445 582.563 L 165.445 582.563 Q 165.445 577.611 169.21 574.872 L 169.21 574.872 L 169.21 574.872 Q 172.974 572.133 179.8 572.133 L 179.8 572.133 L 185.074 572.133 L 185.074 569.643 L 185.074 569.643 Q 185.074 566.801 183.375 565.116 L 183.375 565.116 L 183.375 565.116 Q 181.675 563.432 178.365 563.432 L 178.365 563.432 L 178.365 563.432 Q 175.465 563.432 173.502 564.896 L 173.502 564.896 L 173.502 564.896 Q 171.539 566.361 171.539 568.441 L 171.539 568.441 L 166.09 568.441 L 166.09 568.441 Q 166.09 566.068 167.774 563.856 L 167.774 563.856 L 167.774 563.856 Q 169.459 561.645 172.344 560.355 L 172.344 560.355 L 172.344 560.355 Q 175.23 559.066 178.687 559.066 L 178.687 559.066 L 178.687 559.066 Q 184.166 559.066 187.271 561.806 L 187.271 561.806 L 187.271 561.806 Q 190.377 564.545 190.494 569.35 L 190.494 569.35 L 190.494 583.939 L 190.494 583.939 Q 190.494 588.305 191.607 590.883 L 191.607 590.883 L 191.607 591.352 L 191.607 591.352 Z  M 176.929 587.221 L 176.929 587.221 L 176.929 587.221 Q 179.478 587.221 181.763 585.902 L 181.763 585.902 L 181.763 585.902 Q 184.049 584.584 185.074 582.475 L 185.074 582.475 L 185.074 575.971 L 180.826 575.971 L 180.826 575.971 Q 170.865 575.971 170.865 581.801 L 170.865 581.801 L 170.865 581.801 Q 170.865 584.35 172.564 585.785 L 172.564 585.785 L 172.564 585.785 Q 174.263 587.221 176.929 587.221 Z  M 204.879 546.352 L 204.879 591.352 L 199.459 591.352 L 199.459 546.352 L 204.879 546.352 L 204.879 546.352 Z  M 226.705 591.938 L 226.705 591.938 L 226.705 591.938 Q 220.259 591.938 216.216 587.704 L 216.216 587.704 L 216.216 587.704 Q 212.174 583.471 212.174 576.381 L 212.174 576.381 L 212.174 575.385 L 212.174 575.385 Q 212.174 570.668 213.975 566.962 L 213.975 566.962 L 213.975 566.962 Q 215.777 563.256 219.014 561.161 L 219.014 561.161 L 219.014 561.161 Q 222.252 559.066 226.031 559.066 L 226.031 559.066 L 226.031 559.066 Q 232.213 559.066 235.64 563.139 L 235.64 563.139 L 235.64 563.139 Q 239.068 567.211 239.068 574.799 L 239.068 574.799 L 239.068 577.055 L 217.593 577.055 L 217.593 577.055 Q 217.711 581.742 220.333 584.628 L 220.333 584.628 L 220.333 584.628 Q 222.955 587.514 226.998 587.514 L 226.998 587.514 L 226.998 587.514 Q 229.869 587.514 231.861 586.342 L 231.861 586.342 L 231.861 586.342 Q 233.853 585.17 235.347 583.236 L 235.347 583.236 L 238.658 585.814 L 238.658 585.814 Q 234.674 591.938 226.705 591.938 Z  M 226.031 563.52 L 226.031 563.52 L 226.031 563.52 Q 222.75 563.52 220.523 565.907 L 220.523 565.907 L 220.523 565.907 Q 218.297 568.295 217.769 572.602 L 217.769 572.602 L 233.648 572.602 L 233.648 572.191 L 233.648 572.191 Q 233.414 568.061 231.422 565.79 L 231.422 565.79 L 231.422 565.79 Q 229.429 563.52 226.031 563.52 Z  M 245.338 559.652 L 250.465 559.652 L 250.64 563.637 L 250.64 563.637 Q 254.273 559.066 260.132 559.066 L 260.132 559.066 L 260.132 559.066 Q 270.181 559.066 270.269 570.404 L 270.269 570.404 L 270.269 591.352 L 264.849 591.352 L 264.849 570.375 L 264.849 570.375 Q 264.82 566.947 263.282 565.307 L 263.282 565.307 L 263.282 565.307 Q 261.744 563.666 258.492 563.666 L 258.492 563.666 L 258.492 563.666 Q 255.855 563.666 253.863 565.072 L 253.863 565.072 L 253.863 565.072 Q 251.871 566.479 250.757 568.764 L 250.757 568.764 L 250.757 591.352 L 245.338 591.352 L 245.338 559.652 L 245.338 559.652 Z  M 280.377 551.977 L 285.797 551.977 L 285.797 559.652 L 291.715 559.652 L 291.715 563.842 L 285.797 563.842 L 285.797 583.5 L 285.797 583.5 Q 285.797 585.404 286.588 586.356 L 286.588 586.356 L 286.588 586.356 Q 287.379 587.309 289.283 587.309 L 289.283 587.309 L 289.283 587.309 Q 290.22 587.309 291.861 586.957 L 291.861 586.957 L 291.861 591.352 L 291.861 591.352 Q 289.722 591.938 287.701 591.938 L 287.701 591.938 L 287.701 591.938 Q 284.068 591.938 282.222 589.74 L 282.222 589.74 L 282.222 589.74 Q 280.377 587.543 280.377 583.5 L 280.377 583.5 L 280.377 563.842 L 274.605 563.842 L 274.605 559.652 L 280.377 559.652 L 280.377 551.977 L 280.377 551.977 Z " fill="rgb(70,70,70)"/><path d=" M 153.16 400.96 L 154.89 399.95 L 156.9 403.41 L 155.17 404.42 L 131.17 418.42 L 129.45 419.42 L 127.43 415.97 L 129.16 414.96 L 153.16 400.96 Z " fill="rgb(3,155,229)"/><path d=" M 177.16 386.96 L 178.89 385.95 L 180.9 389.41 L 179.17 390.42 L 155.17 404.42 L 153.45 405.42 L 151.43 401.97 L 153.16 400.96 L 177.16 386.96 Z " fill="rgb(3,155,229)"/><path d=" M 267.16 404.42 L 265.43 403.41 L 267.45 399.95 L 269.17 400.96 L 293.17 414.96 L 294.9 415.97 L 292.89 419.42 L 291.16 418.42 L 267.16 404.42 Z " fill="rgb(185,185,185)"/><path d=" M 243.16 390.42 L 241.43 389.41 L 243.45 385.95 L 245.17 386.96 L 269.17 400.96 L 270.9 401.97 L 268.89 405.42 L 267.16 404.42 L 243.16 390.42 Z " fill="rgb(70,70,70)"/><path d=" M 202.67 300.69 L 202.67 302.69 L 198.67 302.69 L 198.67 300.69 L 198.67 272.69 L 198.67 270.69 L 202.67 270.69 L 202.67 272.69 L 202.67 300.69 Z " fill="rgb(124,179,66)"/><path d=" M 223.67 300.69 L 223.67 302.69 L 219.67 302.69 L 219.67 300.69 L 219.67 272.69 L 219.67 270.69 L 223.67 270.69 L 223.67 272.69 L 223.67 300.69 Z " fill="rgb(124,179,66)"/><path d=" M 202.67 328.69 L 202.67 330.69 L 198.67 330.69 L 198.67 328.69 L 198.67 300.69 L 198.67 298.69 L 202.67 298.69 L 202.67 300.69 L 202.67 328.69 Z " fill="rgb(3,155,229)"/><path d=" M 223.67 328.69 L 223.67 330.69 L 219.67 330.69 L 219.67 328.69 L 219.67 300.69 L 219.67 298.69 L 223.67 298.69 L 223.67 300.69 L 223.67 328.69 Z " fill="rgb(3,155,229)"/><path d=" M 224.565 379.859 L 232.104 379.859 L 232.104 379.859 Q 231.049 388.883 225.444 393.785 L 225.444 393.785 L 225.444 393.785 Q 219.839 398.688 210.542 398.688 L 210.542 398.688 L 210.542 398.688 Q 200.464 398.688 194.389 391.461 L 194.389 391.461 L 194.389 391.461 Q 188.315 384.234 188.315 372.125 L 188.315 372.125 L 188.315 366.656 L 188.315 366.656 Q 188.315 358.727 191.147 352.711 L 191.147 352.711 L 191.147 352.711 Q 193.979 346.695 199.174 343.473 L 199.174 343.473 L 199.174 343.473 Q 204.37 340.25 211.206 340.25 L 211.206 340.25 L 211.206 340.25 Q 220.268 340.25 225.737 345.309 L 225.737 345.309 L 225.737 345.309 Q 231.206 350.367 232.104 359.313 L 232.104 359.313 L 224.565 359.313 L 224.565 359.313 Q 223.589 352.516 220.327 349.469 L 220.327 349.469 L 220.327 349.469 Q 217.065 346.422 211.206 346.422 L 211.206 346.422 L 211.206 346.422 Q 204.018 346.422 199.936 351.734 L 199.936 351.734 L 199.936 351.734 Q 195.854 357.047 195.854 366.852 L 195.854 366.852 L 195.854 372.359 L 195.854 372.359 Q 195.854 381.617 199.721 387.086 L 199.721 387.086 L 199.721 387.086 Q 203.589 392.555 210.542 392.555 L 210.542 392.555 L 210.542 392.555 Q 216.792 392.555 220.132 389.723 L 220.132 389.723 L 220.132 389.723 Q 223.471 386.891 224.565 379.859 L 224.565 379.859 L 224.565 379.859 Z " fill="rgb(3,155,229)"/><path d=" M 375.061 470.311 L 375.061 473.26 L 356.428 473.26 L 356.428 470.662 L 366.272 459.725 L 366.272 459.725 Q 368.46 457.244 369.29 455.691 L 369.29 455.691 L 369.29 455.691 Q 370.12 454.139 370.12 452.479 L 370.12 452.479 L 370.12 452.479 Q 370.12 450.252 368.772 448.826 L 368.772 448.826 L 368.772 448.826 Q 367.424 447.4 365.178 447.4 L 365.178 447.4 L 365.178 447.4 Q 362.483 447.4 360.989 448.934 L 360.989 448.934 L 360.989 448.934 Q 359.495 450.467 359.495 453.201 L 359.495 453.201 L 355.882 453.201 L 355.882 453.201 Q 355.882 449.275 358.411 446.854 L 358.411 446.854 L 358.411 446.854 Q 360.94 444.432 365.178 444.432 L 365.178 444.432 L 365.178 444.432 Q 369.143 444.432 371.448 446.512 L 371.448 446.512 L 371.448 446.512 Q 373.753 448.592 373.753 452.049 L 373.753 452.049 L 373.753 452.049 Q 373.753 456.248 368.401 462.049 L 368.401 462.049 L 360.784 470.311 L 375.061 470.311 L 375.061 470.311 Z  M 344.612 467.156 L 332.268 444.148 L 318.909 444.148 L 318.909 467.156 L 311.37 467.156 L 311.37 410.281 L 330.198 410.281 L 330.198 410.281 Q 339.807 410.281 344.983 414.656 L 344.983 414.656 L 344.983 414.656 Q 350.159 419.031 350.159 427.391 L 350.159 427.391 L 350.159 427.391 Q 350.159 432.703 347.288 436.648 L 347.288 436.648 L 347.288 436.648 Q 344.417 440.594 339.299 442.547 L 339.299 442.547 L 352.659 466.688 L 352.659 467.156 L 344.612 467.156 L 344.612 467.156 Z  M 318.909 416.453 L 318.909 438.016 L 330.432 438.016 L 330.432 438.016 Q 336.018 438.016 339.319 435.125 L 339.319 435.125 L 339.319 435.125 Q 342.62 432.234 342.62 427.391 L 342.62 427.391 L 342.62 427.391 Q 342.62 422.117 339.475 419.305 L 339.475 419.305 L 339.475 419.305 Q 336.331 416.492 330.393 416.453 L 330.393 416.453 L 318.909 416.453 L 318.909 416.453 Z " fill="rgb(185,185,185)"/><path d=" M 132.303 444.686 L 132.303 473.26 L 128.671 473.26 L 128.671 449.178 L 121.385 451.854 L 121.385 448.572 L 131.737 444.686 L 132.303 444.686 L 132.303 444.686 Z  M 108.612 467.156 L 96.268 444.148 L 82.909 444.148 L 82.909 467.156 L 75.37 467.156 L 75.37 410.281 L 94.198 410.281 L 94.198 410.281 Q 103.807 410.281 108.983 414.656 L 108.983 414.656 L 108.983 414.656 Q 114.159 419.031 114.159 427.391 L 114.159 427.391 L 114.159 427.391 Q 114.159 432.703 111.288 436.648 L 111.288 436.648 L 111.288 436.648 Q 108.417 440.594 103.299 442.547 L 103.299 442.547 L 116.659 466.688 L 116.659 467.156 L 108.612 467.156 L 108.612 467.156 Z  M 82.909 416.453 L 82.909 438.016 L 94.432 438.016 L 94.432 438.016 Q 100.018 438.016 103.319 435.125 L 103.319 435.125 L 103.319 435.125 Q 106.62 432.234 106.62 427.391 L 106.62 427.391 L 106.62 427.391 Q 106.62 422.117 103.475 419.305 L 103.475 419.305 L 103.475 419.305 Q 100.331 416.492 94.393 416.453 L 94.393 416.453 L 82.909 416.453 L 82.909 416.453 Z " fill="rgb(3,155,229)"/><path d=" M 233.018 233.711 L 233.018 237.305 L 233.018 237.305 Q 233.018 245.664 230.206 251.895 L 230.206 251.895 L 230.206 251.895 Q 227.393 258.125 222.237 261.406 L 222.237 261.406 L 222.237 261.406 Q 217.081 264.688 210.206 264.688 L 210.206 264.688 L 210.206 264.688 Q 203.487 264.688 198.292 261.387 L 198.292 261.387 L 198.292 261.387 Q 193.096 258.086 190.225 251.973 L 190.225 251.973 L 190.225 251.973 Q 187.354 245.859 187.276 237.813 L 187.276 237.813 L 187.276 233.711 L 187.276 233.711 Q 187.276 225.508 190.128 219.219 L 190.128 219.219 L 190.128 219.219 Q 192.979 212.93 198.194 209.59 L 198.194 209.59 L 198.194 209.59 Q 203.409 206.25 210.128 206.25 L 210.128 206.25 L 210.128 206.25 Q 216.964 206.25 222.178 209.551 L 222.178 209.551 L 222.178 209.551 Q 227.393 212.852 230.206 219.121 L 230.206 219.121 L 230.206 219.121 Q 233.018 225.391 233.018 233.711 L 233.018 233.711 L 233.018 233.711 Z  M 225.557 237.852 L 225.557 233.633 L 225.557 233.633 Q 225.557 223.516 221.495 218.105 L 221.495 218.105 L 221.495 218.105 Q 217.432 212.695 210.128 212.695 L 210.128 212.695 L 210.128 212.695 Q 203.018 212.695 198.936 218.105 L 198.936 218.105 L 198.936 218.105 Q 194.854 223.516 194.737 233.125 L 194.737 233.125 L 194.737 237.305 L 194.737 237.305 Q 194.737 247.109 198.858 252.715 L 198.858 252.715 L 198.858 252.715 Q 202.979 258.32 210.206 258.32 L 210.206 258.32 L 210.206 258.32 Q 217.471 258.32 221.456 253.027 L 221.456 253.027 L 221.456 253.027 Q 225.44 247.734 225.557 237.852 L 225.557 237.852 L 225.557 237.852 Z " fill="rgb(124,179,66)"/><path d=" M 155.667 195.188 C 155.667 187.737 161.716 181.688 169.167 181.687 C 176.618 181.687 182.667 187.737 182.667 195.188 C 182.667 202.638 176.618 208.688 169.167 208.688 C 161.716 208.688 155.667 202.638 155.667 195.188 Z  M 158.67 195.19 C 158.67 192.4 159.77 189.73 161.74 187.76 C 163.71 185.79 166.38 184.69 169.17 184.69 C 171.95 184.69 174.62 185.79 176.59 187.76 C 178.56 189.73 179.67 192.4 179.67 195.19 C 179.67 197.97 178.56 200.64 176.59 202.61 C 174.62 204.58 171.95 205.69 169.17 205.69 C 166.38 205.69 163.71 204.58 161.74 202.61 C 159.77 200.64 158.67 197.97 158.67 195.19 Z " fill-rule="evenodd" fill="rgb(124,179,66)"/><path d=" M 721.944 644.965 L 711.895 644.965 L 711.895 661.664 L 706.27 661.664 L 706.27 619.008 L 722.002 619.008 L 722.002 619.008 Q 729.004 619.008 732.974 622.582 L 732.974 622.582 L 732.974 622.582 Q 736.944 626.156 736.944 632.045 L 736.944 632.045 L 736.944 632.045 Q 736.944 638.256 733.062 641.61 L 733.062 641.61 L 733.062 641.61 Q 729.18 644.965 721.944 644.965 L 721.944 644.965 L 721.944 644.965 Z  M 711.895 623.637 L 711.895 640.365 L 722.002 640.365 L 722.002 640.365 Q 726.514 640.365 728.916 638.241 L 728.916 638.241 L 728.916 638.241 Q 731.319 636.117 731.319 632.104 L 731.319 632.104 L 731.319 632.104 Q 731.319 628.295 728.916 626.01 L 728.916 626.01 L 728.916 626.01 Q 726.514 623.725 722.325 623.637 L 722.325 623.637 L 711.895 623.637 L 711.895 623.637 Z  M 768.203 661.664 L 762.52 661.664 L 762.52 661.664 Q 762.051 660.727 761.758 658.324 L 761.758 658.324 L 761.758 658.324 Q 757.979 662.25 752.735 662.25 L 752.735 662.25 L 752.735 662.25 Q 748.047 662.25 745.044 659.599 L 745.044 659.599 L 745.044 659.599 Q 742.041 656.947 742.041 652.875 L 742.041 652.875 L 742.041 652.875 Q 742.041 647.924 745.806 645.185 L 745.806 645.185 L 745.806 645.185 Q 749.571 642.445 756.397 642.445 L 756.397 642.445 L 761.67 642.445 L 761.67 639.955 L 761.67 639.955 Q 761.67 637.113 759.971 635.429 L 759.971 635.429 L 759.971 635.429 Q 758.272 633.744 754.961 633.744 L 754.961 633.744 L 754.961 633.744 Q 752.061 633.744 750.098 635.209 L 750.098 635.209 L 750.098 635.209 Q 748.135 636.674 748.135 638.754 L 748.135 638.754 L 742.686 638.754 L 742.686 638.754 Q 742.686 636.381 744.37 634.169 L 744.37 634.169 L 744.37 634.169 Q 746.055 631.957 748.941 630.668 L 748.941 630.668 L 748.941 630.668 Q 751.826 629.379 755.284 629.379 L 755.284 629.379 L 755.284 629.379 Q 760.762 629.379 763.868 632.118 L 763.868 632.118 L 763.868 632.118 Q 766.973 634.857 767.09 639.662 L 767.09 639.662 L 767.09 654.252 L 767.09 654.252 Q 767.09 658.617 768.203 661.195 L 768.203 661.195 L 768.203 661.664 L 768.203 661.664 Z  M 753.526 657.533 L 753.526 657.533 L 753.526 657.533 Q 756.075 657.533 758.36 656.215 L 758.36 656.215 L 758.36 656.215 Q 760.645 654.896 761.67 652.787 L 761.67 652.787 L 761.67 646.283 L 757.422 646.283 L 757.422 646.283 Q 747.461 646.283 747.461 652.113 L 747.461 652.113 L 747.461 652.113 Q 747.461 654.662 749.16 656.098 L 749.16 656.098 L 749.16 656.098 Q 750.86 657.533 753.526 657.533 Z  M 781.475 629.965 L 781.475 661.664 L 776.055 661.664 L 776.055 629.965 L 781.475 629.965 L 781.475 629.965 Z  M 775.616 621.557 L 775.616 621.557 L 775.616 621.557 Q 775.616 620.238 776.421 619.33 L 776.421 619.33 L 776.421 619.33 Q 777.227 618.422 778.809 618.422 L 778.809 618.422 L 778.809 618.422 Q 780.391 618.422 781.211 619.33 L 781.211 619.33 L 781.211 619.33 Q 782.032 620.238 782.032 621.557 L 782.032 621.557 L 782.032 621.557 Q 782.032 622.875 781.211 623.754 L 781.211 623.754 L 781.211 623.754 Q 780.391 624.633 778.809 624.633 L 778.809 624.633 L 778.809 624.633 Q 777.227 624.633 776.421 623.754 L 776.421 623.754 L 776.421 623.754 Q 775.616 622.875 775.616 621.557 Z  M 805.469 629.789 L 805.469 634.828 L 805.469 634.828 Q 804.239 634.623 802.803 634.623 L 802.803 634.623 L 802.803 634.623 Q 797.471 634.623 795.567 639.164 L 795.567 639.164 L 795.567 661.664 L 790.147 661.664 L 790.147 629.965 L 795.42 629.965 L 795.508 633.627 L 795.508 633.627 Q 798.174 629.379 803.067 629.379 L 803.067 629.379 L 803.067 629.379 Q 804.649 629.379 805.469 629.789 L 805.469 629.789 L 805.469 629.789 Z  M 813.277 548.695 L 813.277 586.752 L 833.492 586.752 L 833.492 591.352 L 807.622 591.352 L 807.622 548.695 L 813.277 548.695 L 813.277 548.695 Z  M 837.622 575.59 L 837.622 575.209 L 837.622 575.209 Q 837.622 570.551 839.453 566.83 L 839.453 566.83 L 839.453 566.83 Q 841.285 563.109 844.551 561.088 L 844.551 561.088 L 844.551 561.088 Q 847.818 559.066 852.007 559.066 L 852.007 559.066 L 852.007 559.066 Q 858.482 559.066 862.481 563.549 L 862.481 563.549 L 862.481 563.549 Q 866.48 568.031 866.48 575.473 L 866.48 575.473 L 866.48 575.854 L 866.48 575.854 Q 866.48 580.482 864.707 584.159 L 864.707 584.159 L 864.707 584.159 Q 862.935 587.836 859.639 589.887 L 859.639 589.887 L 859.639 589.887 Q 856.343 591.938 852.066 591.938 L 852.066 591.938 L 852.066 591.938 Q 845.62 591.938 841.621 587.455 L 841.621 587.455 L 841.621 587.455 Q 837.622 582.973 837.622 575.59 L 837.622 575.59 L 837.622 575.59 Z  M 843.072 575.854 L 843.072 575.854 L 843.072 575.854 Q 843.072 581.127 845.518 584.32 L 845.518 584.32 L 845.518 584.32 Q 847.964 587.514 852.066 587.514 L 852.066 587.514 L 852.066 587.514 Q 856.197 587.514 858.628 584.276 L 858.628 584.276 L 858.628 584.276 Q 861.06 581.039 861.06 575.209 L 861.06 575.209 L 861.06 575.209 Q 861.06 569.994 858.584 566.757 L 858.584 566.757 L 858.584 566.757 Q 856.109 563.52 852.007 563.52 L 852.007 563.52 L 852.007 563.52 Q 847.993 563.52 845.533 566.713 L 845.533 566.713 L 845.533 566.713 Q 843.072 569.906 843.072 575.854 Z  M 873.277 559.652 L 878.404 559.652 L 878.579 563.637 L 878.579 563.637 Q 882.212 559.066 888.072 559.066 L 888.072 559.066 L 888.072 559.066 Q 898.12 559.066 898.208 570.404 L 898.208 570.404 L 898.208 591.352 L 892.788 591.352 L 892.788 570.375 L 892.788 570.375 Q 892.759 566.947 891.221 565.307 L 891.221 565.307 L 891.221 565.307 Q 889.683 563.666 886.431 563.666 L 886.431 563.666 L 886.431 563.666 Q 883.794 563.666 881.802 565.072 L 881.802 565.072 L 881.802 565.072 Q 879.81 566.479 878.697 568.764 L 878.697 568.764 L 878.697 591.352 L 873.277 591.352 L 873.277 559.652 L 873.277 559.652 Z  M 919.536 591.938 L 919.536 591.938 L 919.536 591.938 Q 913.091 591.938 909.048 587.704 L 909.048 587.704 L 909.048 587.704 Q 905.005 583.471 905.005 576.381 L 905.005 576.381 L 905.005 575.385 L 905.005 575.385 Q 905.005 570.668 906.807 566.962 L 906.807 566.962 L 906.807 566.962 Q 908.609 563.256 911.846 561.161 L 911.846 561.161 L 911.846 561.161 Q 915.083 559.066 918.863 559.066 L 918.863 559.066 L 918.863 559.066 Q 925.044 559.066 928.472 563.139 L 928.472 563.139 L 928.472 563.139 Q 931.9 567.211 931.9 574.799 L 931.9 574.799 L 931.9 577.055 L 910.425 577.055 L 910.425 577.055 Q 910.542 581.742 913.164 584.628 L 913.164 584.628 L 913.164 584.628 Q 915.786 587.514 919.829 587.514 L 919.829 587.514 L 919.829 587.514 Q 922.701 587.514 924.693 586.342 L 924.693 586.342 L 924.693 586.342 Q 926.685 585.17 928.179 583.236 L 928.179 583.236 L 931.49 585.814 L 931.49 585.814 Q 927.505 591.938 919.536 591.938 Z  M 918.863 563.52 L 918.863 563.52 L 918.863 563.52 Q 915.581 563.52 913.355 565.907 L 913.355 565.907 L 913.355 565.907 Q 911.128 568.295 910.601 572.602 L 910.601 572.602 L 926.48 572.602 L 926.48 572.191 L 926.48 572.191 Q 926.245 568.061 924.253 565.79 L 924.253 565.79 L 924.253 565.79 Q 922.261 563.52 918.863 563.52 Z  M 590.357 591.352 L 578.55 591.352 L 578.55 548.695 L 590.591 548.695 L 590.591 548.695 Q 596.158 548.695 600.435 551.156 L 600.435 551.156 L 600.435 551.156 Q 604.712 553.617 607.041 558.158 L 607.041 558.158 L 607.041 558.158 Q 609.37 562.699 609.4 568.588 L 609.4 568.588 L 609.4 571.313 L 609.4 571.313 Q 609.4 577.348 607.071 581.889 L 607.071 581.889 L 607.071 581.889 Q 604.742 586.43 600.42 588.861 L 600.42 588.861 L 600.42 588.861 Q 596.099 591.293 590.357 591.352 L 590.357 591.352 L 590.357 591.352 Z  M 590.738 553.324 L 584.175 553.324 L 584.175 586.752 L 590.093 586.752 L 590.093 586.752 Q 596.597 586.752 600.215 582.709 L 600.215 582.709 L 600.215 582.709 Q 603.833 578.666 603.833 571.195 L 603.833 571.195 L 603.833 568.705 L 603.833 568.705 Q 603.833 561.439 600.42 557.411 L 600.42 557.411 L 600.42 557.411 Q 597.007 553.383 590.738 553.324 L 590.738 553.324 L 590.738 553.324 Z  M 622.935 559.652 L 622.935 591.352 L 617.515 591.352 L 617.515 559.652 L 622.935 559.652 L 622.935 559.652 Z  M 617.076 551.244 L 617.076 551.244 L 617.076 551.244 Q 617.076 549.926 617.881 549.018 L 617.881 549.018 L 617.881 549.018 Q 618.687 548.109 620.269 548.109 L 620.269 548.109 L 620.269 548.109 Q 621.851 548.109 622.671 549.018 L 622.671 549.018 L 622.671 549.018 Q 623.492 549.926 623.492 551.244 L 623.492 551.244 L 623.492 551.244 Q 623.492 552.563 622.671 553.441 L 622.671 553.441 L 622.671 553.441 Q 621.851 554.32 620.269 554.32 L 620.269 554.32 L 620.269 554.32 Q 618.687 554.32 617.881 553.441 L 617.881 553.441 L 617.881 553.441 Q 617.076 552.563 617.076 551.244 Z  M 634.009 559.652 L 642.066 583.998 L 649.917 559.652 L 655.454 559.652 L 644.087 591.352 L 639.956 591.352 L 628.472 559.652 L 634.009 559.652 L 634.009 559.652 Z  M 685.484 591.352 L 679.8 591.352 L 679.8 591.352 Q 679.331 590.414 679.038 588.012 L 679.038 588.012 L 679.038 588.012 Q 675.259 591.938 670.015 591.938 L 670.015 591.938 L 670.015 591.938 Q 665.327 591.938 662.325 589.286 L 662.325 589.286 L 662.325 589.286 Q 659.322 586.635 659.322 582.563 L 659.322 582.563 L 659.322 582.563 Q 659.322 577.611 663.086 574.872 L 663.086 574.872 L 663.086 574.872 Q 666.851 572.133 673.677 572.133 L 673.677 572.133 L 678.951 572.133 L 678.951 569.643 L 678.951 569.643 Q 678.951 566.801 677.251 565.116 L 677.251 565.116 L 677.251 565.116 Q 675.552 563.432 672.242 563.432 L 672.242 563.432 L 672.242 563.432 Q 669.341 563.432 667.378 564.896 L 667.378 564.896 L 667.378 564.896 Q 665.415 566.361 665.415 568.441 L 665.415 568.441 L 659.966 568.441 L 659.966 568.441 Q 659.966 566.068 661.651 563.856 L 661.651 563.856 L 661.651 563.856 Q 663.335 561.645 666.221 560.355 L 666.221 560.355 L 666.221 560.355 Q 669.107 559.066 672.564 559.066 L 672.564 559.066 L 672.564 559.066 Q 678.042 559.066 681.148 561.806 L 681.148 561.806 L 681.148 561.806 Q 684.253 564.545 684.37 569.35 L 684.37 569.35 L 684.37 583.939 L 684.37 583.939 Q 684.37 588.305 685.484 590.883 L 685.484 590.883 L 685.484 591.352 L 685.484 591.352 Z  M 670.806 587.221 L 670.806 587.221 L 670.806 587.221 Q 673.355 587.221 675.64 585.902 L 675.64 585.902 L 675.64 585.902 Q 677.925 584.584 678.951 582.475 L 678.951 582.475 L 678.951 575.971 L 674.702 575.971 L 674.702 575.971 Q 664.742 575.971 664.742 581.801 L 664.742 581.801 L 664.742 581.801 Q 664.742 584.35 666.441 585.785 L 666.441 585.785 L 666.441 585.785 Q 668.14 587.221 670.806 587.221 Z  M 698.755 546.352 L 698.755 591.352 L 693.335 591.352 L 693.335 546.352 L 698.755 546.352 L 698.755 546.352 Z  M 720.581 591.938 L 720.581 591.938 L 720.581 591.938 Q 714.136 591.938 710.093 587.704 L 710.093 587.704 L 710.093 587.704 Q 706.05 583.471 706.05 576.381 L 706.05 576.381 L 706.05 575.385 L 706.05 575.385 Q 706.05 570.668 707.852 566.962 L 707.852 566.962 L 707.852 566.962 Q 709.654 563.256 712.891 561.161 L 712.891 561.161 L 712.891 561.161 Q 716.128 559.066 719.908 559.066 L 719.908 559.066 L 719.908 559.066 Q 726.089 559.066 729.517 563.139 L 729.517 563.139 L 729.517 563.139 Q 732.945 567.211 732.945 574.799 L 732.945 574.799 L 732.945 577.055 L 711.47 577.055 L 711.47 577.055 Q 711.587 581.742 714.209 584.628 L 714.209 584.628 L 714.209 584.628 Q 716.831 587.514 720.874 587.514 L 720.874 587.514 L 720.874 587.514 Q 723.745 587.514 725.738 586.342 L 725.738 586.342 L 725.738 586.342 Q 727.73 585.17 729.224 583.236 L 729.224 583.236 L 732.535 585.814 L 732.535 585.814 Q 728.55 591.938 720.581 591.938 Z  M 719.908 563.52 L 719.908 563.52 L 719.908 563.52 Q 716.626 563.52 714.4 565.907 L 714.4 565.907 L 714.4 565.907 Q 712.173 568.295 711.646 572.602 L 711.646 572.602 L 727.525 572.602 L 727.525 572.191 L 727.525 572.191 Q 727.29 568.061 725.298 565.79 L 725.298 565.79 L 725.298 565.79 Q 723.306 563.52 719.908 563.52 Z  M 739.214 559.652 L 744.341 559.652 L 744.517 563.637 L 744.517 563.637 Q 748.15 559.066 754.009 559.066 L 754.009 559.066 L 754.009 559.066 Q 764.058 559.066 764.146 570.404 L 764.146 570.404 L 764.146 591.352 L 758.726 591.352 L 758.726 570.375 L 758.726 570.375 Q 758.697 566.947 757.159 565.307 L 757.159 565.307 L 757.159 565.307 Q 755.62 563.666 752.368 563.666 L 752.368 563.666 L 752.368 563.666 Q 749.732 563.666 747.74 565.072 L 747.74 565.072 L 747.74 565.072 Q 745.747 566.479 744.634 568.764 L 744.634 568.764 L 744.634 591.352 L 739.214 591.352 L 739.214 559.652 L 739.214 559.652 Z  M 774.253 551.977 L 779.673 551.977 L 779.673 559.652 L 785.591 559.652 L 785.591 563.842 L 779.673 563.842 L 779.673 583.5 L 779.673 583.5 Q 779.673 585.404 780.464 586.356 L 780.464 586.356 L 780.464 586.356 Q 781.255 587.309 783.16 587.309 L 783.16 587.309 L 783.16 587.309 Q 784.097 587.309 785.738 586.957 L 785.738 586.957 L 785.738 591.352 L 785.738 591.352 Q 783.599 591.938 781.577 591.938 L 781.577 591.938 L 781.577 591.938 Q 777.945 591.938 776.099 589.74 L 776.099 589.74 L 776.099 589.74 Q 774.253 587.543 774.253 583.5 L 774.253 583.5 L 774.253 563.842 L 768.482 563.842 L 768.482 559.652 L 774.253 559.652 L 774.253 551.977 L 774.253 551.977 Z " fill="rgb(70,70,70)"/><path d=" M 810.95 406.01 L 809.21 405.01 L 811.19 401.54 L 812.93 402.53 L 837.05 416.32 L 838.79 417.31 L 836.81 420.78 L 835.07 419.79 L 810.95 406.01 Z " fill="rgb(3,155,229)"/><path d=" M 786.82 392.22 L 785.08 391.23 L 787.07 387.76 L 788.81 388.75 L 812.93 402.53 L 814.67 403.53 L 812.68 407 L 810.95 406.01 L 786.82 392.22 Z " fill="rgb(124,179,66)"/><path d=" M 699.35 413.27 L 701.09 412.27 L 703.09 415.73 L 701.35 416.73 L 677.1 430.73 L 675.37 431.73 L 673.37 428.27 L 675.1 427.27 L 699.35 413.27 Z " fill="rgb(3,155,229)"/><path d=" M 688.85 395.08 L 690.59 394.08 L 692.59 397.55 L 690.85 398.55 L 666.6 412.55 L 664.87 413.55 L 662.87 410.08 L 664.6 409.08 L 688.85 395.08 Z " fill="rgb(3,155,229)"/><path d=" M 723.6 399.27 L 725.33 398.27 L 727.33 401.73 L 725.6 402.73 L 701.35 416.73 L 699.62 417.73 L 697.62 414.27 L 699.35 413.27 L 723.6 399.27 Z " fill="rgb(124,179,66)"/><path d=" M 713.1 381.08 L 714.83 380.08 L 716.83 383.55 L 715.1 384.55 L 690.85 398.55 L 689.12 399.55 L 687.12 396.08 L 688.85 395.08 L 713.1 381.08 Z " fill="rgb(124,179,66)"/><path d=" M 773.646 341.031 L 773.646 397.906 L 766.107 397.906 L 737.474 354.078 L 737.474 397.906 L 729.935 397.906 L 729.935 341.031 L 737.474 341.031 L 766.185 385.055 L 766.185 341.031 L 773.646 341.031 L 773.646 341.031 Z " fill="rgb(124,179,66)"/><path d=" M 914.728 470.311 L 914.728 473.26 L 896.095 473.26 L 896.095 470.662 L 905.939 459.725 L 905.939 459.725 Q 908.126 457.244 908.956 455.691 L 908.956 455.691 L 908.956 455.691 Q 909.786 454.139 909.786 452.479 L 909.786 452.479 L 909.786 452.479 Q 909.786 450.252 908.439 448.826 L 908.439 448.826 L 908.439 448.826 Q 907.091 447.4 904.845 447.4 L 904.845 447.4 L 904.845 447.4 Q 902.15 447.4 900.656 448.934 L 900.656 448.934 L 900.656 448.934 Q 899.161 450.467 899.161 453.201 L 899.161 453.201 L 895.548 453.201 L 895.548 453.201 Q 895.548 449.275 898.077 446.854 L 898.077 446.854 L 898.077 446.854 Q 900.607 444.432 904.845 444.432 L 904.845 444.432 L 904.845 444.432 Q 908.81 444.432 911.115 446.512 L 911.115 446.512 L 911.115 446.512 Q 913.419 448.592 913.419 452.049 L 913.419 452.049 L 913.419 452.049 Q 913.419 456.248 908.068 462.049 L 908.068 462.049 L 900.451 470.311 L 914.728 470.311 L 914.728 470.311 Z  M 884.279 467.156 L 871.935 444.148 L 858.576 444.148 L 858.576 467.156 L 851.036 467.156 L 851.036 410.281 L 869.865 410.281 L 869.865 410.281 Q 879.474 410.281 884.65 414.656 L 884.65 414.656 L 884.65 414.656 Q 889.826 419.031 889.826 427.391 L 889.826 427.391 L 889.826 427.391 Q 889.826 432.703 886.954 436.648 L 886.954 436.648 L 886.954 436.648 Q 884.083 440.594 878.966 442.547 L 878.966 442.547 L 892.326 466.688 L 892.326 467.156 L 884.279 467.156 L 884.279 467.156 Z  M 858.576 416.453 L 858.576 438.016 L 870.099 438.016 L 870.099 438.016 Q 875.685 438.016 878.986 435.125 L 878.986 435.125 L 878.986 435.125 Q 882.286 432.234 882.286 427.391 L 882.286 427.391 L 882.286 427.391 Q 882.286 422.117 879.142 419.305 L 879.142 419.305 L 879.142 419.305 Q 875.997 416.492 870.06 416.453 L 870.06 416.453 L 858.576 416.453 L 858.576 416.453 Z " fill="rgb(3,155,229)"/><path d=" M 671.97 444.686 L 671.97 473.26 L 668.337 473.26 L 668.337 449.178 L 661.052 451.854 L 661.052 448.572 L 671.404 444.686 L 671.97 444.686 L 671.97 444.686 Z  M 648.279 467.156 L 635.935 444.148 L 622.576 444.148 L 622.576 467.156 L 615.036 467.156 L 615.036 410.281 L 633.865 410.281 L 633.865 410.281 Q 643.474 410.281 648.65 414.656 L 648.65 414.656 L 648.65 414.656 Q 653.826 419.031 653.826 427.391 L 653.826 427.391 L 653.826 427.391 Q 653.826 432.703 650.954 436.648 L 650.954 436.648 L 650.954 436.648 Q 648.083 440.594 642.966 442.547 L 642.966 442.547 L 656.326 466.688 L 656.326 467.156 L 648.279 467.156 L 648.279 467.156 Z  M 622.576 416.453 L 622.576 438.016 L 634.099 438.016 L 634.099 438.016 Q 639.685 438.016 642.986 435.125 L 642.986 435.125 L 642.986 435.125 Q 646.286 432.234 646.286 427.391 L 646.286 427.391 L 646.286 427.391 Q 646.286 422.117 643.142 419.305 L 643.142 419.305 L 643.142 419.305 Q 639.997 416.492 634.06 416.453 L 634.06 416.453 L 622.576 416.453 L 622.576 416.453 Z " fill="rgb(3,155,229)"/><path d=" M 741.333 310.188 C 741.333 302.737 747.382 296.688 754.833 296.688 C 762.284 296.688 768.333 302.737 768.333 310.188 C 768.333 317.638 762.284 323.688 754.833 323.688 C 747.382 323.688 741.333 317.638 741.333 310.188 Z  M 744.33 310.19 C 744.33 307.4 745.44 304.73 747.41 302.76 C 749.38 300.79 752.05 299.69 754.83 299.69 C 757.62 299.69 760.29 300.79 762.26 302.76 C 764.23 304.73 765.33 307.4 765.33 310.19 C 765.33 312.97 764.23 315.64 762.26 317.61 C 760.29 319.58 757.62 320.69 754.83 320.69 C 752.05 320.69 749.38 319.58 747.41 317.61 C 745.44 315.64 744.33 312.97 744.33 310.19 Z " fill-rule="evenodd" fill="rgb(124,179,66)"/><path d=" M 1265.61 644.965 L 1255.562 644.965 L 1255.562 661.664 L 1249.937 661.664 L 1249.937 619.008 L 1265.669 619.008 L 1265.669 619.008 Q 1272.671 619.008 1276.641 622.582 L 1276.641 622.582 L 1276.641 622.582 Q 1280.61 626.156 1280.61 632.045 L 1280.61 632.045 L 1280.61 632.045 Q 1280.61 638.256 1276.729 641.61 L 1276.729 641.61 L 1276.729 641.61 Q 1272.847 644.965 1265.61 644.965 L 1265.61 644.965 L 1265.61 644.965 Z  M 1255.562 623.637 L 1255.562 640.365 L 1265.669 640.365 L 1265.669 640.365 Q 1270.181 640.365 1272.583 638.241 L 1272.583 638.241 L 1272.583 638.241 Q 1274.985 636.117 1274.985 632.104 L 1274.985 632.104 L 1274.985 632.104 Q 1274.985 628.295 1272.583 626.01 L 1272.583 626.01 L 1272.583 626.01 Q 1270.181 623.725 1265.991 623.637 L 1265.991 623.637 L 1255.562 623.637 L 1255.562 623.637 Z  M 1311.87 661.664 L 1306.187 661.664 L 1306.187 661.664 Q 1305.718 660.727 1305.425 658.324 L 1305.425 658.324 L 1305.425 658.324 Q 1301.646 662.25 1296.401 662.25 L 1296.401 662.25 L 1296.401 662.25 Q 1291.714 662.25 1288.711 659.599 L 1288.711 659.599 L 1288.711 659.599 Q 1285.708 656.947 1285.708 652.875 L 1285.708 652.875 L 1285.708 652.875 Q 1285.708 647.924 1289.473 645.185 L 1289.473 645.185 L 1289.473 645.185 Q 1293.237 642.445 1300.063 642.445 L 1300.063 642.445 L 1305.337 642.445 L 1305.337 639.955 L 1305.337 639.955 Q 1305.337 637.113 1303.638 635.429 L 1303.638 635.429 L 1303.638 635.429 Q 1301.938 633.744 1298.628 633.744 L 1298.628 633.744 L 1298.628 633.744 Q 1295.728 633.744 1293.765 635.209 L 1293.765 635.209 L 1293.765 635.209 Q 1291.802 636.674 1291.802 638.754 L 1291.802 638.754 L 1286.353 638.754 L 1286.353 638.754 Q 1286.353 636.381 1288.037 634.169 L 1288.037 634.169 L 1288.037 634.169 Q 1289.722 631.957 1292.607 630.668 L 1292.607 630.668 L 1292.607 630.668 Q 1295.493 629.379 1298.95 629.379 L 1298.95 629.379 L 1298.95 629.379 Q 1304.429 629.379 1307.534 632.118 L 1307.534 632.118 L 1307.534 632.118 Q 1310.64 634.857 1310.757 639.662 L 1310.757 639.662 L 1310.757 654.252 L 1310.757 654.252 Q 1310.757 658.617 1311.87 661.195 L 1311.87 661.195 L 1311.87 661.664 L 1311.87 661.664 Z  M 1297.192 657.533 L 1297.192 657.533 L 1297.192 657.533 Q 1299.741 657.533 1302.026 656.215 L 1302.026 656.215 L 1302.026 656.215 Q 1304.312 654.896 1305.337 652.787 L 1305.337 652.787 L 1305.337 646.283 L 1301.089 646.283 L 1301.089 646.283 Q 1291.128 646.283 1291.128 652.113 L 1291.128 652.113 L 1291.128 652.113 Q 1291.128 654.662 1292.827 656.098 L 1292.827 656.098 L 1292.827 656.098 Q 1294.526 657.533 1297.192 657.533 Z  M 1325.142 629.965 L 1325.142 661.664 L 1319.722 661.664 L 1319.722 629.965 L 1325.142 629.965 L 1325.142 629.965 Z  M 1319.282 621.557 L 1319.282 621.557 L 1319.282 621.557 Q 1319.282 620.238 1320.088 619.33 L 1320.088 619.33 L 1320.088 619.33 Q 1320.894 618.422 1322.476 618.422 L 1322.476 618.422 L 1322.476 618.422 Q 1324.058 618.422 1324.878 619.33 L 1324.878 619.33 L 1324.878 619.33 Q 1325.698 620.238 1325.698 621.557 L 1325.698 621.557 L 1325.698 621.557 Q 1325.698 622.875 1324.878 623.754 L 1324.878 623.754 L 1324.878 623.754 Q 1324.058 624.633 1322.476 624.633 L 1322.476 624.633 L 1322.476 624.633 Q 1320.894 624.633 1320.088 623.754 L 1320.088 623.754 L 1320.088 623.754 Q 1319.282 622.875 1319.282 621.557 Z  M 1349.136 629.789 L 1349.136 634.828 L 1349.136 634.828 Q 1347.905 634.623 1346.47 634.623 L 1346.47 634.623 L 1346.47 634.623 Q 1341.138 634.623 1339.233 639.164 L 1339.233 639.164 L 1339.233 661.664 L 1333.813 661.664 L 1333.813 629.965 L 1339.087 629.965 L 1339.175 633.627 L 1339.175 633.627 Q 1341.841 629.379 1346.733 629.379 L 1346.733 629.379 L 1346.733 629.379 Q 1348.315 629.379 1349.136 629.789 L 1349.136 629.789 L 1349.136 629.789 Z  M 1364.224 548.695 L 1364.224 586.752 L 1384.438 586.752 L 1384.438 591.352 L 1358.569 591.352 L 1358.569 548.695 L 1364.224 548.695 L 1364.224 548.695 Z  M 1388.569 575.59 L 1388.569 575.209 L 1388.569 575.209 Q 1388.569 570.551 1390.4 566.83 L 1390.4 566.83 L 1390.4 566.83 Q 1392.231 563.109 1395.498 561.088 L 1395.498 561.088 L 1395.498 561.088 Q 1398.765 559.066 1402.954 559.066 L 1402.954 559.066 L 1402.954 559.066 Q 1409.429 559.066 1413.428 563.549 L 1413.428 563.549 L 1413.428 563.549 Q 1417.427 568.031 1417.427 575.473 L 1417.427 575.473 L 1417.427 575.854 L 1417.427 575.854 Q 1417.427 580.482 1415.654 584.159 L 1415.654 584.159 L 1415.654 584.159 Q 1413.882 587.836 1410.586 589.887 L 1410.586 589.887 L 1410.586 589.887 Q 1407.29 591.938 1403.013 591.938 L 1403.013 591.938 L 1403.013 591.938 Q 1396.567 591.938 1392.568 587.455 L 1392.568 587.455 L 1392.568 587.455 Q 1388.569 582.973 1388.569 575.59 L 1388.569 575.59 L 1388.569 575.59 Z  M 1394.019 575.854 L 1394.019 575.854 L 1394.019 575.854 Q 1394.019 581.127 1396.465 584.32 L 1396.465 584.32 L 1396.465 584.32 Q 1398.911 587.514 1403.013 587.514 L 1403.013 587.514 L 1403.013 587.514 Q 1407.144 587.514 1409.575 584.276 L 1409.575 584.276 L 1409.575 584.276 Q 1412.007 581.039 1412.007 575.209 L 1412.007 575.209 L 1412.007 575.209 Q 1412.007 569.994 1409.531 566.757 L 1409.531 566.757 L 1409.531 566.757 Q 1407.056 563.52 1402.954 563.52 L 1402.954 563.52 L 1402.954 563.52 Q 1398.94 563.52 1396.479 566.713 L 1396.479 566.713 L 1396.479 566.713 Q 1394.019 569.906 1394.019 575.854 Z  M 1424.224 559.652 L 1429.351 559.652 L 1429.526 563.637 L 1429.526 563.637 Q 1433.159 559.066 1439.019 559.066 L 1439.019 559.066 L 1439.019 559.066 Q 1449.067 559.066 1449.155 570.404 L 1449.155 570.404 L 1449.155 591.352 L 1443.735 591.352 L 1443.735 570.375 L 1443.735 570.375 Q 1443.706 566.947 1442.168 565.307 L 1442.168 565.307 L 1442.168 565.307 Q 1440.63 563.666 1437.378 563.666 L 1437.378 563.666 L 1437.378 563.666 Q 1434.741 563.666 1432.749 565.072 L 1432.749 565.072 L 1432.749 565.072 Q 1430.757 566.479 1429.644 568.764 L 1429.644 568.764 L 1429.644 591.352 L 1424.224 591.352 L 1424.224 559.652 L 1424.224 559.652 Z  M 1470.483 591.938 L 1470.483 591.938 L 1470.483 591.938 Q 1464.038 591.938 1459.995 587.704 L 1459.995 587.704 L 1459.995 587.704 Q 1455.952 583.471 1455.952 576.381 L 1455.952 576.381 L 1455.952 575.385 L 1455.952 575.385 Q 1455.952 570.668 1457.754 566.962 L 1457.754 566.962 L 1457.754 566.962 Q 1459.556 563.256 1462.793 561.161 L 1462.793 561.161 L 1462.793 561.161 Q 1466.03 559.066 1469.81 559.066 L 1469.81 559.066 L 1469.81 559.066 Q 1475.991 559.066 1479.419 563.139 L 1479.419 563.139 L 1479.419 563.139 Q 1482.847 567.211 1482.847 574.799 L 1482.847 574.799 L 1482.847 577.055 L 1461.372 577.055 L 1461.372 577.055 Q 1461.489 581.742 1464.111 584.628 L 1464.111 584.628 L 1464.111 584.628 Q 1466.733 587.514 1470.776 587.514 L 1470.776 587.514 L 1470.776 587.514 Q 1473.647 587.514 1475.64 586.342 L 1475.64 586.342 L 1475.64 586.342 Q 1477.632 585.17 1479.126 583.236 L 1479.126 583.236 L 1482.437 585.814 L 1482.437 585.814 Q 1478.452 591.938 1470.483 591.938 Z  M 1469.81 563.52 L 1469.81 563.52 L 1469.81 563.52 Q 1466.528 563.52 1464.302 565.907 L 1464.302 565.907 L 1464.302 565.907 Q 1462.075 568.295 1461.548 572.602 L 1461.548 572.602 L 1477.427 572.602 L 1477.427 572.191 L 1477.427 572.191 Q 1477.192 568.061 1475.2 565.79 L 1475.2 565.79 L 1475.2 565.79 Q 1473.208 563.52 1469.81 563.52 Z  M 1144.409 548.695 L 1144.409 553.324 L 1130.698 553.324 L 1130.698 591.352 L 1125.103 591.352 L 1125.103 553.324 L 1111.421 553.324 L 1111.421 548.695 L 1144.409 548.695 L 1144.409 548.695 Z  M 1163.013 559.477 L 1163.013 564.516 L 1163.013 564.516 Q 1161.782 564.311 1160.347 564.311 L 1160.347 564.311 L 1160.347 564.311 Q 1155.015 564.311 1153.11 568.852 L 1153.11 568.852 L 1153.11 591.352 L 1147.69 591.352 L 1147.69 559.652 L 1152.964 559.652 L 1153.052 563.314 L 1153.052 563.314 Q 1155.718 559.066 1160.61 559.066 L 1160.61 559.066 L 1160.61 559.066 Q 1162.192 559.066 1163.013 559.477 L 1163.013 559.477 L 1163.013 559.477 Z  M 1173.882 559.652 L 1173.882 591.352 L 1168.462 591.352 L 1168.462 559.652 L 1173.882 559.652 L 1173.882 559.652 Z  M 1168.022 551.244 L 1168.022 551.244 L 1168.022 551.244 Q 1168.022 549.926 1168.828 549.018 L 1168.828 549.018 L 1168.828 549.018 Q 1169.634 548.109 1171.216 548.109 L 1171.216 548.109 L 1171.216 548.109 Q 1172.798 548.109 1173.618 549.018 L 1173.618 549.018 L 1173.618 549.018 Q 1174.438 549.926 1174.438 551.244 L 1174.438 551.244 L 1174.438 551.244 Q 1174.438 552.563 1173.618 553.441 L 1173.618 553.441 L 1173.618 553.441 Q 1172.798 554.32 1171.216 554.32 L 1171.216 554.32 L 1171.216 554.32 Q 1169.634 554.32 1168.828 553.441 L 1168.828 553.441 L 1168.828 553.441 Q 1168.022 552.563 1168.022 551.244 Z  M 1184.956 559.652 L 1193.013 583.998 L 1200.864 559.652 L 1206.401 559.652 L 1195.034 591.352 L 1190.903 591.352 L 1179.419 559.652 L 1184.956 559.652 L 1184.956 559.652 Z  M 1236.431 591.352 L 1230.747 591.352 L 1230.747 591.352 Q 1230.278 590.414 1229.985 588.012 L 1229.985 588.012 L 1229.985 588.012 Q 1226.206 591.938 1220.962 591.938 L 1220.962 591.938 L 1220.962 591.938 Q 1216.274 591.938 1213.271 589.286 L 1213.271 589.286 L 1213.271 589.286 Q 1210.269 586.635 1210.269 582.563 L 1210.269 582.563 L 1210.269 582.563 Q 1210.269 577.611 1214.033 574.872 L 1214.033 574.872 L 1214.033 574.872 Q 1217.798 572.133 1224.624 572.133 L 1224.624 572.133 L 1229.897 572.133 L 1229.897 569.643 L 1229.897 569.643 Q 1229.897 566.801 1228.198 565.116 L 1228.198 565.116 L 1228.198 565.116 Q 1226.499 563.432 1223.188 563.432 L 1223.188 563.432 L 1223.188 563.432 Q 1220.288 563.432 1218.325 564.896 L 1218.325 564.896 L 1218.325 564.896 Q 1216.362 566.361 1216.362 568.441 L 1216.362 568.441 L 1210.913 568.441 L 1210.913 568.441 Q 1210.913 566.068 1212.598 563.856 L 1212.598 563.856 L 1212.598 563.856 Q 1214.282 561.645 1217.168 560.355 L 1217.168 560.355 L 1217.168 560.355 Q 1220.054 559.066 1223.511 559.066 L 1223.511 559.066 L 1223.511 559.066 Q 1228.989 559.066 1232.095 561.806 L 1232.095 561.806 L 1232.095 561.806 Q 1235.2 564.545 1235.317 569.35 L 1235.317 569.35 L 1235.317 583.939 L 1235.317 583.939 Q 1235.317 588.305 1236.431 590.883 L 1236.431 590.883 L 1236.431 591.352 L 1236.431 591.352 Z  M 1221.753 587.221 L 1221.753 587.221 L 1221.753 587.221 Q 1224.302 587.221 1226.587 585.902 L 1226.587 585.902 L 1226.587 585.902 Q 1228.872 584.584 1229.897 582.475 L 1229.897 582.475 L 1229.897 575.971 L 1225.649 575.971 L 1225.649 575.971 Q 1215.688 575.971 1215.688 581.801 L 1215.688 581.801 L 1215.688 581.801 Q 1215.688 584.35 1217.388 585.785 L 1217.388 585.785 L 1217.388 585.785 Q 1219.087 587.221 1221.753 587.221 Z  M 1249.702 546.352 L 1249.702 591.352 L 1244.282 591.352 L 1244.282 546.352 L 1249.702 546.352 L 1249.702 546.352 Z  M 1271.528 591.938 L 1271.528 591.938 L 1271.528 591.938 Q 1265.083 591.938 1261.04 587.704 L 1261.04 587.704 L 1261.04 587.704 Q 1256.997 583.471 1256.997 576.381 L 1256.997 576.381 L 1256.997 575.385 L 1256.997 575.385 Q 1256.997 570.668 1258.799 566.962 L 1258.799 566.962 L 1258.799 566.962 Q 1260.601 563.256 1263.838 561.161 L 1263.838 561.161 L 1263.838 561.161 Q 1267.075 559.066 1270.854 559.066 L 1270.854 559.066 L 1270.854 559.066 Q 1277.036 559.066 1280.464 563.139 L 1280.464 563.139 L 1280.464 563.139 Q 1283.892 567.211 1283.892 574.799 L 1283.892 574.799 L 1283.892 577.055 L 1262.417 577.055 L 1262.417 577.055 Q 1262.534 581.742 1265.156 584.628 L 1265.156 584.628 L 1265.156 584.628 Q 1267.778 587.514 1271.821 587.514 L 1271.821 587.514 L 1271.821 587.514 Q 1274.692 587.514 1276.685 586.342 L 1276.685 586.342 L 1276.685 586.342 Q 1278.677 585.17 1280.171 583.236 L 1280.171 583.236 L 1283.481 585.814 L 1283.481 585.814 Q 1279.497 591.938 1271.528 591.938 Z  M 1270.854 563.52 L 1270.854 563.52 L 1270.854 563.52 Q 1267.573 563.52 1265.347 565.907 L 1265.347 565.907 L 1265.347 565.907 Q 1263.12 568.295 1262.593 572.602 L 1262.593 572.602 L 1278.472 572.602 L 1278.472 572.191 L 1278.472 572.191 Q 1278.237 568.061 1276.245 565.79 L 1276.245 565.79 L 1276.245 565.79 Q 1274.253 563.52 1270.854 563.52 Z  M 1290.161 559.652 L 1295.288 559.652 L 1295.464 563.637 L 1295.464 563.637 Q 1299.097 559.066 1304.956 559.066 L 1304.956 559.066 L 1304.956 559.066 Q 1315.005 559.066 1315.093 570.404 L 1315.093 570.404 L 1315.093 591.352 L 1309.673 591.352 L 1309.673 570.375 L 1309.673 570.375 Q 1309.644 566.947 1308.105 565.307 L 1308.105 565.307 L 1308.105 565.307 Q 1306.567 563.666 1303.315 563.666 L 1303.315 563.666 L 1303.315 563.666 Q 1300.679 563.666 1298.687 565.072 L 1298.687 565.072 L 1298.687 565.072 Q 1296.694 566.479 1295.581 568.764 L 1295.581 568.764 L 1295.581 591.352 L 1290.161 591.352 L 1290.161 559.652 L 1290.161 559.652 Z  M 1325.2 551.977 L 1330.62 551.977 L 1330.62 559.652 L 1336.538 559.652 L 1336.538 563.842 L 1330.62 563.842 L 1330.62 583.5 L 1330.62 583.5 Q 1330.62 585.404 1331.411 586.356 L 1331.411 586.356 L 1331.411 586.356 Q 1332.202 587.309 1334.106 587.309 L 1334.106 587.309 L 1334.106 587.309 Q 1335.044 587.309 1336.685 586.957 L 1336.685 586.957 L 1336.685 591.352 L 1336.685 591.352 Q 1334.546 591.938 1332.524 591.938 L 1332.524 591.938 L 1332.524 591.938 Q 1328.892 591.938 1327.046 589.74 L 1327.046 589.74 L 1327.046 589.74 Q 1325.2 587.543 1325.2 583.5 L 1325.2 583.5 L 1325.2 563.842 L 1319.429 563.842 L 1319.429 559.652 L 1325.2 559.652 L 1325.2 551.977 L 1325.2 551.977 Z " fill="rgb(70,70,70)"/><path d=" M 1354.61 344.56 L 1352.88 343.57 L 1354.86 340.1 L 1356.6 341.09 L 1380.72 354.87 L 1382.46 355.87 L 1380.47 359.34 L 1378.74 358.35 L 1354.61 344.56 Z " fill="rgb(3,155,229)"/><path d=" M 1330.49 330.78 L 1328.75 329.79 L 1330.74 326.31 L 1332.47 327.3 L 1356.6 341.09 L 1358.33 342.08 L 1356.35 345.55 L 1354.61 344.56 L 1330.49 330.78 Z " fill="rgb(124,179,66)"/><path d=" M 1236.88 341.09 L 1238.62 340.1 L 1240.6 343.57 L 1238.87 344.56 L 1214.74 358.35 L 1213.01 359.34 L 1211.02 355.87 L 1212.76 354.87 L 1236.88 341.09 Z " fill="rgb(3,155,229)"/><path d=" M 1261.01 327.3 L 1262.74 326.31 L 1264.73 329.79 L 1262.99 330.78 L 1238.87 344.56 L 1237.13 345.55 L 1235.15 342.08 L 1236.88 341.09 L 1261.01 327.3 Z " fill="rgb(124,179,66)"/><path d=" M 1294.88 384.39 L 1294.88 382.39 L 1298.88 382.4 L 1298.88 384.4 L 1298.75 412.19 L 1298.74 414.19 L 1294.74 414.17 L 1294.75 412.17 L 1294.88 384.39 Z " fill="rgb(3,155,229)"/><path d=" M 1295 356.6 L 1295.01 354.6 L 1299.01 354.62 L 1299 356.62 L 1298.88 384.4 L 1298.87 386.4 L 1294.87 386.39 L 1294.88 384.39 L 1295 356.6 Z " fill="rgb(124,179,66)"/><path d=" M 1317.313 279.587 L 1317.313 336.462 L 1309.773 336.462 L 1281.141 292.633 L 1281.141 336.462 L 1273.602 336.462 L 1273.602 279.587 L 1281.141 279.587 L 1309.852 323.61 L 1309.852 279.587 L 1317.313 279.587 L 1317.313 279.587 Z " fill="rgb(124,179,66)"/><path d=" M 1445.016 398.788 L 1445.016 395.838 L 1447.73 395.838 L 1447.73 395.838 Q 1450.289 395.799 1451.754 394.491 L 1451.754 394.491 L 1451.754 394.491 Q 1453.219 393.182 1453.219 390.956 L 1453.219 390.956 L 1453.219 390.956 Q 1453.219 385.956 1448.238 385.956 L 1448.238 385.956 L 1448.238 385.956 Q 1445.895 385.956 1444.498 387.294 L 1444.498 387.294 L 1444.498 387.294 Q 1443.102 388.631 1443.102 390.838 L 1443.102 390.838 L 1439.488 390.838 L 1439.488 390.838 Q 1439.488 387.46 1441.959 385.223 L 1441.959 385.223 L 1441.959 385.223 Q 1444.43 382.987 1448.238 382.987 L 1448.238 382.987 L 1448.238 382.987 Q 1452.262 382.987 1454.547 385.116 L 1454.547 385.116 L 1454.547 385.116 Q 1456.832 387.245 1456.832 391.034 L 1456.832 391.034 L 1456.832 391.034 Q 1456.832 392.889 1455.631 394.628 L 1455.631 394.628 L 1455.631 394.628 Q 1454.43 396.366 1452.359 397.225 L 1452.359 397.225 L 1452.359 397.225 Q 1454.703 397.967 1455.982 399.686 L 1455.982 399.686 L 1455.982 399.686 Q 1457.262 401.405 1457.262 403.885 L 1457.262 403.885 L 1457.262 403.885 Q 1457.262 407.713 1454.762 409.96 L 1454.762 409.96 L 1454.762 409.96 Q 1452.262 412.206 1448.258 412.206 L 1448.258 412.206 L 1448.258 412.206 Q 1444.254 412.206 1441.744 410.038 L 1441.744 410.038 L 1441.744 410.038 Q 1439.234 407.87 1439.234 404.315 L 1439.234 404.315 L 1442.867 404.315 L 1442.867 404.315 Q 1442.867 406.561 1444.332 407.909 L 1444.332 407.909 L 1444.332 407.909 Q 1445.797 409.256 1448.258 409.256 L 1448.258 409.256 L 1448.258 409.256 Q 1450.875 409.256 1452.262 407.889 L 1452.262 407.889 L 1452.262 407.889 Q 1453.648 406.522 1453.648 403.963 L 1453.648 403.963 L 1453.648 403.963 Q 1453.648 401.483 1452.125 400.155 L 1452.125 400.155 L 1452.125 400.155 Q 1450.602 398.827 1447.73 398.788 L 1447.73 398.788 L 1445.016 398.788 L 1445.016 398.788 Z  M 1427.945 405.712 L 1415.602 382.704 L 1402.242 382.704 L 1402.242 405.712 L 1394.703 405.712 L 1394.703 348.837 L 1413.531 348.837 L 1413.531 348.837 Q 1423.141 348.837 1428.316 353.212 L 1428.316 353.212 L 1428.316 353.212 Q 1433.492 357.587 1433.492 365.946 L 1433.492 365.946 L 1433.492 365.946 Q 1433.492 371.258 1430.621 375.204 L 1430.621 375.204 L 1430.621 375.204 Q 1427.75 379.149 1422.633 381.102 L 1422.633 381.102 L 1435.992 405.243 L 1435.992 405.712 L 1427.945 405.712 L 1427.945 405.712 Z  M 1402.242 355.008 L 1402.242 376.571 L 1413.766 376.571 L 1413.766 376.571 Q 1419.352 376.571 1422.652 373.68 L 1422.652 373.68 L 1422.652 373.68 Q 1425.953 370.79 1425.953 365.946 L 1425.953 365.946 L 1425.953 365.946 Q 1425.953 360.672 1422.809 357.86 L 1422.809 357.86 L 1422.809 357.86 Q 1419.664 355.047 1413.727 355.008 L 1413.727 355.008 L 1402.242 355.008 L 1402.242 355.008 Z " fill="rgb(3,155,229)"/><path d=" M 1341.395 487.616 L 1341.395 490.565 L 1322.762 490.565 L 1322.762 487.967 L 1332.605 477.03 L 1332.605 477.03 Q 1334.793 474.549 1335.623 472.997 L 1335.623 472.997 L 1335.623 472.997 Q 1336.453 471.444 1336.453 469.784 L 1336.453 469.784 L 1336.453 469.784 Q 1336.453 467.557 1335.105 466.131 L 1335.105 466.131 L 1335.105 466.131 Q 1333.758 464.706 1331.512 464.706 L 1331.512 464.706 L 1331.512 464.706 Q 1328.816 464.706 1327.322 466.239 L 1327.322 466.239 L 1327.322 466.239 Q 1325.828 467.772 1325.828 470.506 L 1325.828 470.506 L 1322.215 470.506 L 1322.215 470.506 Q 1322.215 466.581 1324.744 464.159 L 1324.744 464.159 L 1324.744 464.159 Q 1327.273 461.737 1331.512 461.737 L 1331.512 461.737 L 1331.512 461.737 Q 1335.477 461.737 1337.781 463.817 L 1337.781 463.817 L 1337.781 463.817 Q 1340.086 465.897 1340.086 469.354 L 1340.086 469.354 L 1340.086 469.354 Q 1340.086 473.553 1334.734 479.354 L 1334.734 479.354 L 1327.117 487.616 L 1341.395 487.616 L 1341.395 487.616 Z  M 1310.945 484.462 L 1298.602 461.454 L 1285.242 461.454 L 1285.242 484.462 L 1277.703 484.462 L 1277.703 427.587 L 1296.531 427.587 L 1296.531 427.587 Q 1306.141 427.587 1311.316 431.962 L 1311.316 431.962 L 1311.316 431.962 Q 1316.492 436.337 1316.492 444.696 L 1316.492 444.696 L 1316.492 444.696 Q 1316.492 450.008 1313.621 453.954 L 1313.621 453.954 L 1313.621 453.954 Q 1310.75 457.899 1305.633 459.852 L 1305.633 459.852 L 1318.992 483.993 L 1318.992 484.462 L 1310.945 484.462 L 1310.945 484.462 Z  M 1285.242 433.758 L 1285.242 455.321 L 1296.766 455.321 L 1296.766 455.321 Q 1302.352 455.321 1305.652 452.43 L 1305.652 452.43 L 1305.652 452.43 Q 1308.953 449.54 1308.953 444.696 L 1308.953 444.696 L 1308.953 444.696 Q 1308.953 439.422 1305.809 436.61 L 1305.809 436.61 L 1305.809 436.61 Q 1302.664 433.797 1296.727 433.758 L 1296.727 433.758 L 1285.242 433.758 L 1285.242 433.758 Z " fill="rgb(3,155,229)"/><path d=" M 1215.637 383.241 L 1215.637 411.815 L 1212.004 411.815 L 1212.004 387.733 L 1204.719 390.409 L 1204.719 387.128 L 1215.07 383.241 L 1215.637 383.241 L 1215.637 383.241 Z  M 1191.945 405.712 L 1179.602 382.704 L 1166.242 382.704 L 1166.242 405.712 L 1158.703 405.712 L 1158.703 348.837 L 1177.531 348.837 L 1177.531 348.837 Q 1187.141 348.837 1192.316 353.212 L 1192.316 353.212 L 1192.316 353.212 Q 1197.492 357.587 1197.492 365.946 L 1197.492 365.946 L 1197.492 365.946 Q 1197.492 371.258 1194.621 375.204 L 1194.621 375.204 L 1194.621 375.204 Q 1191.75 379.149 1186.633 381.102 L 1186.633 381.102 L 1199.992 405.243 L 1199.992 405.712 L 1191.945 405.712 L 1191.945 405.712 Z  M 1166.242 355.008 L 1166.242 376.571 L 1177.766 376.571 L 1177.766 376.571 Q 1183.352 376.571 1186.652 373.68 L 1186.652 373.68 L 1186.652 373.68 Q 1189.953 370.79 1189.953 365.946 L 1189.953 365.946 L 1189.953 365.946 Q 1189.953 360.672 1186.809 357.86 L 1186.809 357.86 L 1186.809 357.86 Q 1183.664 355.047 1177.727 355.008 L 1177.727 355.008 L 1166.242 355.008 L 1166.242 355.008 Z " fill="rgb(3,155,229)"/><path d=" M 1285 248.743 C 1285 241.292 1291.049 235.243 1298.5 235.243 C 1305.951 235.243 1312 241.292 1312 248.743 C 1312 256.194 1305.951 262.243 1298.5 262.243 C 1291.049 262.243 1285 256.194 1285 248.743 Z  M 1288 248.74 C 1288 245.96 1289.11 243.29 1291.08 241.32 C 1293.04 239.35 1295.72 238.24 1298.5 238.24 C 1301.28 238.24 1303.96 239.35 1305.92 241.32 C 1307.89 243.29 1309 245.96 1309 248.74 C 1309 251.53 1307.89 254.2 1305.92 256.17 C 1303.96 258.14 1301.28 259.24 1298.5 259.24 C 1295.72 259.24 1293.04 258.14 1291.08 256.17 C 1289.11 254.2 1288 251.53 1288 248.74 Z " fill-rule="evenodd" fill="rgb(124,179,66)"/><path d=" M -321.107 577.816 L -315.453 577.816 L -315.453 577.816 Q -316.244 584.584 -320.448 588.261 L -320.448 588.261 L -320.448 588.261 Q -324.652 591.938 -331.625 591.938 L -331.625 591.938 L -331.625 591.938 Q -339.184 591.938 -343.739 586.518 L -343.739 586.518 L -343.739 586.518 Q -348.295 581.098 -348.295 572.016 L -348.295 572.016 L -348.295 567.914 L -348.295 567.914 Q -348.295 561.967 -346.171 557.455 L -346.171 557.455 L -346.171 557.455 Q -344.047 552.943 -340.15 550.526 L -340.15 550.526 L -340.15 550.526 Q -336.254 548.109 -331.127 548.109 L -331.127 548.109 L -331.127 548.109 Q -324.33 548.109 -320.229 551.903 L -320.229 551.903 L -320.229 551.903 Q -316.127 555.697 -315.453 562.406 L -315.453 562.406 L -321.107 562.406 L -321.107 562.406 Q -321.84 557.309 -324.286 555.023 L -324.286 555.023 L -324.286 555.023 Q -326.732 552.738 -331.127 552.738 L -331.127 552.738 L -331.127 552.738 Q -336.518 552.738 -339.579 556.723 L -339.579 556.723 L -339.579 556.723 Q -342.641 560.707 -342.641 568.061 L -342.641 568.061 L -342.641 572.191 L -342.641 572.191 Q -342.641 579.135 -339.74 583.236 L -339.74 583.236 L -339.74 583.236 Q -336.84 587.338 -331.625 587.338 L -331.625 587.338 L -331.625 587.338 Q -326.938 587.338 -324.433 585.214 L -324.433 585.214 L -324.433 585.214 Q -321.928 583.09 -321.107 577.816 L -321.107 577.816 L -321.107 577.816 Z  M -303.207 546.352 L -303.207 563.49 L -303.207 563.49 Q -299.604 559.066 -293.832 559.066 L -293.832 559.066 L -293.832 559.066 Q -283.783 559.066 -283.695 570.404 L -283.695 570.404 L -283.695 591.352 L -289.115 591.352 L -289.115 570.375 L -289.115 570.375 Q -289.145 566.947 -290.683 565.307 L -290.683 565.307 L -290.683 565.307 Q -292.221 563.666 -295.473 563.666 L -295.473 563.666 L -295.473 563.666 Q -298.109 563.666 -300.102 565.072 L -300.102 565.072 L -300.102 565.072 Q -302.094 566.479 -303.207 568.764 L -303.207 568.764 L -303.207 591.352 L -308.627 591.352 L -308.627 546.352 L -303.207 546.352 L -303.207 546.352 Z  M -250.326 591.352 L -256.01 591.352 L -256.01 591.352 Q -256.479 590.414 -256.771 588.012 L -256.771 588.012 L -256.771 588.012 Q -260.551 591.938 -265.795 591.938 L -265.795 591.938 L -265.795 591.938 Q -270.482 591.938 -273.485 589.286 L -273.485 589.286 L -273.485 589.286 Q -276.488 586.635 -276.488 582.563 L -276.488 582.563 L -276.488 582.563 Q -276.488 577.611 -272.724 574.872 L -272.724 574.872 L -272.724 574.872 Q -268.959 572.133 -262.133 572.133 L -262.133 572.133 L -256.859 572.133 L -256.859 569.643 L -256.859 569.643 Q -256.859 566.801 -258.559 565.116 L -258.559 565.116 L -258.559 565.116 Q -260.258 563.432 -263.568 563.432 L -263.568 563.432 L -263.568 563.432 Q -266.469 563.432 -268.432 564.896 L -268.432 564.896 L -268.432 564.896 Q -270.395 566.361 -270.395 568.441 L -270.395 568.441 L -275.844 568.441 L -275.844 568.441 Q -275.844 566.068 -274.159 563.856 L -274.159 563.856 L -274.159 563.856 Q -272.475 561.645 -269.589 560.355 L -269.589 560.355 L -269.589 560.355 Q -266.703 559.066 -263.246 559.066 L -263.246 559.066 L -263.246 559.066 Q -257.768 559.066 -254.662 561.806 L -254.662 561.806 L -254.662 561.806 Q -251.557 564.545 -251.439 569.35 L -251.439 569.35 L -251.439 583.939 L -251.439 583.939 Q -251.439 588.305 -250.326 590.883 L -250.326 590.883 L -250.326 591.352 L -250.326 591.352 Z  M -265.004 587.221 L -265.004 587.221 L -265.004 587.221 Q -262.455 587.221 -260.17 585.902 L -260.17 585.902 L -260.17 585.902 Q -257.885 584.584 -256.859 582.475 L -256.859 582.475 L -256.859 575.971 L -261.107 575.971 L -261.107 575.971 Q -271.068 575.971 -271.068 581.801 L -271.068 581.801 L -271.068 581.801 Q -271.068 584.35 -269.369 585.785 L -269.369 585.785 L -269.369 585.785 Q -267.67 587.221 -265.004 587.221 Z  M -227.621 559.477 L -227.621 564.516 L -227.621 564.516 Q -228.852 564.311 -230.287 564.311 L -230.287 564.311 L -230.287 564.311 Q -235.619 564.311 -237.523 568.852 L -237.523 568.852 L -237.523 591.352 L -242.943 591.352 L -242.943 559.652 L -237.67 559.652 L -237.582 563.314 L -237.582 563.314 Q -234.916 559.066 -230.023 559.066 L -230.023 559.066 L -230.023 559.066 Q -228.441 559.066 -227.621 559.477 L -227.621 559.477 L -227.621 559.477 Z  M -224.486 575.238 L -224.486 575.238 L -224.486 575.238 Q -224.486 567.826 -221.059 563.446 L -221.059 563.446 L -221.059 563.446 Q -217.631 559.066 -211.977 559.066 L -211.977 559.066 L -211.977 559.066 Q -206.176 559.066 -202.924 563.168 L -202.924 563.168 L -202.66 559.652 L -197.709 559.652 L -197.709 590.59 L -197.709 590.59 Q -197.709 596.742 -201.356 600.287 L -201.356 600.287 L -201.356 600.287 Q -205.004 603.832 -211.156 603.832 L -211.156 603.832 L -211.156 603.832 Q -214.584 603.832 -217.865 602.367 L -217.865 602.367 L -217.865 602.367 Q -221.146 600.902 -222.875 598.354 L -222.875 598.354 L -220.063 595.102 L -220.063 595.102 Q -216.576 599.408 -211.537 599.408 L -211.537 599.408 L -211.537 599.408 Q -207.582 599.408 -205.37 597.182 L -205.37 597.182 L -205.37 597.182 Q -203.158 594.955 -203.158 590.912 L -203.158 590.912 L -203.158 588.188 L -203.158 588.188 Q -206.41 591.938 -212.035 591.938 L -212.035 591.938 L -212.035 591.938 Q -217.602 591.938 -221.044 587.455 L -221.044 587.455 L -221.044 587.455 Q -224.486 582.973 -224.486 575.238 Z  M -219.037 575.854 L -219.037 575.854 L -219.037 575.854 Q -219.037 581.215 -216.84 584.276 L -216.84 584.276 L -216.84 584.276 Q -214.643 587.338 -210.688 587.338 L -210.688 587.338 L -210.688 587.338 Q -205.561 587.338 -203.158 582.68 L -203.158 582.68 L -203.158 568.207 L -203.158 568.207 Q -205.648 563.666 -210.629 563.666 L -210.629 563.666 L -210.629 563.666 Q -214.584 563.666 -216.811 566.742 L -216.811 566.742 L -216.811 566.742 Q -219.037 569.818 -219.037 575.854 Z  M -176.381 591.938 L -176.381 591.938 L -176.381 591.938 Q -182.826 591.938 -186.869 587.704 L -186.869 587.704 L -186.869 587.704 Q -190.912 583.471 -190.912 576.381 L -190.912 576.381 L -190.912 575.385 L -190.912 575.385 Q -190.912 570.668 -189.11 566.962 L -189.11 566.962 L -189.11 566.962 Q -187.309 563.256 -184.071 561.161 L -184.071 561.161 L -184.071 561.161 Q -180.834 559.066 -177.055 559.066 L -177.055 559.066 L -177.055 559.066 Q -170.873 559.066 -167.445 563.139 L -167.445 563.139 L -167.445 563.139 Q -164.018 567.211 -164.018 574.799 L -164.018 574.799 L -164.018 577.055 L -185.492 577.055 L -185.492 577.055 Q -185.375 581.742 -182.753 584.628 L -182.753 584.628 L -182.753 584.628 Q -180.131 587.514 -176.088 587.514 L -176.088 587.514 L -176.088 587.514 Q -173.217 587.514 -171.225 586.342 L -171.225 586.342 L -171.225 586.342 Q -169.232 585.17 -167.738 583.236 L -167.738 583.236 L -164.428 585.814 L -164.428 585.814 Q -168.412 591.938 -176.381 591.938 Z  M -177.055 563.52 L -177.055 563.52 L -177.055 563.52 Q -180.336 563.52 -182.563 565.907 L -182.563 565.907 L -182.563 565.907 Q -184.789 568.295 -185.316 572.602 L -185.316 572.602 L -169.438 572.602 L -169.438 572.191 L -169.438 572.191 Q -169.672 568.061 -171.664 565.79 L -171.664 565.79 L -171.664 565.79 Q -173.656 563.52 -177.055 563.52 Z  M -485.404 591.352 L -500.199 591.352 L -500.199 548.695 L -486.254 548.695 L -486.254 548.695 Q -479.311 548.695 -475.81 551.566 L -475.81 551.566 L -475.81 551.566 Q -472.309 554.438 -472.309 560.063 L -472.309 560.063 L -472.309 560.063 Q -472.309 563.051 -474.008 565.351 L -474.008 565.351 L -474.008 565.351 Q -475.707 567.65 -478.637 568.91 L -478.637 568.91 L -478.637 568.91 Q -475.18 569.877 -473.173 572.587 L -473.173 572.587 L -473.173 572.587 Q -471.166 575.297 -471.166 579.047 L -471.166 579.047 L -471.166 579.047 Q -471.166 584.789 -474.887 588.07 L -474.887 588.07 L -474.887 588.07 Q -478.607 591.352 -485.404 591.352 L -485.404 591.352 L -485.404 591.352 Z  M -485.199 571.4 L -494.574 571.4 L -494.574 586.752 L -485.287 586.752 L -485.287 586.752 Q -481.361 586.752 -479.091 584.716 L -479.091 584.716 L -479.091 584.716 Q -476.82 582.68 -476.82 579.105 L -476.82 579.105 L -476.82 579.105 Q -476.82 571.4 -485.199 571.4 L -485.199 571.4 L -485.199 571.4 Z  M -494.574 553.324 L -494.574 566.889 L -486.078 566.889 L -486.078 566.889 Q -482.387 566.889 -480.175 565.043 L -480.175 565.043 L -480.175 565.043 Q -477.963 563.197 -477.963 560.033 L -477.963 560.033 L -477.963 560.033 Q -477.963 556.518 -480.014 554.921 L -480.014 554.921 L -480.014 554.921 Q -482.064 553.324 -486.254 553.324 L -486.254 553.324 L -494.574 553.324 L -494.574 553.324 Z  M -465.131 575.59 L -465.131 575.209 L -465.131 575.209 Q -465.131 570.551 -463.3 566.83 L -463.3 566.83 L -463.3 566.83 Q -461.469 563.109 -458.202 561.088 L -458.202 561.088 L -458.202 561.088 Q -454.936 559.066 -450.746 559.066 L -450.746 559.066 L -450.746 559.066 Q -444.271 559.066 -440.272 563.549 L -440.272 563.549 L -440.272 563.549 Q -436.273 568.031 -436.273 575.473 L -436.273 575.473 L -436.273 575.854 L -436.273 575.854 Q -436.273 580.482 -438.046 584.159 L -438.046 584.159 L -438.046 584.159 Q -439.818 587.836 -443.114 589.887 L -443.114 589.887 L -443.114 589.887 Q -446.41 591.938 -450.688 591.938 L -450.688 591.938 L -450.688 591.938 Q -457.133 591.938 -461.132 587.455 L -461.132 587.455 L -461.132 587.455 Q -465.131 582.973 -465.131 575.59 L -465.131 575.59 L -465.131 575.59 Z  M -459.682 575.854 L -459.682 575.854 L -459.682 575.854 Q -459.682 581.127 -457.235 584.32 L -457.235 584.32 L -457.235 584.32 Q -454.789 587.514 -450.688 587.514 L -450.688 587.514 L -450.688 587.514 Q -446.557 587.514 -444.125 584.276 L -444.125 584.276 L -444.125 584.276 Q -441.693 581.039 -441.693 575.209 L -441.693 575.209 L -441.693 575.209 Q -441.693 569.994 -444.169 566.757 L -444.169 566.757 L -444.169 566.757 Q -446.645 563.52 -450.746 563.52 L -450.746 563.52 L -450.746 563.52 Q -454.76 563.52 -457.221 566.713 L -457.221 566.713 L -457.221 566.713 Q -459.682 569.906 -459.682 575.854 Z  M -429.477 559.652 L -424.35 559.652 L -424.174 563.637 L -424.174 563.637 Q -420.541 559.066 -414.682 559.066 L -414.682 559.066 L -414.682 559.066 Q -404.633 559.066 -404.545 570.404 L -404.545 570.404 L -404.545 591.352 L -409.965 591.352 L -409.965 570.375 L -409.965 570.375 Q -409.994 566.947 -411.532 565.307 L -411.532 565.307 L -411.532 565.307 Q -413.07 563.666 -416.322 563.666 L -416.322 563.666 L -416.322 563.666 Q -418.959 563.666 -420.951 565.072 L -420.951 565.072 L -420.951 565.072 Q -422.943 566.479 -424.057 568.764 L -424.057 568.764 L -424.057 591.352 L -429.477 591.352 L -429.477 559.652 L -429.477 559.652 Z  M -397.689 575.648 L -397.689 575.238 L -397.689 575.238 Q -397.689 567.943 -394.232 563.505 L -394.232 563.505 L -394.232 563.505 Q -390.775 559.066 -385.18 559.066 L -385.18 559.066 L -385.18 559.066 Q -379.613 559.066 -376.361 562.875 L -376.361 562.875 L -376.361 546.352 L -370.941 546.352 L -370.941 591.352 L -375.922 591.352 L -376.186 587.953 L -376.186 587.953 Q -379.438 591.938 -385.238 591.938 L -385.238 591.938 L -385.238 591.938 Q -390.746 591.938 -394.218 587.426 L -394.218 587.426 L -394.218 587.426 Q -397.689 582.914 -397.689 575.648 L -397.689 575.648 L -397.689 575.648 Z  M -392.27 575.854 L -392.27 575.854 L -392.27 575.854 Q -392.27 581.244 -390.043 584.291 L -390.043 584.291 L -390.043 584.291 Q -387.816 587.338 -383.891 587.338 L -383.891 587.338 L -383.891 587.338 Q -378.734 587.338 -376.361 582.709 L -376.361 582.709 L -376.361 568.148 L -376.361 568.148 Q -378.793 563.666 -383.832 563.666 L -383.832 563.666 L -383.832 563.666 Q -387.816 563.666 -390.043 566.742 L -390.043 566.742 L -390.043 566.742 Q -392.27 569.818 -392.27 575.854 Z " fill="rgb(70,70,70)"/><path d=" M -327.5 246.44 L -327.5 248.44 L -331.5 248.44 L -331.5 246.44 L -331.5 218.44 L -331.5 216.44 L -327.5 216.44 L -327.5 218.44 L -327.5 246.44 Z " fill="rgb(124,179,66)"/><path d=" M -327.5 274.44 L -327.5 276.44 L -331.5 276.44 L -331.5 274.44 L -331.5 246.44 L -331.5 244.44 L -327.5 244.44 L -327.5 246.44 L -327.5 274.44 Z " fill="rgb(3,155,229)"/><path d=" M -319.102 325.617 L -311.563 325.617 L -311.563 325.617 Q -312.617 334.64 -318.223 339.542 L -318.223 339.542 L -318.223 339.542 Q -323.828 344.445 -333.125 344.445 L -333.125 344.445 L -333.125 344.445 Q -343.203 344.445 -349.277 337.218 L -349.277 337.218 L -349.277 337.218 Q -355.352 329.992 -355.352 317.882 L -355.352 317.882 L -355.352 312.413 L -355.352 312.413 Q -355.352 304.484 -352.52 298.468 L -352.52 298.468 L -352.52 298.468 Q -349.688 292.453 -344.492 289.23 L -344.492 289.23 L -344.492 289.23 Q -339.297 286.007 -332.461 286.007 L -332.461 286.007 L -332.461 286.007 Q -323.398 286.007 -317.93 291.066 L -317.93 291.066 L -317.93 291.066 Q -312.461 296.124 -311.563 305.07 L -311.563 305.07 L -319.102 305.07 L -319.102 305.07 Q -320.078 298.273 -323.34 295.226 L -323.34 295.226 L -323.34 295.226 Q -326.602 292.179 -332.461 292.179 L -332.461 292.179 L -332.461 292.179 Q -339.648 292.179 -343.73 297.492 L -343.73 297.492 L -343.73 297.492 Q -347.813 302.804 -347.813 312.609 L -347.813 312.609 L -347.813 318.117 L -347.813 318.117 Q -347.813 327.374 -343.945 332.843 L -343.945 332.843 L -343.945 332.843 Q -340.078 338.312 -333.125 338.312 L -333.125 338.312 L -333.125 338.312 Q -326.875 338.312 -323.535 335.48 L -323.535 335.48 L -323.535 335.48 Q -320.195 332.648 -319.102 325.617 L -319.102 325.617 L -319.102 325.617 Z " fill="rgb(3,155,229)"/><path d=" M -328.602 191.617 L -321.063 191.617 L -321.063 191.617 Q -322.117 200.64 -327.723 205.542 L -327.723 205.542 L -327.723 205.542 Q -333.328 210.445 -342.625 210.445 L -342.625 210.445 L -342.625 210.445 Q -352.703 210.445 -358.777 203.218 L -358.777 203.218 L -358.777 203.218 Q -364.852 195.992 -364.852 183.882 L -364.852 183.882 L -364.852 178.413 L -364.852 178.413 Q -364.852 170.484 -362.02 164.468 L -362.02 164.468 L -362.02 164.468 Q -359.188 158.453 -353.992 155.23 L -353.992 155.23 L -353.992 155.23 Q -348.797 152.007 -341.961 152.007 L -341.961 152.007 L -341.961 152.007 Q -332.898 152.007 -327.43 157.066 L -327.43 157.066 L -327.43 157.066 Q -321.961 162.124 -321.063 171.07 L -321.063 171.07 L -328.602 171.07 L -328.602 171.07 Q -329.578 164.273 -332.84 161.226 L -332.84 161.226 L -332.84 161.226 Q -336.102 158.179 -341.961 158.179 L -341.961 158.179 L -341.961 158.179 Q -349.148 158.179 -353.23 163.492 L -353.23 163.492 L -353.23 163.492 Q -357.313 168.804 -357.313 178.609 L -357.313 178.609 L -357.313 184.117 L -357.313 184.117 Q -357.313 193.374 -353.445 198.843 L -353.445 198.843 L -353.445 198.843 Q -349.578 204.312 -342.625 204.312 L -342.625 204.312 L -342.625 204.312 Q -336.375 204.312 -333.035 201.48 L -333.035 201.48 L -333.035 201.48 Q -329.695 198.648 -328.602 191.617 L -328.602 191.617 L -328.602 191.617 Z  M -304.109 149.663 L -304.109 209.663 L -311.336 209.663 L -311.336 149.663 L -304.109 149.663 L -304.109 149.663 Z " fill="rgb(124,179,66)"/><path d=" M -343 117.257 C -343 109.806 -336.951 103.757 -329.5 103.757 C -322.049 103.757 -316 109.806 -316 117.257 C -316 124.708 -322.049 130.757 -329.5 130.757 C -336.951 130.757 -343 124.708 -343 117.257 Z  M -340 117.26 C -340 114.47 -338.89 111.8 -336.92 109.83 C -334.96 107.86 -332.28 106.76 -329.5 106.76 C -326.72 106.76 -324.04 107.86 -322.08 109.83 C -320.11 111.8 -319 114.47 -319 117.26 C -319 120.04 -320.11 122.71 -322.08 124.68 C -324.04 126.65 -326.72 127.76 -329.5 127.76 C -332.28 127.76 -334.96 126.65 -336.92 124.68 C -338.89 122.71 -340 120.04 -340 117.26 Z " fill-rule="evenodd" fill="rgb(124,179,66)"/><path d=" M -271.9 341.09 L -270.17 342.08 L -272.15 345.55 L -273.89 344.56 L -298.01 330.78 L -299.75 329.79 L -297.76 326.31 L -296.03 327.3 L -271.9 341.09 Z " fill="rgb(70,70,70)"/><path d=" M -247.78 354.87 L -246.04 355.87 L -248.03 359.34 L -249.76 358.35 L -273.89 344.56 L -275.62 343.57 L -273.64 340.1 L -271.9 341.09 L -247.78 354.87 Z " fill="rgb(185,185,185)"/><path d=" M -389.63 344.56 L -391.37 345.55 L -393.35 342.08 L -391.62 341.09 L -367.49 327.3 L -365.76 326.31 L -363.77 329.79 L -365.51 330.78 L -389.63 344.56 Z " fill="rgb(70,70,70)"/><path d=" M -413.76 358.35 L -415.49 359.34 L -417.48 355.87 L -415.74 354.87 L -391.62 341.09 L -389.88 340.1 L -387.9 343.57 L -389.63 344.56 L -413.76 358.35 Z " fill="rgb(185,185,185)"/><path d=" M -329.62 384.39 L -329.62 386.39 L -333.62 386.4 L -333.62 384.4 L -333.75 356.62 L -333.76 354.62 L -329.76 354.6 L -329.75 356.6 L -329.62 384.39 Z " fill="rgb(70,70,70)"/><path d=" M -329.5 412.17 L -329.49 414.17 L -333.49 414.19 L -333.5 412.19 L -333.62 384.4 L -333.63 382.4 L -329.63 382.39 L -329.62 384.39 L -329.5 412.17 Z " fill="rgb(185,185,185)"/><path d=" M -183.484 398.788 L -183.484 395.838 L -180.77 395.838 L -180.77 395.838 Q -178.211 395.799 -176.746 394.491 L -176.746 394.491 L -176.746 394.491 Q -175.281 393.182 -175.281 390.956 L -175.281 390.956 L -175.281 390.956 Q -175.281 385.956 -180.262 385.956 L -180.262 385.956 L -180.262 385.956 Q -182.605 385.956 -184.002 387.294 L -184.002 387.294 L -184.002 387.294 Q -185.398 388.631 -185.398 390.838 L -185.398 390.838 L -189.012 390.838 L -189.012 390.838 Q -189.012 387.46 -186.541 385.223 L -186.541 385.223 L -186.541 385.223 Q -184.07 382.987 -180.262 382.987 L -180.262 382.987 L -180.262 382.987 Q -176.238 382.987 -173.953 385.116 L -173.953 385.116 L -173.953 385.116 Q -171.668 387.245 -171.668 391.034 L -171.668 391.034 L -171.668 391.034 Q -171.668 392.889 -172.869 394.628 L -172.869 394.628 L -172.869 394.628 Q -174.07 396.366 -176.141 397.225 L -176.141 397.225 L -176.141 397.225 Q -173.797 397.967 -172.518 399.686 L -172.518 399.686 L -172.518 399.686 Q -171.238 401.405 -171.238 403.885 L -171.238 403.885 L -171.238 403.885 Q -171.238 407.713 -173.738 409.96 L -173.738 409.96 L -173.738 409.96 Q -176.238 412.206 -180.242 412.206 L -180.242 412.206 L -180.242 412.206 Q -184.246 412.206 -186.756 410.038 L -186.756 410.038 L -186.756 410.038 Q -189.266 407.87 -189.266 404.315 L -189.266 404.315 L -185.633 404.315 L -185.633 404.315 Q -185.633 406.561 -184.168 407.909 L -184.168 407.909 L -184.168 407.909 Q -182.703 409.256 -180.242 409.256 L -180.242 409.256 L -180.242 409.256 Q -177.625 409.256 -176.238 407.889 L -176.238 407.889 L -176.238 407.889 Q -174.852 406.522 -174.852 403.963 L -174.852 403.963 L -174.852 403.963 Q -174.852 401.483 -176.375 400.155 L -176.375 400.155 L -176.375 400.155 Q -177.898 398.827 -180.77 398.788 L -180.77 398.788 L -183.484 398.788 L -183.484 398.788 Z  M -200.555 405.712 L -212.898 382.704 L -226.258 382.704 L -226.258 405.712 L -233.797 405.712 L -233.797 348.837 L -214.969 348.837 L -214.969 348.837 Q -205.359 348.837 -200.184 353.212 L -200.184 353.212 L -200.184 353.212 Q -195.008 357.587 -195.008 365.946 L -195.008 365.946 L -195.008 365.946 Q -195.008 371.258 -197.879 375.204 L -197.879 375.204 L -197.879 375.204 Q -200.75 379.149 -205.867 381.102 L -205.867 381.102 L -192.508 405.243 L -192.508 405.712 L -200.555 405.712 L -200.555 405.712 Z  M -226.258 355.008 L -226.258 376.571 L -214.734 376.571 L -214.734 376.571 Q -209.148 376.571 -205.848 373.68 L -205.848 373.68 L -205.848 373.68 Q -202.547 370.79 -202.547 365.946 L -202.547 365.946 L -202.547 365.946 Q -202.547 360.672 -205.691 357.86 L -205.691 357.86 L -205.691 357.86 Q -208.836 355.047 -214.773 355.008 L -214.773 355.008 L -226.258 355.008 L -226.258 355.008 Z " fill="rgb(185,185,185)"/><path d=" M -287.105 487.616 L -287.105 490.565 L -305.738 490.565 L -305.738 487.967 L -295.895 477.03 L -295.895 477.03 Q -293.707 474.549 -292.877 472.997 L -292.877 472.997 L -292.877 472.997 Q -292.047 471.444 -292.047 469.784 L -292.047 469.784 L -292.047 469.784 Q -292.047 467.557 -293.395 466.131 L -293.395 466.131 L -293.395 466.131 Q -294.742 464.706 -296.988 464.706 L -296.988 464.706 L -296.988 464.706 Q -299.684 464.706 -301.178 466.239 L -301.178 466.239 L -301.178 466.239 Q -302.672 467.772 -302.672 470.506 L -302.672 470.506 L -306.285 470.506 L -306.285 470.506 Q -306.285 466.581 -303.756 464.159 L -303.756 464.159 L -303.756 464.159 Q -301.227 461.737 -296.988 461.737 L -296.988 461.737 L -296.988 461.737 Q -293.023 461.737 -290.719 463.817 L -290.719 463.817 L -290.719 463.817 Q -288.414 465.897 -288.414 469.354 L -288.414 469.354 L -288.414 469.354 Q -288.414 473.553 -293.766 479.354 L -293.766 479.354 L -301.383 487.616 L -287.105 487.616 L -287.105 487.616 Z  M -317.555 484.462 L -329.898 461.454 L -343.258 461.454 L -343.258 484.462 L -350.797 484.462 L -350.797 427.587 L -331.969 427.587 L -331.969 427.587 Q -322.359 427.587 -317.184 431.962 L -317.184 431.962 L -317.184 431.962 Q -312.008 436.337 -312.008 444.696 L -312.008 444.696 L -312.008 444.696 Q -312.008 450.008 -314.879 453.954 L -314.879 453.954 L -314.879 453.954 Q -317.75 457.899 -322.867 459.852 L -322.867 459.852 L -309.508 483.993 L -309.508 484.462 L -317.555 484.462 L -317.555 484.462 Z  M -343.258 433.758 L -343.258 455.321 L -331.734 455.321 L -331.734 455.321 Q -326.148 455.321 -322.848 452.43 L -322.848 452.43 L -322.848 452.43 Q -319.547 449.54 -319.547 444.696 L -319.547 444.696 L -319.547 444.696 Q -319.547 439.422 -322.691 436.61 L -322.691 436.61 L -322.691 436.61 Q -325.836 433.797 -331.773 433.758 L -331.773 433.758 L -343.258 433.758 L -343.258 433.758 Z " fill="rgb(185,185,185)"/><path d=" M -412.863 383.241 L -412.863 411.815 L -416.496 411.815 L -416.496 387.733 L -423.781 390.409 L -423.781 387.128 L -413.43 383.241 L -412.863 383.241 L -412.863 383.241 Z  M -436.555 405.712 L -448.898 382.704 L -462.258 382.704 L -462.258 405.712 L -469.797 405.712 L -469.797 348.837 L -450.969 348.837 L -450.969 348.837 Q -441.359 348.837 -436.184 353.212 L -436.184 353.212 L -436.184 353.212 Q -431.008 357.587 -431.008 365.946 L -431.008 365.946 L -431.008 365.946 Q -431.008 371.258 -433.879 375.204 L -433.879 375.204 L -433.879 375.204 Q -436.75 379.149 -441.867 381.102 L -441.867 381.102 L -428.508 405.243 L -428.508 405.712 L -436.555 405.712 L -436.555 405.712 Z  M -462.258 355.008 L -462.258 376.571 L -450.734 376.571 L -450.734 376.571 Q -445.148 376.571 -441.848 373.68 L -441.848 373.68 L -441.848 373.68 Q -438.547 370.79 -438.547 365.946 L -438.547 365.946 L -438.547 365.946 Q -438.547 360.672 -441.691 357.86 L -441.691 357.86 L -441.691 357.86 Q -444.836 355.047 -450.773 355.008 L -450.773 355.008 L -462.258 355.008 L -462.258 355.008 Z " fill="rgb(185,185,185)"/></g></svg>
