<?xml version="1.0" encoding="UTF-8" standalone="no"?><!-- Generator: Gravit.io --><svg xmlns="http://www.w3.org/2000/svg" xmlns:xlink="http://www.w3.org/1999/xlink" style="isolation:isolate" viewBox="-564 82.83 2094 593.483" width="2094pt" height="593.483pt"><defs><clipPath id="_clipPath_MFNQorpuGKeBkelBgEkDvaIEbpcDSSqF"><rect x="-564" y="82.83" width="2094" height="593.483"/></clipPath></defs><g clip-path="url(#_clipPath_MFNQorpuGKeBkelBgEkDvaIEbpcDSSqF)"><path d=" M 178.277 644.965 L 168.228 644.965 L 168.228 661.664 L 162.603 661.664 L 162.603 619.008 L 178.336 619.008 L 178.336 619.008 Q 185.338 619.008 189.307 622.582 L 189.307 622.582 L 189.307 622.582 Q 193.277 626.156 193.277 632.045 L 193.277 632.045 L 193.277 632.045 Q 193.277 638.256 189.395 641.61 L 189.395 641.61 L 189.395 641.61 Q 185.513 644.965 178.277 644.965 L 178.277 644.965 L 178.277 644.965 Z  M 168.228 623.637 L 168.228 640.365 L 178.336 640.365 L 178.336 640.365 Q 182.847 640.365 185.25 638.241 L 185.25 638.241 L 185.25 638.241 Q 187.652 636.117 187.652 632.104 L 187.652 632.104 L 187.652 632.104 Q 187.652 628.295 185.25 626.01 L 185.25 626.01 L 185.25 626.01 Q 182.847 623.725 178.658 623.637 L 178.658 623.637 L 168.228 623.637 L 168.228 623.637 Z  M 224.537 661.664 L 218.853 661.664 L 218.853 661.664 Q 218.384 660.727 218.091 658.324 L 218.091 658.324 L 218.091 658.324 Q 214.312 662.25 209.068 662.25 L 209.068 662.25 L 209.068 662.25 Q 204.381 662.25 201.378 659.599 L 201.378 659.599 L 201.378 659.599 Q 198.375 656.947 198.375 652.875 L 198.375 652.875 L 198.375 652.875 Q 198.375 647.924 202.139 645.185 L 202.139 645.185 L 202.139 645.185 Q 205.904 642.445 212.73 642.445 L 212.73 642.445 L 218.004 642.445 L 218.004 639.955 L 218.004 639.955 Q 218.004 637.113 216.304 635.429 L 216.304 635.429 L 216.304 635.429 Q 214.605 633.744 211.295 633.744 L 211.295 633.744 L 211.295 633.744 Q 208.394 633.744 206.431 635.209 L 206.431 635.209 L 206.431 635.209 Q 204.468 636.674 204.468 638.754 L 204.468 638.754 L 199.019 638.754 L 199.019 638.754 Q 199.019 636.381 200.704 634.169 L 200.704 634.169 L 200.704 634.169 Q 202.388 631.957 205.274 630.668 L 205.274 630.668 L 205.274 630.668 Q 208.16 629.379 211.617 629.379 L 211.617 629.379 L 211.617 629.379 Q 217.095 629.379 220.201 632.118 L 220.201 632.118 L 220.201 632.118 Q 223.306 634.857 223.424 639.662 L 223.424 639.662 L 223.424 654.252 L 223.424 654.252 Q 223.424 658.617 224.537 661.195 L 224.537 661.195 L 224.537 661.664 L 224.537 661.664 Z  M 209.859 657.533 L 209.859 657.533 L 209.859 657.533 Q 212.408 657.533 214.693 656.215 L 214.693 656.215 L 214.693 656.215 Q 216.978 654.896 218.004 652.787 L 218.004 652.787 L 218.004 646.283 L 213.756 646.283 L 213.756 646.283 Q 203.795 646.283 203.795 652.113 L 203.795 652.113 L 203.795 652.113 Q 203.795 654.662 205.494 656.098 L 205.494 656.098 L 205.494 656.098 Q 207.193 657.533 209.859 657.533 Z  M 237.808 629.965 L 237.808 661.664 L 232.388 661.664 L 232.388 629.965 L 237.808 629.965 L 237.808 629.965 Z  M 231.949 621.557 L 231.949 621.557 L 231.949 621.557 Q 231.949 620.238 232.755 619.33 L 232.755 619.33 L 232.755 619.33 Q 233.56 618.422 235.142 618.422 L 235.142 618.422 L 235.142 618.422 Q 236.724 618.422 237.545 619.33 L 237.545 619.33 L 237.545 619.33 Q 238.365 620.238 238.365 621.557 L 238.365 621.557 L 238.365 621.557 Q 238.365 622.875 237.545 623.754 L 237.545 623.754 L 237.545 623.754 Q 236.724 624.633 235.142 624.633 L 235.142 624.633 L 235.142 624.633 Q 233.56 624.633 232.755 623.754 L 232.755 623.754 L 232.755 623.754 Q 231.949 622.875 231.949 621.557 Z  M 261.802 629.789 L 261.802 634.828 L 261.802 634.828 Q 260.572 634.623 259.136 634.623 L 259.136 634.623 L 259.136 634.623 Q 253.804 634.623 251.9 639.164 L 251.9 639.164 L 251.9 661.664 L 246.48 661.664 L 246.48 629.965 L 251.754 629.965 L 251.841 633.627 L 251.841 633.627 Q 254.507 629.379 259.4 629.379 L 259.4 629.379 L 259.4 629.379 Q 260.982 629.379 261.802 629.789 L 261.802 629.789 L 261.802 629.789 Z  M 319.4 548.695 L 319.4 586.752 L 339.615 586.752 L 339.615 591.352 L 313.746 591.352 L 313.746 548.695 L 319.4 548.695 L 319.4 548.695 Z  M 343.746 575.59 L 343.746 575.209 L 343.746 575.209 Q 343.746 570.551 345.577 566.83 L 345.577 566.83 L 345.577 566.83 Q 347.408 563.109 350.674 561.088 L 350.674 561.088 L 350.674 561.088 Q 353.941 559.066 358.131 559.066 L 358.131 559.066 L 358.131 559.066 Q 364.605 559.066 368.604 563.549 L 368.604 563.549 L 368.604 563.549 Q 372.603 568.031 372.603 575.473 L 372.603 575.473 L 372.603 575.854 L 372.603 575.854 Q 372.603 580.482 370.831 584.159 L 370.831 584.159 L 370.831 584.159 Q 369.058 587.836 365.762 589.887 L 365.762 589.887 L 365.762 589.887 Q 362.466 591.938 358.189 591.938 L 358.189 591.938 L 358.189 591.938 Q 351.744 591.938 347.745 587.455 L 347.745 587.455 L 347.745 587.455 Q 343.746 582.973 343.746 575.59 L 343.746 575.59 L 343.746 575.59 Z  M 349.195 575.854 L 349.195 575.854 L 349.195 575.854 Q 349.195 581.127 351.641 584.32 L 351.641 584.32 L 351.641 584.32 Q 354.088 587.514 358.189 587.514 L 358.189 587.514 L 358.189 587.514 Q 362.32 587.514 364.752 584.276 L 364.752 584.276 L 364.752 584.276 Q 367.183 581.039 367.183 575.209 L 367.183 575.209 L 367.183 575.209 Q 367.183 569.994 364.708 566.757 L 364.708 566.757 L 364.708 566.757 Q 362.232 563.52 358.131 563.52 L 358.131 563.52 L 358.131 563.52 Q 354.117 563.52 351.656 566.713 L 351.656 566.713 L 351.656 566.713 Q 349.195 569.906 349.195 575.854 Z  M 379.4 559.652 L 384.527 559.652 L 384.703 563.637 L 384.703 563.637 Q 388.336 559.066 394.195 559.066 L 394.195 559.066 L 394.195 559.066 Q 404.244 559.066 404.332 570.404 L 404.332 570.404 L 404.332 591.352 L 398.912 591.352 L 398.912 570.375 L 398.912 570.375 Q 398.882 566.947 397.344 565.307 L 397.344 565.307 L 397.344 565.307 Q 395.806 563.666 392.554 563.666 L 392.554 563.666 L 392.554 563.666 Q 389.918 563.666 387.925 565.072 L 387.925 565.072 L 387.925 565.072 Q 385.933 566.479 384.82 568.764 L 384.82 568.764 L 384.82 591.352 L 379.4 591.352 L 379.4 559.652 L 379.4 559.652 Z  M 425.66 591.938 L 425.66 591.938 L 425.66 591.938 Q 419.215 591.938 415.172 587.704 L 415.172 587.704 L 415.172 587.704 Q 411.129 583.471 411.129 576.381 L 411.129 576.381 L 411.129 575.385 L 411.129 575.385 Q 411.129 570.668 412.93 566.962 L 412.93 566.962 L 412.93 566.962 Q 414.732 563.256 417.969 561.161 L 417.969 561.161 L 417.969 561.161 Q 421.207 559.066 424.986 559.066 L 424.986 559.066 L 424.986 559.066 Q 431.168 559.066 434.595 563.139 L 434.595 563.139 L 434.595 563.139 Q 438.023 567.211 438.023 574.799 L 438.023 574.799 L 438.023 577.055 L 416.549 577.055 L 416.549 577.055 Q 416.666 581.742 419.288 584.628 L 419.288 584.628 L 419.288 584.628 Q 421.91 587.514 425.953 587.514 L 425.953 587.514 L 425.953 587.514 Q 428.824 587.514 430.816 586.342 L 430.816 586.342 L 430.816 586.342 Q 432.808 585.17 434.302 583.236 L 434.302 583.236 L 437.613 585.814 L 437.613 585.814 Q 433.629 591.938 425.66 591.938 Z  M 424.986 563.52 L 424.986 563.52 L 424.986 563.52 Q 421.705 563.52 419.478 565.907 L 419.478 565.907 L 419.478 565.907 Q 417.252 568.295 416.724 572.602 L 416.724 572.602 L 432.603 572.602 L 432.603 572.191 L 432.603 572.191 Q 432.369 568.061 430.377 565.79 L 430.377 565.79 L 430.377 565.79 Q 428.384 563.52 424.986 563.52 Z  M -14.907 548.695 L -7.641 548.695 L 6.304 583.5 L 20.25 548.695 L 27.545 548.695 L 27.545 591.352 L 21.92 591.352 L 21.92 574.74 L 22.447 556.811 L 8.443 591.352 L 4.136 591.352 L -9.838 556.898 L -9.282 574.74 L -9.282 591.352 L -14.907 591.352 L -14.907 548.695 L -14.907 548.695 Z  M 35.191 575.59 L 35.191 575.209 L 35.191 575.209 Q 35.191 570.551 37.022 566.83 L 37.022 566.83 L 37.022 566.83 Q 38.853 563.109 42.12 561.088 L 42.12 561.088 L 42.12 561.088 Q 45.386 559.066 49.576 559.066 L 49.576 559.066 L 49.576 559.066 Q 56.05 559.066 60.049 563.549 L 60.049 563.549 L 60.049 563.549 Q 64.049 568.031 64.049 575.473 L 64.049 575.473 L 64.049 575.854 L 64.049 575.854 Q 64.049 580.482 62.276 584.159 L 62.276 584.159 L 62.276 584.159 Q 60.504 587.836 57.208 589.887 L 57.208 589.887 L 57.208 589.887 Q 53.912 591.938 49.634 591.938 L 49.634 591.938 L 49.634 591.938 Q 43.189 591.938 39.19 587.455 L 39.19 587.455 L 39.19 587.455 Q 35.191 582.973 35.191 575.59 L 35.191 575.59 L 35.191 575.59 Z  M 40.64 575.854 L 40.64 575.854 L 40.64 575.854 Q 40.64 581.127 43.087 584.32 L 43.087 584.32 L 43.087 584.32 Q 45.533 587.514 49.634 587.514 L 49.634 587.514 L 49.634 587.514 Q 53.765 587.514 56.197 584.276 L 56.197 584.276 L 56.197 584.276 Q 58.629 581.039 58.629 575.209 L 58.629 575.209 L 58.629 575.209 Q 58.629 569.994 56.153 566.757 L 56.153 566.757 L 56.153 566.757 Q 53.677 563.52 49.576 563.52 L 49.576 563.52 L 49.576 563.52 Q 45.562 563.52 43.101 566.713 L 43.101 566.713 L 43.101 566.713 Q 40.64 569.906 40.64 575.854 Z  M 70.845 559.652 L 75.972 559.652 L 76.148 563.637 L 76.148 563.637 Q 79.781 559.066 85.64 559.066 L 85.64 559.066 L 85.64 559.066 Q 95.689 559.066 95.777 570.404 L 95.777 570.404 L 95.777 591.352 L 90.357 591.352 L 90.357 570.375 L 90.357 570.375 Q 90.328 566.947 88.79 565.307 L 88.79 565.307 L 88.79 565.307 Q 87.252 563.666 84 563.666 L 84 563.666 L 84 563.666 Q 81.363 563.666 79.371 565.072 L 79.371 565.072 L 79.371 565.072 Q 77.379 566.479 76.265 568.764 L 76.265 568.764 L 76.265 591.352 L 70.845 591.352 L 70.845 559.652 L 70.845 559.652 Z  M 102.515 575.59 L 102.515 575.209 L 102.515 575.209 Q 102.515 570.551 104.346 566.83 L 104.346 566.83 L 104.346 566.83 Q 106.177 563.109 109.444 561.088 L 109.444 561.088 L 109.444 561.088 Q 112.711 559.066 116.9 559.066 L 116.9 559.066 L 116.9 559.066 Q 123.375 559.066 127.374 563.549 L 127.374 563.549 L 127.374 563.549 Q 131.373 568.031 131.373 575.473 L 131.373 575.473 L 131.373 575.854 L 131.373 575.854 Q 131.373 580.482 129.6 584.159 L 129.6 584.159 L 129.6 584.159 Q 127.828 587.836 124.532 589.887 L 124.532 589.887 L 124.532 589.887 Q 121.236 591.938 116.959 591.938 L 116.959 591.938 L 116.959 591.938 Q 110.513 591.938 106.514 587.455 L 106.514 587.455 L 106.514 587.455 Q 102.515 582.973 102.515 575.59 L 102.515 575.59 L 102.515 575.59 Z  M 107.965 575.854 L 107.965 575.854 L 107.965 575.854 Q 107.965 581.127 110.411 584.32 L 110.411 584.32 L 110.411 584.32 Q 112.857 587.514 116.959 587.514 L 116.959 587.514 L 116.959 587.514 Q 121.09 587.514 123.521 584.276 L 123.521 584.276 L 123.521 584.276 Q 125.953 581.039 125.953 575.209 L 125.953 575.209 L 125.953 575.209 Q 125.953 569.994 123.477 566.757 L 123.477 566.757 L 123.477 566.757 Q 121.002 563.52 116.9 563.52 L 116.9 563.52 L 116.9 563.52 Q 112.886 563.52 110.425 566.713 L 110.425 566.713 L 110.425 566.713 Q 107.965 569.906 107.965 575.854 Z  M 140.132 559.652 L 148.189 583.998 L 156.041 559.652 L 161.578 559.652 L 150.211 591.352 L 146.08 591.352 L 134.595 559.652 L 140.132 559.652 L 140.132 559.652 Z  M 191.607 591.352 L 185.924 591.352 L 185.924 591.352 Q 185.455 590.414 185.162 588.012 L 185.162 588.012 L 185.162 588.012 Q 181.382 591.938 176.138 591.938 L 176.138 591.938 L 176.138 591.938 Q 171.451 591.938 168.448 589.286 L 168.448 589.286 L 168.448 589.286 Q 165.445 586.635 165.445 582.563 L 165.445 582.563 L 165.445 582.563 Q 165.445 577.611 169.21 574.872 L 169.21 574.872 L 169.21 574.872 Q 172.974 572.133 179.8 572.133 L 179.8 572.133 L 185.074 572.133 L 185.074 569.643 L 185.074 569.643 Q 185.074 566.801 183.375 565.116 L 183.375 565.116 L 183.375 565.116 Q 181.675 563.432 178.365 563.432 L 178.365 563.432 L 178.365 563.432 Q 175.465 563.432 173.502 564.896 L 173.502 564.896 L 173.502 564.896 Q 171.539 566.361 171.539 568.441 L 171.539 568.441 L 166.09 568.441 L 166.09 568.441 Q 166.09 566.068 167.774 563.856 L 167.774 563.856 L 167.774 563.856 Q 169.459 561.645 172.344 560.355 L 172.344 560.355 L 172.344 560.355 Q 175.23 559.066 178.687 559.066 L 178.687 559.066 L 178.687 559.066 Q 184.166 559.066 187.271 561.806 L 187.271 561.806 L 187.271 561.806 Q 190.377 564.545 190.494 569.35 L 190.494 569.35 L 190.494 583.939 L 190.494 583.939 Q 190.494 588.305 191.607 590.883 L 191.607 590.883 L 191.607 591.352 L 191.607 591.352 Z  M 176.929 587.221 L 176.929 587.221 L 176.929 587.221 Q 179.478 587.221 181.763 585.902 L 181.763 585.902 L 181.763 585.902 Q 184.049 584.584 185.074 582.475 L 185.074 582.475 L 185.074 575.971 L 180.826 575.971 L 180.826 575.971 Q 170.865 575.971 170.865 581.801 L 170.865 581.801 L 170.865 581.801 Q 170.865 584.35 172.564 585.785 L 172.564 585.785 L 172.564 585.785 Q 174.263 587.221 176.929 587.221 Z  M 204.879 546.352 L 204.879 591.352 L 199.459 591.352 L 199.459 546.352 L 204.879 546.352 L 204.879 546.352 Z  M 226.705 591.938 L 226.705 591.938 L 226.705 591.938 Q 220.259 591.938 216.216 587.704 L 216.216 587.704 L 216.216 587.704 Q 212.174 583.471 212.174 576.381 L 212.174 576.381 L 212.174 575.385 L 212.174 575.385 Q 212.174 570.668 213.975 566.962 L 213.975 566.962 L 213.975 566.962 Q 215.777 563.256 219.014 561.161 L 219.014 561.161 L 219.014 561.161 Q 222.252 559.066 226.031 559.066 L 226.031 559.066 L 226.031 559.066 Q 232.213 559.066 235.64 563.139 L 235.64 563.139 L 235.64 563.139 Q 239.068 567.211 239.068 574.799 L 239.068 574.799 L 239.068 577.055 L 217.593 577.055 L 217.593 577.055 Q 217.711 581.742 220.333 584.628 L 220.333 584.628 L 220.333 584.628 Q 222.955 587.514 226.998 587.514 L 226.998 587.514 L 226.998 587.514 Q 229.869 587.514 231.861 586.342 L 231.861 586.342 L 231.861 586.342 Q 233.853 585.17 235.347 583.236 L 235.347 583.236 L 238.658 585.814 L 238.658 585.814 Q 234.674 591.938 226.705 591.938 Z  M 226.031 563.52 L 226.031 563.52 L 226.031 563.52 Q 222.75 563.52 220.523 565.907 L 220.523 565.907 L 220.523 565.907 Q 218.297 568.295 217.769 572.602 L 217.769 572.602 L 233.648 572.602 L 233.648 572.191 L 233.648 572.191 Q 233.414 568.061 231.422 565.79 L 231.422 565.79 L 231.422 565.79 Q 229.429 563.52 226.031 563.52 Z  M 245.338 559.652 L 250.465 559.652 L 250.64 563.637 L 250.64 563.637 Q 254.273 559.066 260.132 559.066 L 260.132 559.066 L 260.132 559.066 Q 270.181 559.066 270.269 570.404 L 270.269 570.404 L 270.269 591.352 L 264.849 591.352 L 264.849 570.375 L 264.849 570.375 Q 264.82 566.947 263.282 565.307 L 263.282 565.307 L 263.282 565.307 Q 261.744 563.666 258.492 563.666 L 258.492 563.666 L 258.492 563.666 Q 255.855 563.666 253.863 565.072 L 253.863 565.072 L 253.863 565.072 Q 251.871 566.479 250.757 568.764 L 250.757 568.764 L 250.757 591.352 L 245.338 591.352 L 245.338 559.652 L 245.338 559.652 Z  M 280.377 551.977 L 285.797 551.977 L 285.797 559.652 L 291.715 559.652 L 291.715 563.842 L 285.797 563.842 L 285.797 583.5 L 285.797 583.5 Q 285.797 585.404 286.588 586.356 L 286.588 586.356 L 286.588 586.356 Q 287.379 587.309 289.283 587.309 L 289.283 587.309 L 289.283 587.309 Q 290.22 587.309 291.861 586.957 L 291.861 586.957 L 291.861 591.352 L 291.861 591.352 Q 289.722 591.938 287.701 591.938 L 287.701 591.938 L 287.701 591.938 Q 284.068 591.938 282.222 589.74 L 282.222 589.74 L 282.222 589.74 Q 280.377 587.543 280.377 583.5 L 280.377 583.5 L 280.377 563.842 L 274.605 563.842 L 274.605 559.652 L 280.377 559.652 L 280.377 551.977 L 280.377 551.977 Z " fill="rgb(70,70,70)"/><path d=" M 721.944 644.965 L 711.895 644.965 L 711.895 661.664 L 706.27 661.664 L 706.27 619.008 L 722.002 619.008 L 722.002 619.008 Q 729.004 619.008 732.974 622.582 L 732.974 622.582 L 732.974 622.582 Q 736.944 626.156 736.944 632.045 L 736.944 632.045 L 736.944 632.045 Q 736.944 638.256 733.062 641.61 L 733.062 641.61 L 733.062 641.61 Q 729.18 644.965 721.944 644.965 L 721.944 644.965 L 721.944 644.965 Z  M 711.895 623.637 L 711.895 640.365 L 722.002 640.365 L 722.002 640.365 Q 726.514 640.365 728.916 638.241 L 728.916 638.241 L 728.916 638.241 Q 731.319 636.117 731.319 632.104 L 731.319 632.104 L 731.319 632.104 Q 731.319 628.295 728.916 626.01 L 728.916 626.01 L 728.916 626.01 Q 726.514 623.725 722.325 623.637 L 722.325 623.637 L 711.895 623.637 L 711.895 623.637 Z  M 768.203 661.664 L 762.52 661.664 L 762.52 661.664 Q 762.051 660.727 761.758 658.324 L 761.758 658.324 L 761.758 658.324 Q 757.979 662.25 752.735 662.25 L 752.735 662.25 L 752.735 662.25 Q 748.047 662.25 745.044 659.599 L 745.044 659.599 L 745.044 659.599 Q 742.041 656.947 742.041 652.875 L 742.041 652.875 L 742.041 652.875 Q 742.041 647.924 745.806 645.185 L 745.806 645.185 L 745.806 645.185 Q 749.571 642.445 756.397 642.445 L 756.397 642.445 L 761.67 642.445 L 761.67 639.955 L 761.67 639.955 Q 761.67 637.113 759.971 635.429 L 759.971 635.429 L 759.971 635.429 Q 758.272 633.744 754.961 633.744 L 754.961 633.744 L 754.961 633.744 Q 752.061 633.744 750.098 635.209 L 750.098 635.209 L 750.098 635.209 Q 748.135 636.674 748.135 638.754 L 748.135 638.754 L 742.686 638.754 L 742.686 638.754 Q 742.686 636.381 744.37 634.169 L 744.37 634.169 L 744.37 634.169 Q 746.055 631.957 748.941 630.668 L 748.941 630.668 L 748.941 630.668 Q 751.826 629.379 755.284 629.379 L 755.284 629.379 L 755.284 629.379 Q 760.762 629.379 763.868 632.118 L 763.868 632.118 L 763.868 632.118 Q 766.973 634.857 767.09 639.662 L 767.09 639.662 L 767.09 654.252 L 767.09 654.252 Q 767.09 658.617 768.203 661.195 L 768.203 661.195 L 768.203 661.664 L 768.203 661.664 Z  M 753.526 657.533 L 753.526 657.533 L 753.526 657.533 Q 756.075 657.533 758.36 656.215 L 758.36 656.215 L 758.36 656.215 Q 760.645 654.896 761.67 652.787 L 761.67 652.787 L 761.67 646.283 L 757.422 646.283 L 757.422 646.283 Q 747.461 646.283 747.461 652.113 L 747.461 652.113 L 747.461 652.113 Q 747.461 654.662 749.16 656.098 L 749.16 656.098 L 749.16 656.098 Q 750.86 657.533 753.526 657.533 Z  M 781.475 629.965 L 781.475 661.664 L 776.055 661.664 L 776.055 629.965 L 781.475 629.965 L 781.475 629.965 Z  M 775.616 621.557 L 775.616 621.557 L 775.616 621.557 Q 775.616 620.238 776.421 619.33 L 776.421 619.33 L 776.421 619.33 Q 777.227 618.422 778.809 618.422 L 778.809 618.422 L 778.809 618.422 Q 780.391 618.422 781.211 619.33 L 781.211 619.33 L 781.211 619.33 Q 782.032 620.238 782.032 621.557 L 782.032 621.557 L 782.032 621.557 Q 782.032 622.875 781.211 623.754 L 781.211 623.754 L 781.211 623.754 Q 780.391 624.633 778.809 624.633 L 778.809 624.633 L 778.809 624.633 Q 777.227 624.633 776.421 623.754 L 776.421 623.754 L 776.421 623.754 Q 775.616 622.875 775.616 621.557 Z  M 805.469 629.789 L 805.469 634.828 L 805.469 634.828 Q 804.239 634.623 802.803 634.623 L 802.803 634.623 L 802.803 634.623 Q 797.471 634.623 795.567 639.164 L 795.567 639.164 L 795.567 661.664 L 790.147 661.664 L 790.147 629.965 L 795.42 629.965 L 795.508 633.627 L 795.508 633.627 Q 798.174 629.379 803.067 629.379 L 803.067 629.379 L 803.067 629.379 Q 804.649 629.379 805.469 629.789 L 805.469 629.789 L 805.469 629.789 Z  M 813.277 548.695 L 813.277 586.752 L 833.492 586.752 L 833.492 591.352 L 807.622 591.352 L 807.622 548.695 L 813.277 548.695 L 813.277 548.695 Z  M 837.622 575.59 L 837.622 575.209 L 837.622 575.209 Q 837.622 570.551 839.453 566.83 L 839.453 566.83 L 839.453 566.83 Q 841.285 563.109 844.551 561.088 L 844.551 561.088 L 844.551 561.088 Q 847.818 559.066 852.007 559.066 L 852.007 559.066 L 852.007 559.066 Q 858.482 559.066 862.481 563.549 L 862.481 563.549 L 862.481 563.549 Q 866.48 568.031 866.48 575.473 L 866.48 575.473 L 866.48 575.854 L 866.48 575.854 Q 866.48 580.482 864.707 584.159 L 864.707 584.159 L 864.707 584.159 Q 862.935 587.836 859.639 589.887 L 859.639 589.887 L 859.639 589.887 Q 856.343 591.938 852.066 591.938 L 852.066 591.938 L 852.066 591.938 Q 845.62 591.938 841.621 587.455 L 841.621 587.455 L 841.621 587.455 Q 837.622 582.973 837.622 575.59 L 837.622 575.59 L 837.622 575.59 Z  M 843.072 575.854 L 843.072 575.854 L 843.072 575.854 Q 843.072 581.127 845.518 584.32 L 845.518 584.32 L 845.518 584.32 Q 847.964 587.514 852.066 587.514 L 852.066 587.514 L 852.066 587.514 Q 856.197 587.514 858.628 584.276 L 858.628 584.276 L 858.628 584.276 Q 861.06 581.039 861.06 575.209 L 861.06 575.209 L 861.06 575.209 Q 861.06 569.994 858.584 566.757 L 858.584 566.757 L 858.584 566.757 Q 856.109 563.52 852.007 563.52 L 852.007 563.52 L 852.007 563.52 Q 847.993 563.52 845.533 566.713 L 845.533 566.713 L 845.533 566.713 Q 843.072 569.906 843.072 575.854 Z  M 873.277 559.652 L 878.404 559.652 L 878.579 563.637 L 878.579 563.637 Q 882.212 559.066 888.072 559.066 L 888.072 559.066 L 888.072 559.066 Q 898.12 559.066 898.208 570.404 L 898.208 570.404 L 898.208 591.352 L 892.788 591.352 L 892.788 570.375 L 892.788 570.375 Q 892.759 566.947 891.221 565.307 L 891.221 565.307 L 891.221 565.307 Q 889.683 563.666 886.431 563.666 L 886.431 563.666 L 886.431 563.666 Q 883.794 563.666 881.802 565.072 L 881.802 565.072 L 881.802 565.072 Q 879.81 566.479 878.697 568.764 L 878.697 568.764 L 878.697 591.352 L 873.277 591.352 L 873.277 559.652 L 873.277 559.652 Z  M 919.536 591.938 L 919.536 591.938 L 919.536 591.938 Q 913.091 591.938 909.048 587.704 L 909.048 587.704 L 909.048 587.704 Q 905.005 583.471 905.005 576.381 L 905.005 576.381 L 905.005 575.385 L 905.005 575.385 Q 905.005 570.668 906.807 566.962 L 906.807 566.962 L 906.807 566.962 Q 908.609 563.256 911.846 561.161 L 911.846 561.161 L 911.846 561.161 Q 915.083 559.066 918.863 559.066 L 918.863 559.066 L 918.863 559.066 Q 925.044 559.066 928.472 563.139 L 928.472 563.139 L 928.472 563.139 Q 931.9 567.211 931.9 574.799 L 931.9 574.799 L 931.9 577.055 L 910.425 577.055 L 910.425 577.055 Q 910.542 581.742 913.164 584.628 L 913.164 584.628 L 913.164 584.628 Q 915.786 587.514 919.829 587.514 L 919.829 587.514 L 919.829 587.514 Q 922.701 587.514 924.693 586.342 L 924.693 586.342 L 924.693 586.342 Q 926.685 585.17 928.179 583.236 L 928.179 583.236 L 931.49 585.814 L 931.49 585.814 Q 927.505 591.938 919.536 591.938 Z  M 918.863 563.52 L 918.863 563.52 L 918.863 563.52 Q 915.581 563.52 913.355 565.907 L 913.355 565.907 L 913.355 565.907 Q 911.128 568.295 910.601 572.602 L 910.601 572.602 L 926.48 572.602 L 926.48 572.191 L 926.48 572.191 Q 926.245 568.061 924.253 565.79 L 924.253 565.79 L 924.253 565.79 Q 922.261 563.52 918.863 563.52 Z  M 590.357 591.352 L 578.55 591.352 L 578.55 548.695 L 590.591 548.695 L 590.591 548.695 Q 596.158 548.695 600.435 551.156 L 600.435 551.156 L 600.435 551.156 Q 604.712 553.617 607.041 558.158 L 607.041 558.158 L 607.041 558.158 Q 609.37 562.699 609.4 568.588 L 609.4 568.588 L 609.4 571.313 L 609.4 571.313 Q 609.4 577.348 607.071 581.889 L 607.071 581.889 L 607.071 581.889 Q 604.742 586.43 600.42 588.861 L 600.42 588.861 L 600.42 588.861 Q 596.099 591.293 590.357 591.352 L 590.357 591.352 L 590.357 591.352 Z  M 590.738 553.324 L 584.175 553.324 L 584.175 586.752 L 590.093 586.752 L 590.093 586.752 Q 596.597 586.752 600.215 582.709 L 600.215 582.709 L 600.215 582.709 Q 603.833 578.666 603.833 571.195 L 603.833 571.195 L 603.833 568.705 L 603.833 568.705 Q 603.833 561.439 600.42 557.411 L 600.42 557.411 L 600.42 557.411 Q 597.007 553.383 590.738 553.324 L 590.738 553.324 L 590.738 553.324 Z  M 622.935 559.652 L 622.935 591.352 L 617.515 591.352 L 617.515 559.652 L 622.935 559.652 L 622.935 559.652 Z  M 617.076 551.244 L 617.076 551.244 L 617.076 551.244 Q 617.076 549.926 617.881 549.018 L 617.881 549.018 L 617.881 549.018 Q 618.687 548.109 620.269 548.109 L 620.269 548.109 L 620.269 548.109 Q 621.851 548.109 622.671 549.018 L 622.671 549.018 L 622.671 549.018 Q 623.492 549.926 623.492 551.244 L 623.492 551.244 L 623.492 551.244 Q 623.492 552.563 622.671 553.441 L 622.671 553.441 L 622.671 553.441 Q 621.851 554.32 620.269 554.32 L 620.269 554.32 L 620.269 554.32 Q 618.687 554.32 617.881 553.441 L 617.881 553.441 L 617.881 553.441 Q 617.076 552.563 617.076 551.244 Z  M 634.009 559.652 L 642.066 583.998 L 649.917 559.652 L 655.454 559.652 L 644.087 591.352 L 639.956 591.352 L 628.472 559.652 L 634.009 559.652 L 634.009 559.652 Z  M 685.484 591.352 L 679.8 591.352 L 679.8 591.352 Q 679.331 590.414 679.038 588.012 L 679.038 588.012 L 679.038 588.012 Q 675.259 591.938 670.015 591.938 L 670.015 591.938 L 670.015 591.938 Q 665.327 591.938 662.325 589.286 L 662.325 589.286 L 662.325 589.286 Q 659.322 586.635 659.322 582.563 L 659.322 582.563 L 659.322 582.563 Q 659.322 577.611 663.086 574.872 L 663.086 574.872 L 663.086 574.872 Q 666.851 572.133 673.677 572.133 L 673.677 572.133 L 678.951 572.133 L 678.951 569.643 L 678.951 569.643 Q 678.951 566.801 677.251 565.116 L 677.251 565.116 L 677.251 565.116 Q 675.552 563.432 672.242 563.432 L 672.242 563.432 L 672.242 563.432 Q 669.341 563.432 667.378 564.896 L 667.378 564.896 L 667.378 564.896 Q 665.415 566.361 665.415 568.441 L 665.415 568.441 L 659.966 568.441 L 659.966 568.441 Q 659.966 566.068 661.651 563.856 L 661.651 563.856 L 661.651 563.856 Q 663.335 561.645 666.221 560.355 L 666.221 560.355 L 666.221 560.355 Q 669.107 559.066 672.564 559.066 L 672.564 559.066 L 672.564 559.066 Q 678.042 559.066 681.148 561.806 L 681.148 561.806 L 681.148 561.806 Q 684.253 564.545 684.37 569.35 L 684.37 569.35 L 684.37 583.939 L 684.37 583.939 Q 684.37 588.305 685.484 590.883 L 685.484 590.883 L 685.484 591.352 L 685.484 591.352 Z  M 670.806 587.221 L 670.806 587.221 L 670.806 587.221 Q 673.355 587.221 675.64 585.902 L 675.64 585.902 L 675.64 585.902 Q 677.925 584.584 678.951 582.475 L 678.951 582.475 L 678.951 575.971 L 674.702 575.971 L 674.702 575.971 Q 664.742 575.971 664.742 581.801 L 664.742 581.801 L 664.742 581.801 Q 664.742 584.35 666.441 585.785 L 666.441 585.785 L 666.441 585.785 Q 668.14 587.221 670.806 587.221 Z  M 698.755 546.352 L 698.755 591.352 L 693.335 591.352 L 693.335 546.352 L 698.755 546.352 L 698.755 546.352 Z  M 720.581 591.938 L 720.581 591.938 L 720.581 591.938 Q 714.136 591.938 710.093 587.704 L 710.093 587.704 L 710.093 587.704 Q 706.05 583.471 706.05 576.381 L 706.05 576.381 L 706.05 575.385 L 706.05 575.385 Q 706.05 570.668 707.852 566.962 L 707.852 566.962 L 707.852 566.962 Q 709.654 563.256 712.891 561.161 L 712.891 561.161 L 712.891 561.161 Q 716.128 559.066 719.908 559.066 L 719.908 559.066 L 719.908 559.066 Q 726.089 559.066 729.517 563.139 L 729.517 563.139 L 729.517 563.139 Q 732.945 567.211 732.945 574.799 L 732.945 574.799 L 732.945 577.055 L 711.47 577.055 L 711.47 577.055 Q 711.587 581.742 714.209 584.628 L 714.209 584.628 L 714.209 584.628 Q 716.831 587.514 720.874 587.514 L 720.874 587.514 L 720.874 587.514 Q 723.745 587.514 725.738 586.342 L 725.738 586.342 L 725.738 586.342 Q 727.73 585.17 729.224 583.236 L 729.224 583.236 L 732.535 585.814 L 732.535 585.814 Q 728.55 591.938 720.581 591.938 Z  M 719.908 563.52 L 719.908 563.52 L 719.908 563.52 Q 716.626 563.52 714.4 565.907 L 714.4 565.907 L 714.4 565.907 Q 712.173 568.295 711.646 572.602 L 711.646 572.602 L 727.525 572.602 L 727.525 572.191 L 727.525 572.191 Q 727.29 568.061 725.298 565.79 L 725.298 565.79 L 725.298 565.79 Q 723.306 563.52 719.908 563.52 Z  M 739.214 559.652 L 744.341 559.652 L 744.517 563.637 L 744.517 563.637 Q 748.15 559.066 754.009 559.066 L 754.009 559.066 L 754.009 559.066 Q 764.058 559.066 764.146 570.404 L 764.146 570.404 L 764.146 591.352 L 758.726 591.352 L 758.726 570.375 L 758.726 570.375 Q 758.697 566.947 757.159 565.307 L 757.159 565.307 L 757.159 565.307 Q 755.62 563.666 752.368 563.666 L 752.368 563.666 L 752.368 563.666 Q 749.732 563.666 747.74 565.072 L 747.74 565.072 L 747.74 565.072 Q 745.747 566.479 744.634 568.764 L 744.634 568.764 L 744.634 591.352 L 739.214 591.352 L 739.214 559.652 L 739.214 559.652 Z  M 774.253 551.977 L 779.673 551.977 L 779.673 559.652 L 785.591 559.652 L 785.591 563.842 L 779.673 563.842 L 779.673 583.5 L 779.673 583.5 Q 779.673 585.404 780.464 586.356 L 780.464 586.356 L 780.464 586.356 Q 781.255 587.309 783.16 587.309 L 783.16 587.309 L 783.16 587.309 Q 784.097 587.309 785.738 586.957 L 785.738 586.957 L 785.738 591.352 L 785.738 591.352 Q 783.599 591.938 781.577 591.938 L 781.577 591.938 L 781.577 591.938 Q 777.945 591.938 776.099 589.74 L 776.099 589.74 L 776.099 589.74 Q 774.253 587.543 774.253 583.5 L 774.253 583.5 L 774.253 563.842 L 768.482 563.842 L 768.482 559.652 L 774.253 559.652 L 774.253 551.977 L 774.253 551.977 Z " fill="rgb(70,70,70)"/><path d=" M 1265.61 644.965 L 1255.562 644.965 L 1255.562 661.664 L 1249.937 661.664 L 1249.937 619.008 L 1265.669 619.008 L 1265.669 619.008 Q 1272.671 619.008 1276.641 622.582 L 1276.641 622.582 L 1276.641 622.582 Q 1280.61 626.156 1280.61 632.045 L 1280.61 632.045 L 1280.61 632.045 Q 1280.61 638.256 1276.729 641.61 L 1276.729 641.61 L 1276.729 641.61 Q 1272.847 644.965 1265.61 644.965 L 1265.61 644.965 L 1265.61 644.965 Z  M 1255.562 623.637 L 1255.562 640.365 L 1265.669 640.365 L 1265.669 640.365 Q 1270.181 640.365 1272.583 638.241 L 1272.583 638.241 L 1272.583 638.241 Q 1274.985 636.117 1274.985 632.104 L 1274.985 632.104 L 1274.985 632.104 Q 1274.985 628.295 1272.583 626.01 L 1272.583 626.01 L 1272.583 626.01 Q 1270.181 623.725 1265.991 623.637 L 1265.991 623.637 L 1255.562 623.637 L 1255.562 623.637 Z  M 1311.87 661.664 L 1306.187 661.664 L 1306.187 661.664 Q 1305.718 660.727 1305.425 658.324 L 1305.425 658.324 L 1305.425 658.324 Q 1301.646 662.25 1296.401 662.25 L 1296.401 662.25 L 1296.401 662.25 Q 1291.714 662.25 1288.711 659.599 L 1288.711 659.599 L 1288.711 659.599 Q 1285.708 656.947 1285.708 652.875 L 1285.708 652.875 L 1285.708 652.875 Q 1285.708 647.924 1289.473 645.185 L 1289.473 645.185 L 1289.473 645.185 Q 1293.237 642.445 1300.063 642.445 L 1300.063 642.445 L 1305.337 642.445 L 1305.337 639.955 L 1305.337 639.955 Q 1305.337 637.113 1303.638 635.429 L 1303.638 635.429 L 1303.638 635.429 Q 1301.938 633.744 1298.628 633.744 L 1298.628 633.744 L 1298.628 633.744 Q 1295.728 633.744 1293.765 635.209 L 1293.765 635.209 L 1293.765 635.209 Q 1291.802 636.674 1291.802 638.754 L 1291.802 638.754 L 1286.353 638.754 L 1286.353 638.754 Q 1286.353 636.381 1288.037 634.169 L 1288.037 634.169 L 1288.037 634.169 Q 1289.722 631.957 1292.607 630.668 L 1292.607 630.668 L 1292.607 630.668 Q 1295.493 629.379 1298.95 629.379 L 1298.95 629.379 L 1298.95 629.379 Q 1304.429 629.379 1307.534 632.118 L 1307.534 632.118 L 1307.534 632.118 Q 1310.64 634.857 1310.757 639.662 L 1310.757 639.662 L 1310.757 654.252 L 1310.757 654.252 Q 1310.757 658.617 1311.87 661.195 L 1311.87 661.195 L 1311.87 661.664 L 1311.87 661.664 Z  M 1297.192 657.533 L 1297.192 657.533 L 1297.192 657.533 Q 1299.741 657.533 1302.026 656.215 L 1302.026 656.215 L 1302.026 656.215 Q 1304.312 654.896 1305.337 652.787 L 1305.337 652.787 L 1305.337 646.283 L 1301.089 646.283 L 1301.089 646.283 Q 1291.128 646.283 1291.128 652.113 L 1291.128 652.113 L 1291.128 652.113 Q 1291.128 654.662 1292.827 656.098 L 1292.827 656.098 L 1292.827 656.098 Q 1294.526 657.533 1297.192 657.533 Z  M 1325.142 629.965 L 1325.142 661.664 L 1319.722 661.664 L 1319.722 629.965 L 1325.142 629.965 L 1325.142 629.965 Z  M 1319.282 621.557 L 1319.282 621.557 L 1319.282 621.557 Q 1319.282 620.238 1320.088 619.33 L 1320.088 619.33 L 1320.088 619.33 Q 1320.894 618.422 1322.476 618.422 L 1322.476 618.422 L 1322.476 618.422 Q 1324.058 618.422 1324.878 619.33 L 1324.878 619.33 L 1324.878 619.33 Q 1325.698 620.238 1325.698 621.557 L 1325.698 621.557 L 1325.698 621.557 Q 1325.698 622.875 1324.878 623.754 L 1324.878 623.754 L 1324.878 623.754 Q 1324.058 624.633 1322.476 624.633 L 1322.476 624.633 L 1322.476 624.633 Q 1320.894 624.633 1320.088 623.754 L 1320.088 623.754 L 1320.088 623.754 Q 1319.282 622.875 1319.282 621.557 Z  M 1349.136 629.789 L 1349.136 634.828 L 1349.136 634.828 Q 1347.905 634.623 1346.47 634.623 L 1346.47 634.623 L 1346.47 634.623 Q 1341.138 634.623 1339.233 639.164 L 1339.233 639.164 L 1339.233 661.664 L 1333.813 661.664 L 1333.813 629.965 L 1339.087 629.965 L 1339.175 633.627 L 1339.175 633.627 Q 1341.841 629.379 1346.733 629.379 L 1346.733 629.379 L 1346.733 629.379 Q 1348.315 629.379 1349.136 629.789 L 1349.136 629.789 L 1349.136 629.789 Z  M 1364.224 548.695 L 1364.224 586.752 L 1384.438 586.752 L 1384.438 591.352 L 1358.569 591.352 L 1358.569 548.695 L 1364.224 548.695 L 1364.224 548.695 Z  M 1388.569 575.59 L 1388.569 575.209 L 1388.569 575.209 Q 1388.569 570.551 1390.4 566.83 L 1390.4 566.83 L 1390.4 566.83 Q 1392.231 563.109 1395.498 561.088 L 1395.498 561.088 L 1395.498 561.088 Q 1398.765 559.066 1402.954 559.066 L 1402.954 559.066 L 1402.954 559.066 Q 1409.429 559.066 1413.428 563.549 L 1413.428 563.549 L 1413.428 563.549 Q 1417.427 568.031 1417.427 575.473 L 1417.427 575.473 L 1417.427 575.854 L 1417.427 575.854 Q 1417.427 580.482 1415.654 584.159 L 1415.654 584.159 L 1415.654 584.159 Q 1413.882 587.836 1410.586 589.887 L 1410.586 589.887 L 1410.586 589.887 Q 1407.29 591.938 1403.013 591.938 L 1403.013 591.938 L 1403.013 591.938 Q 1396.567 591.938 1392.568 587.455 L 1392.568 587.455 L 1392.568 587.455 Q 1388.569 582.973 1388.569 575.59 L 1388.569 575.59 L 1388.569 575.59 Z  M 1394.019 575.854 L 1394.019 575.854 L 1394.019 575.854 Q 1394.019 581.127 1396.465 584.32 L 1396.465 584.32 L 1396.465 584.32 Q 1398.911 587.514 1403.013 587.514 L 1403.013 587.514 L 1403.013 587.514 Q 1407.144 587.514 1409.575 584.276 L 1409.575 584.276 L 1409.575 584.276 Q 1412.007 581.039 1412.007 575.209 L 1412.007 575.209 L 1412.007 575.209 Q 1412.007 569.994 1409.531 566.757 L 1409.531 566.757 L 1409.531 566.757 Q 1407.056 563.52 1402.954 563.52 L 1402.954 563.52 L 1402.954 563.52 Q 1398.94 563.52 1396.479 566.713 L 1396.479 566.713 L 1396.479 566.713 Q 1394.019 569.906 1394.019 575.854 Z  M 1424.224 559.652 L 1429.351 559.652 L 1429.526 563.637 L 1429.526 563.637 Q 1433.159 559.066 1439.019 559.066 L 1439.019 559.066 L 1439.019 559.066 Q 1449.067 559.066 1449.155 570.404 L 1449.155 570.404 L 1449.155 591.352 L 1443.735 591.352 L 1443.735 570.375 L 1443.735 570.375 Q 1443.706 566.947 1442.168 565.307 L 1442.168 565.307 L 1442.168 565.307 Q 1440.63 563.666 1437.378 563.666 L 1437.378 563.666 L 1437.378 563.666 Q 1434.741 563.666 1432.749 565.072 L 1432.749 565.072 L 1432.749 565.072 Q 1430.757 566.479 1429.644 568.764 L 1429.644 568.764 L 1429.644 591.352 L 1424.224 591.352 L 1424.224 559.652 L 1424.224 559.652 Z  M 1470.483 591.938 L 1470.483 591.938 L 1470.483 591.938 Q 1464.038 591.938 1459.995 587.704 L 1459.995 587.704 L 1459.995 587.704 Q 1455.952 583.471 1455.952 576.381 L 1455.952 576.381 L 1455.952 575.385 L 1455.952 575.385 Q 1455.952 570.668 1457.754 566.962 L 1457.754 566.962 L 1457.754 566.962 Q 1459.556 563.256 1462.793 561.161 L 1462.793 561.161 L 1462.793 561.161 Q 1466.03 559.066 1469.81 559.066 L 1469.81 559.066 L 1469.81 559.066 Q 1475.991 559.066 1479.419 563.139 L 1479.419 563.139 L 1479.419 563.139 Q 1482.847 567.211 1482.847 574.799 L 1482.847 574.799 L 1482.847 577.055 L 1461.372 577.055 L 1461.372 577.055 Q 1461.489 581.742 1464.111 584.628 L 1464.111 584.628 L 1464.111 584.628 Q 1466.733 587.514 1470.776 587.514 L 1470.776 587.514 L 1470.776 587.514 Q 1473.647 587.514 1475.64 586.342 L 1475.64 586.342 L 1475.64 586.342 Q 1477.632 585.17 1479.126 583.236 L 1479.126 583.236 L 1482.437 585.814 L 1482.437 585.814 Q 1478.452 591.938 1470.483 591.938 Z  M 1469.81 563.52 L 1469.81 563.52 L 1469.81 563.52 Q 1466.528 563.52 1464.302 565.907 L 1464.302 565.907 L 1464.302 565.907 Q 1462.075 568.295 1461.548 572.602 L 1461.548 572.602 L 1477.427 572.602 L 1477.427 572.191 L 1477.427 572.191 Q 1477.192 568.061 1475.2 565.79 L 1475.2 565.79 L 1475.2 565.79 Q 1473.208 563.52 1469.81 563.52 Z  M 1144.409 548.695 L 1144.409 553.324 L 1130.698 553.324 L 1130.698 591.352 L 1125.103 591.352 L 1125.103 553.324 L 1111.421 553.324 L 1111.421 548.695 L 1144.409 548.695 L 1144.409 548.695 Z  M 1163.013 559.477 L 1163.013 564.516 L 1163.013 564.516 Q 1161.782 564.311 1160.347 564.311 L 1160.347 564.311 L 1160.347 564.311 Q 1155.015 564.311 1153.11 568.852 L 1153.11 568.852 L 1153.11 591.352 L 1147.69 591.352 L 1147.69 559.652 L 1152.964 559.652 L 1153.052 563.314 L 1153.052 563.314 Q 1155.718 559.066 1160.61 559.066 L 1160.61 559.066 L 1160.61 559.066 Q 1162.192 559.066 1163.013 559.477 L 1163.013 559.477 L 1163.013 559.477 Z  M 1173.882 559.652 L 1173.882 591.352 L 1168.462 591.352 L 1168.462 559.652 L 1173.882 559.652 L 1173.882 559.652 Z  M 1168.022 551.244 L 1168.022 551.244 L 1168.022 551.244 Q 1168.022 549.926 1168.828 549.018 L 1168.828 549.018 L 1168.828 549.018 Q 1169.634 548.109 1171.216 548.109 L 1171.216 548.109 L 1171.216 548.109 Q 1172.798 548.109 1173.618 549.018 L 1173.618 549.018 L 1173.618 549.018 Q 1174.438 549.926 1174.438 551.244 L 1174.438 551.244 L 1174.438 551.244 Q 1174.438 552.563 1173.618 553.441 L 1173.618 553.441 L 1173.618 553.441 Q 1172.798 554.32 1171.216 554.32 L 1171.216 554.32 L 1171.216 554.32 Q 1169.634 554.32 1168.828 553.441 L 1168.828 553.441 L 1168.828 553.441 Q 1168.022 552.563 1168.022 551.244 Z  M 1184.956 559.652 L 1193.013 583.998 L 1200.864 559.652 L 1206.401 559.652 L 1195.034 591.352 L 1190.903 591.352 L 1179.419 559.652 L 1184.956 559.652 L 1184.956 559.652 Z  M 1236.431 591.352 L 1230.747 591.352 L 1230.747 591.352 Q 1230.278 590.414 1229.985 588.012 L 1229.985 588.012 L 1229.985 588.012 Q 1226.206 591.938 1220.962 591.938 L 1220.962 591.938 L 1220.962 591.938 Q 1216.274 591.938 1213.271 589.286 L 1213.271 589.286 L 1213.271 589.286 Q 1210.269 586.635 1210.269 582.563 L 1210.269 582.563 L 1210.269 582.563 Q 1210.269 577.611 1214.033 574.872 L 1214.033 574.872 L 1214.033 574.872 Q 1217.798 572.133 1224.624 572.133 L 1224.624 572.133 L 1229.897 572.133 L 1229.897 569.643 L 1229.897 569.643 Q 1229.897 566.801 1228.198 565.116 L 1228.198 565.116 L 1228.198 565.116 Q 1226.499 563.432 1223.188 563.432 L 1223.188 563.432 L 1223.188 563.432 Q 1220.288 563.432 1218.325 564.896 L 1218.325 564.896 L 1218.325 564.896 Q 1216.362 566.361 1216.362 568.441 L 1216.362 568.441 L 1210.913 568.441 L 1210.913 568.441 Q 1210.913 566.068 1212.598 563.856 L 1212.598 563.856 L 1212.598 563.856 Q 1214.282 561.645 1217.168 560.355 L 1217.168 560.355 L 1217.168 560.355 Q 1220.054 559.066 1223.511 559.066 L 1223.511 559.066 L 1223.511 559.066 Q 1228.989 559.066 1232.095 561.806 L 1232.095 561.806 L 1232.095 561.806 Q 1235.2 564.545 1235.317 569.35 L 1235.317 569.35 L 1235.317 583.939 L 1235.317 583.939 Q 1235.317 588.305 1236.431 590.883 L 1236.431 590.883 L 1236.431 591.352 L 1236.431 591.352 Z  M 1221.753 587.221 L 1221.753 587.221 L 1221.753 587.221 Q 1224.302 587.221 1226.587 585.902 L 1226.587 585.902 L 1226.587 585.902 Q 1228.872 584.584 1229.897 582.475 L 1229.897 582.475 L 1229.897 575.971 L 1225.649 575.971 L 1225.649 575.971 Q 1215.688 575.971 1215.688 581.801 L 1215.688 581.801 L 1215.688 581.801 Q 1215.688 584.35 1217.388 585.785 L 1217.388 585.785 L 1217.388 585.785 Q 1219.087 587.221 1221.753 587.221 Z  M 1249.702 546.352 L 1249.702 591.352 L 1244.282 591.352 L 1244.282 546.352 L 1249.702 546.352 L 1249.702 546.352 Z  M 1271.528 591.938 L 1271.528 591.938 L 1271.528 591.938 Q 1265.083 591.938 1261.04 587.704 L 1261.04 587.704 L 1261.04 587.704 Q 1256.997 583.471 1256.997 576.381 L 1256.997 576.381 L 1256.997 575.385 L 1256.997 575.385 Q 1256.997 570.668 1258.799 566.962 L 1258.799 566.962 L 1258.799 566.962 Q 1260.601 563.256 1263.838 561.161 L 1263.838 561.161 L 1263.838 561.161 Q 1267.075 559.066 1270.854 559.066 L 1270.854 559.066 L 1270.854 559.066 Q 1277.036 559.066 1280.464 563.139 L 1280.464 563.139 L 1280.464 563.139 Q 1283.892 567.211 1283.892 574.799 L 1283.892 574.799 L 1283.892 577.055 L 1262.417 577.055 L 1262.417 577.055 Q 1262.534 581.742 1265.156 584.628 L 1265.156 584.628 L 1265.156 584.628 Q 1267.778 587.514 1271.821 587.514 L 1271.821 587.514 L 1271.821 587.514 Q 1274.692 587.514 1276.685 586.342 L 1276.685 586.342 L 1276.685 586.342 Q 1278.677 585.17 1280.171 583.236 L 1280.171 583.236 L 1283.481 585.814 L 1283.481 585.814 Q 1279.497 591.938 1271.528 591.938 Z  M 1270.854 563.52 L 1270.854 563.52 L 1270.854 563.52 Q 1267.573 563.52 1265.347 565.907 L 1265.347 565.907 L 1265.347 565.907 Q 1263.12 568.295 1262.593 572.602 L 1262.593 572.602 L 1278.472 572.602 L 1278.472 572.191 L 1278.472 572.191 Q 1278.237 568.061 1276.245 565.79 L 1276.245 565.79 L 1276.245 565.79 Q 1274.253 563.52 1270.854 563.52 Z  M 1290.161 559.652 L 1295.288 559.652 L 1295.464 563.637 L 1295.464 563.637 Q 1299.097 559.066 1304.956 559.066 L 1304.956 559.066 L 1304.956 559.066 Q 1315.005 559.066 1315.093 570.404 L 1315.093 570.404 L 1315.093 591.352 L 1309.673 591.352 L 1309.673 570.375 L 1309.673 570.375 Q 1309.644 566.947 1308.105 565.307 L 1308.105 565.307 L 1308.105 565.307 Q 1306.567 563.666 1303.315 563.666 L 1303.315 563.666 L 1303.315 563.666 Q 1300.679 563.666 1298.687 565.072 L 1298.687 565.072 L 1298.687 565.072 Q 1296.694 566.479 1295.581 568.764 L 1295.581 568.764 L 1295.581 591.352 L 1290.161 591.352 L 1290.161 559.652 L 1290.161 559.652 Z  M 1325.2 551.977 L 1330.62 551.977 L 1330.62 559.652 L 1336.538 559.652 L 1336.538 563.842 L 1330.62 563.842 L 1330.62 583.5 L 1330.62 583.5 Q 1330.62 585.404 1331.411 586.356 L 1331.411 586.356 L 1331.411 586.356 Q 1332.202 587.309 1334.106 587.309 L 1334.106 587.309 L 1334.106 587.309 Q 1335.044 587.309 1336.685 586.957 L 1336.685 586.957 L 1336.685 591.352 L 1336.685 591.352 Q 1334.546 591.938 1332.524 591.938 L 1332.524 591.938 L 1332.524 591.938 Q 1328.892 591.938 1327.046 589.74 L 1327.046 589.74 L 1327.046 589.74 Q 1325.2 587.543 1325.2 583.5 L 1325.2 583.5 L 1325.2 563.842 L 1319.429 563.842 L 1319.429 559.652 L 1325.2 559.652 L 1325.2 551.977 L 1325.2 551.977 Z " fill="rgb(70,70,70)"/><path d=" M -321.107 577.816 L -315.453 577.816 L -315.453 577.816 Q -316.244 584.584 -320.448 588.261 L -320.448 588.261 L -320.448 588.261 Q -324.652 591.938 -331.625 591.938 L -331.625 591.938 L -331.625 591.938 Q -339.184 591.938 -343.739 586.518 L -343.739 586.518 L -343.739 586.518 Q -348.295 581.098 -348.295 572.016 L -348.295 572.016 L -348.295 567.914 L -348.295 567.914 Q -348.295 561.967 -346.171 557.455 L -346.171 557.455 L -346.171 557.455 Q -344.047 552.943 -340.15 550.526 L -340.15 550.526 L -340.15 550.526 Q -336.254 548.109 -331.127 548.109 L -331.127 548.109 L -331.127 548.109 Q -324.33 548.109 -320.229 551.903 L -320.229 551.903 L -320.229 551.903 Q -316.127 555.697 -315.453 562.406 L -315.453 562.406 L -321.107 562.406 L -321.107 562.406 Q -321.84 557.309 -324.286 555.023 L -324.286 555.023 L -324.286 555.023 Q -326.732 552.738 -331.127 552.738 L -331.127 552.738 L -331.127 552.738 Q -336.518 552.738 -339.579 556.723 L -339.579 556.723 L -339.579 556.723 Q -342.641 560.707 -342.641 568.061 L -342.641 568.061 L -342.641 572.191 L -342.641 572.191 Q -342.641 579.135 -339.74 583.236 L -339.74 583.236 L -339.74 583.236 Q -336.84 587.338 -331.625 587.338 L -331.625 587.338 L -331.625 587.338 Q -326.938 587.338 -324.433 585.214 L -324.433 585.214 L -324.433 585.214 Q -321.928 583.09 -321.107 577.816 L -321.107 577.816 L -321.107 577.816 Z  M -303.207 546.352 L -303.207 563.49 L -303.207 563.49 Q -299.604 559.066 -293.832 559.066 L -293.832 559.066 L -293.832 559.066 Q -283.783 559.066 -283.695 570.404 L -283.695 570.404 L -283.695 591.352 L -289.115 591.352 L -289.115 570.375 L -289.115 570.375 Q -289.145 566.947 -290.683 565.307 L -290.683 565.307 L -290.683 565.307 Q -292.221 563.666 -295.473 563.666 L -295.473 563.666 L -295.473 563.666 Q -298.109 563.666 -300.102 565.072 L -300.102 565.072 L -300.102 565.072 Q -302.094 566.479 -303.207 568.764 L -303.207 568.764 L -303.207 591.352 L -308.627 591.352 L -308.627 546.352 L -303.207 546.352 L -303.207 546.352 Z  M -250.326 591.352 L -256.01 591.352 L -256.01 591.352 Q -256.479 590.414 -256.771 588.012 L -256.771 588.012 L -256.771 588.012 Q -260.551 591.938 -265.795 591.938 L -265.795 591.938 L -265.795 591.938 Q -270.482 591.938 -273.485 589.286 L -273.485 589.286 L -273.485 589.286 Q -276.488 586.635 -276.488 582.563 L -276.488 582.563 L -276.488 582.563 Q -276.488 577.611 -272.724 574.872 L -272.724 574.872 L -272.724 574.872 Q -268.959 572.133 -262.133 572.133 L -262.133 572.133 L -256.859 572.133 L -256.859 569.643 L -256.859 569.643 Q -256.859 566.801 -258.559 565.116 L -258.559 565.116 L -258.559 565.116 Q -260.258 563.432 -263.568 563.432 L -263.568 563.432 L -263.568 563.432 Q -266.469 563.432 -268.432 564.896 L -268.432 564.896 L -268.432 564.896 Q -270.395 566.361 -270.395 568.441 L -270.395 568.441 L -275.844 568.441 L -275.844 568.441 Q -275.844 566.068 -274.159 563.856 L -274.159 563.856 L -274.159 563.856 Q -272.475 561.645 -269.589 560.355 L -269.589 560.355 L -269.589 560.355 Q -266.703 559.066 -263.246 559.066 L -263.246 559.066 L -263.246 559.066 Q -257.768 559.066 -254.662 561.806 L -254.662 561.806 L -254.662 561.806 Q -251.557 564.545 -251.439 569.35 L -251.439 569.35 L -251.439 583.939 L -251.439 583.939 Q -251.439 588.305 -250.326 590.883 L -250.326 590.883 L -250.326 591.352 L -250.326 591.352 Z  M -265.004 587.221 L -265.004 587.221 L -265.004 587.221 Q -262.455 587.221 -260.17 585.902 L -260.17 585.902 L -260.17 585.902 Q -257.885 584.584 -256.859 582.475 L -256.859 582.475 L -256.859 575.971 L -261.107 575.971 L -261.107 575.971 Q -271.068 575.971 -271.068 581.801 L -271.068 581.801 L -271.068 581.801 Q -271.068 584.35 -269.369 585.785 L -269.369 585.785 L -269.369 585.785 Q -267.67 587.221 -265.004 587.221 Z  M -227.621 559.477 L -227.621 564.516 L -227.621 564.516 Q -228.852 564.311 -230.287 564.311 L -230.287 564.311 L -230.287 564.311 Q -235.619 564.311 -237.523 568.852 L -237.523 568.852 L -237.523 591.352 L -242.943 591.352 L -242.943 559.652 L -237.67 559.652 L -237.582 563.314 L -237.582 563.314 Q -234.916 559.066 -230.023 559.066 L -230.023 559.066 L -230.023 559.066 Q -228.441 559.066 -227.621 559.477 L -227.621 559.477 L -227.621 559.477 Z  M -224.486 575.238 L -224.486 575.238 L -224.486 575.238 Q -224.486 567.826 -221.059 563.446 L -221.059 563.446 L -221.059 563.446 Q -217.631 559.066 -211.977 559.066 L -211.977 559.066 L -211.977 559.066 Q -206.176 559.066 -202.924 563.168 L -202.924 563.168 L -202.66 559.652 L -197.709 559.652 L -197.709 590.59 L -197.709 590.59 Q -197.709 596.742 -201.356 600.287 L -201.356 600.287 L -201.356 600.287 Q -205.004 603.832 -211.156 603.832 L -211.156 603.832 L -211.156 603.832 Q -214.584 603.832 -217.865 602.367 L -217.865 602.367 L -217.865 602.367 Q -221.146 600.902 -222.875 598.354 L -222.875 598.354 L -220.063 595.102 L -220.063 595.102 Q -216.576 599.408 -211.537 599.408 L -211.537 599.408 L -211.537 599.408 Q -207.582 599.408 -205.37 597.182 L -205.37 597.182 L -205.37 597.182 Q -203.158 594.955 -203.158 590.912 L -203.158 590.912 L -203.158 588.188 L -203.158 588.188 Q -206.41 591.938 -212.035 591.938 L -212.035 591.938 L -212.035 591.938 Q -217.602 591.938 -221.044 587.455 L -221.044 587.455 L -221.044 587.455 Q -224.486 582.973 -224.486 575.238 Z  M -219.037 575.854 L -219.037 575.854 L -219.037 575.854 Q -219.037 581.215 -216.84 584.276 L -216.84 584.276 L -216.84 584.276 Q -214.643 587.338 -210.688 587.338 L -210.688 587.338 L -210.688 587.338 Q -205.561 587.338 -203.158 582.68 L -203.158 582.68 L -203.158 568.207 L -203.158 568.207 Q -205.648 563.666 -210.629 563.666 L -210.629 563.666 L -210.629 563.666 Q -214.584 563.666 -216.811 566.742 L -216.811 566.742 L -216.811 566.742 Q -219.037 569.818 -219.037 575.854 Z  M -176.381 591.938 L -176.381 591.938 L -176.381 591.938 Q -182.826 591.938 -186.869 587.704 L -186.869 587.704 L -186.869 587.704 Q -190.912 583.471 -190.912 576.381 L -190.912 576.381 L -190.912 575.385 L -190.912 575.385 Q -190.912 570.668 -189.11 566.962 L -189.11 566.962 L -189.11 566.962 Q -187.309 563.256 -184.071 561.161 L -184.071 561.161 L -184.071 561.161 Q -180.834 559.066 -177.055 559.066 L -177.055 559.066 L -177.055 559.066 Q -170.873 559.066 -167.445 563.139 L -167.445 563.139 L -167.445 563.139 Q -164.018 567.211 -164.018 574.799 L -164.018 574.799 L -164.018 577.055 L -185.492 577.055 L -185.492 577.055 Q -185.375 581.742 -182.753 584.628 L -182.753 584.628 L -182.753 584.628 Q -180.131 587.514 -176.088 587.514 L -176.088 587.514 L -176.088 587.514 Q -173.217 587.514 -171.225 586.342 L -171.225 586.342 L -171.225 586.342 Q -169.232 585.17 -167.738 583.236 L -167.738 583.236 L -164.428 585.814 L -164.428 585.814 Q -168.412 591.938 -176.381 591.938 Z  M -177.055 563.52 L -177.055 563.52 L -177.055 563.52 Q -180.336 563.52 -182.563 565.907 L -182.563 565.907 L -182.563 565.907 Q -184.789 568.295 -185.316 572.602 L -185.316 572.602 L -169.438 572.602 L -169.438 572.191 L -169.438 572.191 Q -169.672 568.061 -171.664 565.79 L -171.664 565.79 L -171.664 565.79 Q -173.656 563.52 -177.055 563.52 Z  M -485.404 591.352 L -500.199 591.352 L -500.199 548.695 L -486.254 548.695 L -486.254 548.695 Q -479.311 548.695 -475.81 551.566 L -475.81 551.566 L -475.81 551.566 Q -472.309 554.438 -472.309 560.063 L -472.309 560.063 L -472.309 560.063 Q -472.309 563.051 -474.008 565.351 L -474.008 565.351 L -474.008 565.351 Q -475.707 567.65 -478.637 568.91 L -478.637 568.91 L -478.637 568.91 Q -475.18 569.877 -473.173 572.587 L -473.173 572.587 L -473.173 572.587 Q -471.166 575.297 -471.166 579.047 L -471.166 579.047 L -471.166 579.047 Q -471.166 584.789 -474.887 588.07 L -474.887 588.07 L -474.887 588.07 Q -478.607 591.352 -485.404 591.352 L -485.404 591.352 L -485.404 591.352 Z  M -485.199 571.4 L -494.574 571.4 L -494.574 586.752 L -485.287 586.752 L -485.287 586.752 Q -481.361 586.752 -479.091 584.716 L -479.091 584.716 L -479.091 584.716 Q -476.82 582.68 -476.82 579.105 L -476.82 579.105 L -476.82 579.105 Q -476.82 571.4 -485.199 571.4 L -485.199 571.4 L -485.199 571.4 Z  M -494.574 553.324 L -494.574 566.889 L -486.078 566.889 L -486.078 566.889 Q -482.387 566.889 -480.175 565.043 L -480.175 565.043 L -480.175 565.043 Q -477.963 563.197 -477.963 560.033 L -477.963 560.033 L -477.963 560.033 Q -477.963 556.518 -480.014 554.921 L -480.014 554.921 L -480.014 554.921 Q -482.064 553.324 -486.254 553.324 L -486.254 553.324 L -494.574 553.324 L -494.574 553.324 Z  M -465.131 575.59 L -465.131 575.209 L -465.131 575.209 Q -465.131 570.551 -463.3 566.83 L -463.3 566.83 L -463.3 566.83 Q -461.469 563.109 -458.202 561.088 L -458.202 561.088 L -458.202 561.088 Q -454.936 559.066 -450.746 559.066 L -450.746 559.066 L -450.746 559.066 Q -444.271 559.066 -440.272 563.549 L -440.272 563.549 L -440.272 563.549 Q -436.273 568.031 -436.273 575.473 L -436.273 575.473 L -436.273 575.854 L -436.273 575.854 Q -436.273 580.482 -438.046 584.159 L -438.046 584.159 L -438.046 584.159 Q -439.818 587.836 -443.114 589.887 L -443.114 589.887 L -443.114 589.887 Q -446.41 591.938 -450.688 591.938 L -450.688 591.938 L -450.688 591.938 Q -457.133 591.938 -461.132 587.455 L -461.132 587.455 L -461.132 587.455 Q -465.131 582.973 -465.131 575.59 L -465.131 575.59 L -465.131 575.59 Z  M -459.682 575.854 L -459.682 575.854 L -459.682 575.854 Q -459.682 581.127 -457.235 584.32 L -457.235 584.32 L -457.235 584.32 Q -454.789 587.514 -450.688 587.514 L -450.688 587.514 L -450.688 587.514 Q -446.557 587.514 -444.125 584.276 L -444.125 584.276 L -444.125 584.276 Q -441.693 581.039 -441.693 575.209 L -441.693 575.209 L -441.693 575.209 Q -441.693 569.994 -444.169 566.757 L -444.169 566.757 L -444.169 566.757 Q -446.645 563.52 -450.746 563.52 L -450.746 563.52 L -450.746 563.52 Q -454.76 563.52 -457.221 566.713 L -457.221 566.713 L -457.221 566.713 Q -459.682 569.906 -459.682 575.854 Z  M -429.477 559.652 L -424.35 559.652 L -424.174 563.637 L -424.174 563.637 Q -420.541 559.066 -414.682 559.066 L -414.682 559.066 L -414.682 559.066 Q -404.633 559.066 -404.545 570.404 L -404.545 570.404 L -404.545 591.352 L -409.965 591.352 L -409.965 570.375 L -409.965 570.375 Q -409.994 566.947 -411.532 565.307 L -411.532 565.307 L -411.532 565.307 Q -413.07 563.666 -416.322 563.666 L -416.322 563.666 L -416.322 563.666 Q -418.959 563.666 -420.951 565.072 L -420.951 565.072 L -420.951 565.072 Q -422.943 566.479 -424.057 568.764 L -424.057 568.764 L -424.057 591.352 L -429.477 591.352 L -429.477 559.652 L -429.477 559.652 Z  M -397.689 575.648 L -397.689 575.238 L -397.689 575.238 Q -397.689 567.943 -394.232 563.505 L -394.232 563.505 L -394.232 563.505 Q -390.775 559.066 -385.18 559.066 L -385.18 559.066 L -385.18 559.066 Q -379.613 559.066 -376.361 562.875 L -376.361 562.875 L -376.361 546.352 L -370.941 546.352 L -370.941 591.352 L -375.922 591.352 L -376.186 587.953 L -376.186 587.953 Q -379.438 591.938 -385.238 591.938 L -385.238 591.938 L -385.238 591.938 Q -390.746 591.938 -394.218 587.426 L -394.218 587.426 L -394.218 587.426 Q -397.689 582.914 -397.689 575.648 L -397.689 575.648 L -397.689 575.648 Z  M -392.27 575.854 L -392.27 575.854 L -392.27 575.854 Q -392.27 581.244 -390.043 584.291 L -390.043 584.291 L -390.043 584.291 Q -387.816 587.338 -383.891 587.338 L -383.891 587.338 L -383.891 587.338 Q -378.734 587.338 -376.361 582.709 L -376.361 582.709 L -376.361 568.148 L -376.361 568.148 Q -378.793 563.666 -383.832 563.666 L -383.832 563.666 L -383.832 563.666 Q -387.816 563.666 -390.043 566.742 L -390.043 566.742 L -390.043 566.742 Q -392.27 569.818 -392.27 575.854 Z " fill="rgb(70,70,70)"/><g><path d=" M -346 96.33 C -346 88.879 -339.951 82.83 -332.5 82.83 C -325.049 82.83 -319 88.879 -319 96.33 C -319 103.781 -325.049 109.83 -332.5 109.83 C -339.951 109.83 -346 103.781 -346 96.33 Z  M -343 96.332 C -343 93.542 -341.89 90.872 -339.92 88.902 C -337.96 86.932 -335.28 85.832 -332.5 85.832 C -329.72 85.832 -327.04 86.932 -325.08 88.902 C -323.11 90.872 -322 93.542 -322 96.332 C -322 99.112 -323.11 101.782 -325.08 103.752 C -327.04 105.722 -329.72 106.832 -332.5 106.832 C -335.28 106.832 -337.96 105.722 -339.92 103.752 C -341.89 101.782 -343 99.112 -343 96.332 Z " fill-rule="evenodd" fill="rgb(124,179,66)"/><circle vector-effect="non-scaling-stroke" cx="-332.50000000000006" cy="299.75721740722656" r="40" fill="rgb(3,155,229)"/><circle vector-effect="non-scaling-stroke" cx="-332.50000000000006" cy="165.0047149658203" r="40" fill="rgb(124,179,66)"/><path d=" M -330.5 229.757 L -330.5 231.757 L -334.5 231.757 L -334.5 229.757 L -334.5 201.757 L -334.5 199.757 L -330.5 199.757 L -330.5 201.757 L -330.5 229.757 Z " fill="rgb(124,179,66)"/><path d=" M -330.5 257.757 L -330.5 259.757 L -334.5 259.757 L -334.5 257.757 L -334.5 229.757 L -334.5 227.757 L -330.5 227.757 L -330.5 229.757 L -330.5 257.757 Z " fill="rgb(3,155,229)"/><path d=" M -322.492 180.542 L -318.879 180.542 L -318.879 152.104 L -319.172 152.104 L -329.934 156.245 L -329.934 159.546 L -322.492 156.714 L -322.492 180.542 L -322.492 180.542 Z  M -347.336 178.198 L -347.336 178.198 L -347.336 178.198 Q -347.336 179.331 -346.623 180.122 L -346.623 180.122 L -346.623 180.122 Q -345.91 180.913 -344.504 180.913 L -344.504 180.913 L -344.504 180.913 Q -343.117 180.913 -342.375 180.132 L -342.375 180.132 L -342.375 180.132 Q -341.633 179.35 -341.633 178.198 L -341.633 178.198 L -341.633 178.198 Q -341.633 177.026 -342.365 176.216 L -342.365 176.216 L -342.365 176.216 Q -343.098 175.405 -344.504 175.405 L -344.504 175.405 L -344.504 175.405 Q -345.93 175.405 -346.633 176.225 L -346.633 176.225 L -346.633 176.225 Q -347.336 177.046 -347.336 178.198 Z  M -347.336 161.089 L -347.336 161.089 L -347.336 161.089 Q -347.336 162.222 -346.623 163.013 L -346.623 163.013 L -346.623 163.013 Q -345.91 163.804 -344.504 163.804 L -344.504 163.804 L -344.504 163.804 Q -343.117 163.804 -342.375 163.022 L -342.375 163.022 L -342.375 163.022 Q -341.633 162.241 -341.633 161.089 L -341.633 161.089 L -341.633 161.089 Q -341.633 159.917 -342.365 159.106 L -342.365 159.106 L -342.365 159.106 Q -343.098 158.296 -344.504 158.296 L -344.504 158.296 L -344.504 158.296 Q -345.93 158.296 -346.633 159.116 L -346.633 159.116 L -346.633 159.116 Q -347.336 159.936 -347.336 161.089 Z " fill="rgb(255,255,255)"/><path d=" M -331.789 315.294 L -313.156 315.294 L -313.156 312.345 L -327.434 312.345 L -319.797 304.064 L -319.797 304.064 Q -318.723 302.892 -317.756 301.71 L -317.756 301.71 L -317.756 301.71 Q -316.789 300.529 -316.047 299.318 L -316.047 299.318 L -316.047 299.318 Q -315.324 298.107 -314.895 296.867 L -314.895 296.867 L -314.895 296.867 Q -314.465 295.626 -314.465 294.357 L -314.465 294.357 L -314.465 294.357 Q -314.465 292.658 -315.061 291.212 L -315.061 291.212 L -315.061 291.212 Q -315.656 289.767 -316.77 288.712 L -316.77 288.712 L -316.77 288.712 Q -317.883 287.658 -319.494 287.062 L -319.494 287.062 L -319.494 287.062 Q -321.105 286.466 -323.117 286.466 L -323.117 286.466 L -323.117 286.466 Q -325.305 286.466 -327.014 287.169 L -327.014 287.169 L -327.014 287.169 Q -328.723 287.872 -329.895 289.064 L -329.895 289.064 L -329.895 289.064 Q -331.086 290.255 -331.711 291.847 L -331.711 291.847 L -331.711 291.847 Q -332.336 293.439 -332.336 295.236 L -332.336 295.236 L -328.703 295.236 L -328.703 295.236 Q -328.703 293.908 -328.361 292.833 L -328.361 292.833 L -328.361 292.833 Q -328.02 291.759 -327.316 290.997 L -327.316 290.997 L -327.316 290.997 Q -326.633 290.255 -325.588 289.845 L -325.588 289.845 L -325.588 289.845 Q -324.543 289.435 -323.117 289.435 L -323.117 289.435 L -323.117 289.435 Q -321.945 289.435 -321.018 289.835 L -321.018 289.835 L -321.018 289.835 Q -320.09 290.236 -319.426 290.919 L -319.426 290.919 L -319.426 290.919 Q -318.781 291.603 -318.439 292.531 L -318.439 292.531 L -318.439 292.531 Q -318.098 293.458 -318.098 294.513 L -318.098 294.513 L -318.098 294.513 Q -318.098 295.372 -318.313 296.183 L -318.313 296.183 L -318.313 296.183 Q -318.527 296.994 -319.035 297.892 L -319.035 297.892 L -319.035 297.892 Q -319.543 298.81 -320.383 299.884 L -320.383 299.884 L -320.383 299.884 Q -321.223 300.958 -322.473 302.345 L -322.473 302.345 L -331.789 312.697 L -331.789 315.294 L -331.789 315.294 Z  M -347.336 312.951 L -347.336 312.951 L -347.336 312.951 Q -347.336 314.083 -346.623 314.874 L -346.623 314.874 L -346.623 314.874 Q -345.91 315.665 -344.504 315.665 L -344.504 315.665 L -344.504 315.665 Q -343.117 315.665 -342.375 314.884 L -342.375 314.884 L -342.375 314.884 Q -341.633 314.103 -341.633 312.951 L -341.633 312.951 L -341.633 312.951 Q -341.633 311.779 -342.365 310.968 L -342.365 310.968 L -342.365 310.968 Q -343.098 310.158 -344.504 310.158 L -344.504 310.158 L -344.504 310.158 Q -345.93 310.158 -346.633 310.978 L -346.633 310.978 L -346.633 310.978 Q -347.336 311.798 -347.336 312.951 Z  M -347.336 295.841 L -347.336 295.841 L -347.336 295.841 Q -347.336 296.974 -346.623 297.765 L -346.623 297.765 L -346.623 297.765 Q -345.91 298.556 -344.504 298.556 L -344.504 298.556 L -344.504 298.556 Q -343.117 298.556 -342.375 297.775 L -342.375 297.775 L -342.375 297.775 Q -341.633 296.994 -341.633 295.841 L -341.633 295.841 L -341.633 295.841 Q -341.633 294.669 -342.365 293.859 L -342.365 293.859 L -342.365 293.859 Q -343.098 293.048 -344.504 293.048 L -344.504 293.048 L -344.504 293.048 Q -345.93 293.048 -346.633 293.869 L -346.633 293.869 L -346.633 293.869 Q -347.336 294.689 -347.336 295.841 Z " fill="rgb(255,255,255)"/></g><g><path d=" M 1238.88 336.019 L 1240.62 335.029 L 1242.6 338.499 L 1240.87 339.489 L 1216.74 353.279 L 1215.01 354.269 L 1213.02 350.799 L 1214.76 349.799 L 1238.88 336.019 Z " fill="rgb(3,155,229)"/><path d=" M 1263.01 322.229 L 1264.74 321.239 L 1266.73 324.719 L 1264.99 325.709 L 1240.87 339.489 L 1239.13 340.479 L 1237.15 337.009 L 1238.88 336.019 L 1263.01 322.229 Z " fill="rgb(124,179,66)"/><circle vector-effect="non-scaling-stroke" cx="1182" cy="374.3494567871094" r="40" fill="rgb(3,155,229)"/><path d=" M 1182.711 389.887 L 1201.344 389.887 L 1201.344 386.937 L 1187.066 386.937 L 1194.703 378.656 L 1194.703 378.656 Q 1195.777 377.484 1196.744 376.303 L 1196.744 376.303 L 1196.744 376.303 Q 1197.711 375.121 1198.453 373.91 L 1198.453 373.91 L 1198.453 373.91 Q 1199.176 372.699 1199.605 371.459 L 1199.605 371.459 L 1199.605 371.459 Q 1200.035 370.219 1200.035 368.949 L 1200.035 368.949 L 1200.035 368.949 Q 1200.035 367.25 1199.439 365.805 L 1199.439 365.805 L 1199.439 365.805 Q 1198.844 364.359 1197.73 363.305 L 1197.73 363.305 L 1197.73 363.305 Q 1196.617 362.25 1195.006 361.654 L 1195.006 361.654 L 1195.006 361.654 Q 1193.395 361.058 1191.383 361.058 L 1191.383 361.058 L 1191.383 361.058 Q 1189.195 361.058 1187.486 361.762 L 1187.486 361.762 L 1187.486 361.762 Q 1185.777 362.465 1184.605 363.656 L 1184.605 363.656 L 1184.605 363.656 Q 1183.414 364.848 1182.789 366.439 L 1182.789 366.439 L 1182.789 366.439 Q 1182.164 368.031 1182.164 369.828 L 1182.164 369.828 L 1185.797 369.828 L 1185.797 369.828 Q 1185.797 368.5 1186.139 367.426 L 1186.139 367.426 L 1186.139 367.426 Q 1186.48 366.351 1187.184 365.59 L 1187.184 365.59 L 1187.184 365.59 Q 1187.867 364.848 1188.912 364.437 L 1188.912 364.437 L 1188.912 364.437 Q 1189.957 364.027 1191.383 364.027 L 1191.383 364.027 L 1191.383 364.027 Q 1192.555 364.027 1193.482 364.428 L 1193.482 364.428 L 1193.482 364.428 Q 1194.41 364.828 1195.074 365.512 L 1195.074 365.512 L 1195.074 365.512 Q 1195.719 366.195 1196.061 367.123 L 1196.061 367.123 L 1196.061 367.123 Q 1196.402 368.051 1196.402 369.105 L 1196.402 369.105 L 1196.402 369.105 Q 1196.402 369.965 1196.188 370.775 L 1196.188 370.775 L 1196.188 370.775 Q 1195.973 371.586 1195.465 372.484 L 1195.465 372.484 L 1195.465 372.484 Q 1194.957 373.402 1194.117 374.476 L 1194.117 374.476 L 1194.117 374.476 Q 1193.277 375.551 1192.027 376.937 L 1192.027 376.937 L 1182.711 387.289 L 1182.711 389.887 L 1182.711 389.887 Z  M 1167.164 387.543 L 1167.164 387.543 L 1167.164 387.543 Q 1167.164 388.676 1167.877 389.467 L 1167.877 389.467 L 1167.877 389.467 Q 1168.59 390.258 1169.996 390.258 L 1169.996 390.258 L 1169.996 390.258 Q 1171.383 390.258 1172.125 389.476 L 1172.125 389.476 L 1172.125 389.476 Q 1172.867 388.695 1172.867 387.543 L 1172.867 387.543 L 1172.867 387.543 Q 1172.867 386.371 1172.135 385.56 L 1172.135 385.56 L 1172.135 385.56 Q 1171.402 384.75 1169.996 384.75 L 1169.996 384.75 L 1169.996 384.75 Q 1168.57 384.75 1167.867 385.57 L 1167.867 385.57 L 1167.867 385.57 Q 1167.164 386.39 1167.164 387.543 Z  M 1167.164 370.433 L 1167.164 370.433 L 1167.164 370.433 Q 1167.164 371.566 1167.877 372.357 L 1167.877 372.357 L 1167.877 372.357 Q 1168.59 373.148 1169.996 373.148 L 1169.996 373.148 L 1169.996 373.148 Q 1171.383 373.148 1172.125 372.367 L 1172.125 372.367 L 1172.125 372.367 Q 1172.867 371.586 1172.867 370.433 L 1172.867 370.433 L 1172.867 370.433 Q 1172.867 369.262 1172.135 368.451 L 1172.135 368.451 L 1172.135 368.451 Q 1171.402 367.64 1169.996 367.64 L 1169.996 367.64 L 1169.996 367.64 Q 1168.57 367.64 1167.867 368.461 L 1167.867 368.461 L 1167.867 368.461 Q 1167.164 369.281 1167.164 370.433 Z " fill="rgb(255,255,255)"/><path d=" M 1356.61 339.489 L 1354.88 338.499 L 1356.86 335.029 L 1358.6 336.019 L 1382.72 349.799 L 1384.46 350.799 L 1382.47 354.269 L 1380.74 353.279 L 1356.61 339.489 Z " fill="rgb(3,155,229)"/><path d=" M 1332.49 325.709 L 1330.75 324.719 L 1332.74 321.239 L 1334.47 322.229 L 1358.6 336.019 L 1360.33 337.009 L 1358.35 340.479 L 1356.61 339.489 L 1332.49 325.709 Z " fill="rgb(124,179,66)"/><circle vector-effect="non-scaling-stroke" cx="1415" cy="374.3494567871094" r="40" fill="rgb(3,155,229)"/><path d=" M 1423.699 373.93 L 1421.121 373.93 L 1421.121 376.859 L 1423.699 376.859 L 1423.699 376.859 Q 1425.047 376.859 1426.17 377.172 L 1426.17 377.172 L 1426.17 377.172 Q 1427.293 377.484 1428.094 378.129 L 1428.094 378.129 L 1428.094 378.129 Q 1428.875 378.773 1429.314 379.74 L 1429.314 379.74 L 1429.314 379.74 Q 1429.754 380.707 1429.754 382.035 L 1429.754 382.035 L 1429.754 382.035 Q 1429.754 383.383 1429.373 384.369 L 1429.373 384.369 L 1429.373 384.369 Q 1428.992 385.355 1428.289 386.019 L 1428.289 386.019 L 1428.289 386.019 Q 1427.586 386.683 1426.59 387.006 L 1426.59 387.006 L 1426.59 387.006 Q 1425.594 387.328 1424.363 387.328 L 1424.363 387.328 L 1424.363 387.328 Q 1423.133 387.328 1422.127 386.976 L 1422.127 386.976 L 1422.127 386.976 Q 1421.121 386.625 1420.418 385.98 L 1420.418 385.98 L 1420.418 385.98 Q 1419.715 385.336 1419.334 384.418 L 1419.334 384.418 L 1419.334 384.418 Q 1418.953 383.5 1418.953 382.387 L 1418.953 382.387 L 1415.34 382.387 L 1415.34 382.387 Q 1415.34 384.262 1416.053 385.726 L 1416.053 385.726 L 1416.053 385.726 Q 1416.766 387.191 1417.977 388.207 L 1417.977 388.207 L 1417.977 388.207 Q 1419.188 389.223 1420.838 389.75 L 1420.838 389.75 L 1420.838 389.75 Q 1422.488 390.277 1424.363 390.277 L 1424.363 390.277 L 1424.363 390.277 Q 1426.277 390.277 1427.928 389.721 L 1427.928 389.721 L 1427.928 389.721 Q 1429.578 389.164 1430.789 388.09 L 1430.789 388.09 L 1430.789 388.09 Q 1432 387.035 1432.684 385.492 L 1432.684 385.492 L 1432.684 385.492 Q 1433.367 383.949 1433.367 381.957 L 1433.367 381.957 L 1433.367 381.957 Q 1433.367 380.98 1433.143 379.984 L 1433.143 379.984 L 1433.143 379.984 Q 1432.918 378.988 1432.371 378.09 L 1432.371 378.09 L 1432.371 378.09 Q 1431.805 377.191 1430.877 376.469 L 1430.877 376.469 L 1430.877 376.469 Q 1429.949 375.746 1428.563 375.297 L 1428.563 375.297 L 1428.563 375.297 Q 1429.715 374.808 1430.545 374.076 L 1430.545 374.076 L 1430.545 374.076 Q 1431.375 373.344 1431.902 372.504 L 1431.902 372.504 L 1431.902 372.504 Q 1432.43 371.683 1432.684 370.805 L 1432.684 370.805 L 1432.684 370.805 Q 1432.938 369.926 1432.938 369.105 L 1432.938 369.105 L 1432.938 369.105 Q 1432.938 367.133 1432.313 365.629 L 1432.313 365.629 L 1432.313 365.629 Q 1431.688 364.125 1430.555 363.109 L 1430.555 363.109 L 1430.555 363.109 Q 1429.422 362.094 1427.84 361.576 L 1427.84 361.576 L 1427.84 361.576 Q 1426.258 361.058 1424.344 361.058 L 1424.344 361.058 L 1424.344 361.058 Q 1422.371 361.058 1420.76 361.674 L 1420.76 361.674 L 1420.76 361.674 Q 1419.148 362.289 1417.996 363.344 L 1417.996 363.344 L 1417.996 363.344 Q 1416.844 364.418 1416.209 365.853 L 1416.209 365.853 L 1416.209 365.853 Q 1415.574 367.289 1415.574 368.91 L 1415.574 368.91 L 1419.207 368.91 L 1419.207 368.91 Q 1419.207 367.797 1419.578 366.898 L 1419.578 366.898 L 1419.578 366.898 Q 1419.949 366 1420.633 365.355 L 1420.633 365.355 L 1420.633 365.355 Q 1421.297 364.711 1422.244 364.369 L 1422.244 364.369 L 1422.244 364.369 Q 1423.191 364.027 1424.344 364.027 L 1424.344 364.027 L 1424.344 364.027 Q 1425.535 364.027 1426.463 364.33 L 1426.463 364.33 L 1426.463 364.33 Q 1427.391 364.633 1428.016 365.238 L 1428.016 365.238 L 1428.016 365.238 Q 1428.66 365.863 1428.992 366.81 L 1428.992 366.81 L 1428.992 366.81 Q 1429.324 367.758 1429.324 369.027 L 1429.324 369.027 L 1429.324 369.027 Q 1429.324 370.101 1428.953 371 L 1428.953 371 L 1428.953 371 Q 1428.582 371.898 1427.879 372.543 L 1427.879 372.543 L 1427.879 372.543 Q 1427.156 373.187 1426.111 373.558 L 1426.111 373.558 L 1426.111 373.558 Q 1425.066 373.93 1423.699 373.93 L 1423.699 373.93 L 1423.699 373.93 Z  M 1400.164 387.543 L 1400.164 387.543 L 1400.164 387.543 Q 1400.164 388.676 1400.877 389.467 L 1400.877 389.467 L 1400.877 389.467 Q 1401.59 390.258 1402.996 390.258 L 1402.996 390.258 L 1402.996 390.258 Q 1404.383 390.258 1405.125 389.476 L 1405.125 389.476 L 1405.125 389.476 Q 1405.867 388.695 1405.867 387.543 L 1405.867 387.543 L 1405.867 387.543 Q 1405.867 386.371 1405.135 385.56 L 1405.135 385.56 L 1405.135 385.56 Q 1404.402 384.75 1402.996 384.75 L 1402.996 384.75 L 1402.996 384.75 Q 1401.57 384.75 1400.867 385.57 L 1400.867 385.57 L 1400.867 385.57 Q 1400.164 386.39 1400.164 387.543 Z  M 1400.164 370.433 L 1400.164 370.433 L 1400.164 370.433 Q 1400.164 371.566 1400.877 372.357 L 1400.877 372.357 L 1400.877 372.357 Q 1401.59 373.148 1402.996 373.148 L 1402.996 373.148 L 1402.996 373.148 Q 1404.383 373.148 1405.125 372.367 L 1405.125 372.367 L 1405.125 372.367 Q 1405.867 371.586 1405.867 370.433 L 1405.867 370.433 L 1405.867 370.433 Q 1405.867 369.262 1405.135 368.451 L 1405.135 368.451 L 1405.135 368.451 Q 1404.402 367.64 1402.996 367.64 L 1402.996 367.64 L 1402.996 367.64 Q 1401.57 367.64 1400.867 368.461 L 1400.867 368.461 L 1400.867 368.461 Q 1400.164 369.281 1400.164 370.433 Z " fill="rgb(255,255,255)"/><circle vector-effect="non-scaling-stroke" cx="1298.6199951171875" cy="310.9222291519498" r="40" fill="rgb(124,179,66)"/><path d=" M 1308.628 326.459 L 1312.241 326.459 L 1312.241 298.022 L 1311.948 298.022 L 1301.186 302.162 L 1301.186 305.463 L 1308.628 302.631 L 1308.628 326.459 L 1308.628 326.459 Z  M 1283.784 324.116 L 1283.784 324.116 L 1283.784 324.116 Q 1283.784 325.248 1284.497 326.039 L 1284.497 326.039 L 1284.497 326.039 Q 1285.21 326.83 1286.616 326.83 L 1286.616 326.83 L 1286.616 326.83 Q 1288.003 326.83 1288.745 326.049 L 1288.745 326.049 L 1288.745 326.049 Q 1289.487 325.268 1289.487 324.116 L 1289.487 324.116 L 1289.487 324.116 Q 1289.487 322.944 1288.755 322.133 L 1288.755 322.133 L 1288.755 322.133 Q 1288.022 321.323 1286.616 321.323 L 1286.616 321.323 L 1286.616 321.323 Q 1285.19 321.323 1284.487 322.143 L 1284.487 322.143 L 1284.487 322.143 Q 1283.784 322.963 1283.784 324.116 Z  M 1283.784 307.006 L 1283.784 307.006 L 1283.784 307.006 Q 1283.784 308.139 1284.497 308.93 L 1284.497 308.93 L 1284.497 308.93 Q 1285.21 309.721 1286.616 309.721 L 1286.616 309.721 L 1286.616 309.721 Q 1288.003 309.721 1288.745 308.94 L 1288.745 308.94 L 1288.745 308.94 Q 1289.487 308.159 1289.487 307.006 L 1289.487 307.006 L 1289.487 307.006 Q 1289.487 305.834 1288.755 305.024 L 1288.755 305.024 L 1288.755 305.024 Q 1288.022 304.213 1286.616 304.213 L 1286.616 304.213 L 1286.616 304.213 Q 1285.19 304.213 1284.487 305.034 L 1284.487 305.034 L 1284.487 305.034 Q 1283.784 305.854 1283.784 307.006 Z " fill="rgb(255,255,255)"/><path d=" M 1296.69 379.319 L 1296.69 377.319 L 1300.69 377.329 L 1300.69 379.329 L 1300.56 407.119 L 1300.55 409.119 L 1296.55 409.099 L 1296.56 407.099 L 1296.69 379.319 Z " fill="rgb(3,155,229)"/><path d=" M 1296.68 351.529 L 1296.69 349.529 L 1300.69 349.549 L 1300.68 351.549 L 1300.56 379.329 L 1300.55 381.329 L 1296.55 381.319 L 1296.56 379.319 L 1296.68 351.529 Z " fill="rgb(124,179,66)"/><path d=" M 1285.12 243.672 C 1285.12 236.221 1291.169 230.172 1298.62 230.172 C 1306.071 230.172 1312.12 236.221 1312.12 243.672 C 1312.12 251.123 1306.071 257.172 1298.62 257.172 C 1291.169 257.172 1285.12 251.123 1285.12 243.672 Z  M 1288.12 243.669 C 1288.12 240.889 1289.23 238.219 1291.2 236.249 C 1293.16 234.279 1295.84 233.169 1298.62 233.169 C 1301.4 233.169 1304.08 234.279 1306.04 236.249 C 1308.01 238.219 1309.12 240.889 1309.12 243.669 C 1309.12 246.459 1308.01 249.129 1306.04 251.099 C 1304.08 253.069 1301.4 254.169 1298.62 254.169 C 1295.84 254.169 1293.16 253.069 1291.2 251.099 C 1289.23 249.129 1288.12 246.459 1288.12 243.669 Z " fill-rule="evenodd" fill="rgb(124,179,66)"/><circle vector-effect="non-scaling-stroke" cx="1298.6199951171875" cy="447.1994323730469" r="40" fill="rgb(3,155,229)"/><path d=" M 1319.136 456.079 L 1315.171 456.079 L 1315.171 437.192 L 1311.323 437.192 L 1298.589 456.899 L 1298.589 459.028 L 1311.557 459.028 L 1311.557 465.63 L 1315.171 465.63 L 1315.171 459.028 L 1319.136 459.028 L 1319.136 456.079 L 1319.136 456.079 Z  M 1311.557 456.079 L 1302.593 456.079 L 1310.972 443.091 L 1311.557 441.997 L 1311.557 456.079 L 1311.557 456.079 Z  M 1283.784 463.286 L 1283.784 463.286 L 1283.784 463.286 Q 1283.784 464.419 1284.497 465.21 L 1284.497 465.21 L 1284.497 465.21 Q 1285.21 466.001 1286.616 466.001 L 1286.616 466.001 L 1286.616 466.001 Q 1288.003 466.001 1288.745 465.219 L 1288.745 465.219 L 1288.745 465.219 Q 1289.487 464.438 1289.487 463.286 L 1289.487 463.286 L 1289.487 463.286 Q 1289.487 462.114 1288.755 461.303 L 1288.755 461.303 L 1288.755 461.303 Q 1288.022 460.493 1286.616 460.493 L 1286.616 460.493 L 1286.616 460.493 Q 1285.19 460.493 1284.487 461.313 L 1284.487 461.313 L 1284.487 461.313 Q 1283.784 462.134 1283.784 463.286 Z  M 1283.784 446.176 L 1283.784 446.176 L 1283.784 446.176 Q 1283.784 447.309 1284.497 448.1 L 1284.497 448.1 L 1284.497 448.1 Q 1285.21 448.891 1286.616 448.891 L 1286.616 448.891 L 1286.616 448.891 Q 1288.003 448.891 1288.745 448.11 L 1288.745 448.11 L 1288.745 448.11 Q 1289.487 447.329 1289.487 446.176 L 1289.487 446.176 L 1289.487 446.176 Q 1289.487 445.005 1288.755 444.194 L 1288.755 444.194 L 1288.755 444.194 Q 1288.022 443.384 1286.616 443.384 L 1286.616 443.384 L 1286.616 443.384 Q 1285.19 443.384 1284.487 444.204 L 1284.487 444.204 L 1284.487 444.204 Q 1283.784 445.024 1283.784 446.176 Z " fill="rgb(255,255,255)"/></g><g><path d=" M 137.93 117.257 C 137.93 109.806 143.979 103.757 151.43 103.757 C 158.881 103.757 164.93 109.806 164.93 117.257 C 164.93 124.708 158.881 130.757 151.43 130.757 C 143.979 130.757 137.93 124.708 137.93 117.257 Z  M 140.933 117.26 C 140.933 114.47 142.033 111.8 144.003 109.83 C 145.973 107.86 148.643 106.76 151.433 106.76 C 154.213 106.76 156.883 107.86 158.853 109.83 C 160.823 111.8 161.933 114.47 161.933 117.26 C 161.933 120.04 160.823 122.71 158.853 124.68 C 156.883 126.65 154.213 127.76 151.433 127.76 C 148.643 127.76 145.973 126.65 144.003 124.68 C 142.033 122.71 140.933 120.04 140.933 117.26 Z " fill-rule="evenodd" fill="rgb(124,179,66)"/><circle vector-effect="non-scaling-stroke" cx="209.1666717529297" cy="299.75721740722656" r="40" fill="rgb(3,155,229)"/><circle vector-effect="non-scaling-stroke" cx="102.16499710083008" cy="373.29722595214844" r="40.00000000000001" fill="rgb(3,155,229)"/><circle vector-effect="non-scaling-stroke" cx="211.23667907714844" cy="165.0047149658203" r="40" fill="rgb(124,179,66)"/><path d=" M 153.16 332.717 L 154.89 331.707 L 156.9 335.167 L 155.17 336.177 L 131.17 350.177 L 129.45 351.177 L 127.43 347.727 L 129.16 346.717 L 153.16 332.717 Z " fill="rgb(3,155,229)"/><path d=" M 177.16 318.717 L 178.89 317.707 L 180.9 321.167 L 179.17 322.177 L 155.17 336.177 L 153.45 337.177 L 151.43 333.727 L 153.16 332.717 L 177.16 318.717 Z " fill="rgb(3,155,229)"/><path d=" M 202.67 232.447 L 202.67 234.447 L 198.67 234.447 L 198.67 232.447 L 198.67 204.447 L 198.67 202.447 L 202.67 202.447 L 202.67 204.447 L 202.67 232.447 Z " fill="rgb(124,179,66)"/><path d=" M 223.67 232.447 L 223.67 234.447 L 219.67 234.447 L 219.67 232.447 L 219.67 204.447 L 219.67 202.447 L 223.67 202.447 L 223.67 204.447 L 223.67 232.447 Z " fill="rgb(124,179,66)"/><path d=" M 202.67 260.447 L 202.67 262.447 L 198.67 262.447 L 198.67 260.447 L 198.67 232.447 L 198.67 230.447 L 202.67 230.447 L 202.67 232.447 L 202.67 260.447 Z " fill="rgb(3,155,229)"/><path d=" M 223.67 260.447 L 223.67 262.447 L 219.67 262.447 L 219.67 260.447 L 219.67 232.447 L 219.67 230.447 L 223.67 230.447 L 223.67 232.447 L 223.67 260.447 Z " fill="rgb(3,155,229)"/><path d=" M 221.244 180.245 L 224.858 180.245 L 224.858 151.807 L 224.565 151.807 L 213.803 155.948 L 213.803 159.249 L 221.244 156.417 L 221.244 180.245 L 221.244 180.245 Z  M 196.401 177.901 L 196.401 177.901 L 196.401 177.901 Q 196.401 179.034 197.114 179.825 L 197.114 179.825 L 197.114 179.825 Q 197.827 180.616 199.233 180.616 L 199.233 180.616 L 199.233 180.616 Q 200.619 180.616 201.362 179.835 L 201.362 179.835 L 201.362 179.835 Q 202.104 179.053 202.104 177.901 L 202.104 177.901 L 202.104 177.901 Q 202.104 176.729 201.371 175.919 L 201.371 175.919 L 201.371 175.919 Q 200.639 175.108 199.233 175.108 L 199.233 175.108 L 199.233 175.108 Q 197.807 175.108 197.104 175.928 L 197.104 175.928 L 197.104 175.928 Q 196.401 176.749 196.401 177.901 Z  M 196.401 160.792 L 196.401 160.792 L 196.401 160.792 Q 196.401 161.925 197.114 162.716 L 197.114 162.716 L 197.114 162.716 Q 197.827 163.507 199.233 163.507 L 199.233 163.507 L 199.233 163.507 Q 200.619 163.507 201.362 162.725 L 201.362 162.725 L 201.362 162.725 Q 202.104 161.944 202.104 160.792 L 202.104 160.792 L 202.104 160.792 Q 202.104 159.62 201.371 158.809 L 201.371 158.809 L 201.371 158.809 Q 200.639 157.999 199.233 157.999 L 199.233 157.999 L 199.233 157.999 Q 197.807 157.999 197.104 158.819 L 197.104 158.819 L 197.104 158.819 Q 196.401 159.639 196.401 160.792 Z " fill="rgb(255,255,255)"/><path d=" M 211.948 314.997 L 230.58 314.997 L 230.58 312.048 L 216.303 312.048 L 223.94 303.767 L 223.94 303.767 Q 225.014 302.595 225.981 301.413 L 225.981 301.413 L 225.981 301.413 Q 226.948 300.232 227.69 299.021 L 227.69 299.021 L 227.69 299.021 Q 228.412 297.81 228.842 296.57 L 228.842 296.57 L 228.842 296.57 Q 229.272 295.329 229.272 294.06 L 229.272 294.06 L 229.272 294.06 Q 229.272 292.361 228.676 290.915 L 228.676 290.915 L 228.676 290.915 Q 228.08 289.47 226.967 288.415 L 226.967 288.415 L 226.967 288.415 Q 225.854 287.361 224.243 286.765 L 224.243 286.765 L 224.243 286.765 Q 222.631 286.169 220.619 286.169 L 220.619 286.169 L 220.619 286.169 Q 218.432 286.169 216.723 286.872 L 216.723 286.872 L 216.723 286.872 Q 215.014 287.575 213.842 288.767 L 213.842 288.767 L 213.842 288.767 Q 212.651 289.958 212.026 291.55 L 212.026 291.55 L 212.026 291.55 Q 211.401 293.142 211.401 294.939 L 211.401 294.939 L 215.034 294.939 L 215.034 294.939 Q 215.034 293.611 215.375 292.536 L 215.375 292.536 L 215.375 292.536 Q 215.717 291.462 216.42 290.7 L 216.42 290.7 L 216.42 290.7 Q 217.104 289.958 218.149 289.548 L 218.149 289.548 L 218.149 289.548 Q 219.194 289.138 220.619 289.138 L 220.619 289.138 L 220.619 289.138 Q 221.791 289.138 222.719 289.538 L 222.719 289.538 L 222.719 289.538 Q 223.647 289.939 224.311 290.622 L 224.311 290.622 L 224.311 290.622 Q 224.955 291.306 225.297 292.234 L 225.297 292.234 L 225.297 292.234 Q 225.639 293.161 225.639 294.216 L 225.639 294.216 L 225.639 294.216 Q 225.639 295.075 225.424 295.886 L 225.424 295.886 L 225.424 295.886 Q 225.209 296.697 224.702 297.595 L 224.702 297.595 L 224.702 297.595 Q 224.194 298.513 223.354 299.587 L 223.354 299.587 L 223.354 299.587 Q 222.514 300.661 221.264 302.048 L 221.264 302.048 L 211.948 312.4 L 211.948 314.997 L 211.948 314.997 Z  M 196.401 312.654 L 196.401 312.654 L 196.401 312.654 Q 196.401 313.786 197.114 314.577 L 197.114 314.577 L 197.114 314.577 Q 197.827 315.368 199.233 315.368 L 199.233 315.368 L 199.233 315.368 Q 200.619 315.368 201.362 314.587 L 201.362 314.587 L 201.362 314.587 Q 202.104 313.806 202.104 312.654 L 202.104 312.654 L 202.104 312.654 Q 202.104 311.482 201.371 310.671 L 201.371 310.671 L 201.371 310.671 Q 200.639 309.861 199.233 309.861 L 199.233 309.861 L 199.233 309.861 Q 197.807 309.861 197.104 310.681 L 197.104 310.681 L 197.104 310.681 Q 196.401 311.501 196.401 312.654 Z  M 196.401 295.544 L 196.401 295.544 L 196.401 295.544 Q 196.401 296.677 197.114 297.468 L 197.114 297.468 L 197.114 297.468 Q 197.827 298.259 199.233 298.259 L 199.233 298.259 L 199.233 298.259 Q 200.619 298.259 201.362 297.478 L 201.362 297.478 L 201.362 297.478 Q 202.104 296.697 202.104 295.544 L 202.104 295.544 L 202.104 295.544 Q 202.104 294.372 201.371 293.562 L 201.371 293.562 L 201.371 293.562 Q 200.639 292.751 199.233 292.751 L 199.233 292.751 L 199.233 292.751 Q 197.807 292.751 197.104 293.572 L 197.104 293.572 L 197.104 293.572 Q 196.401 294.392 196.401 295.544 Z " fill="rgb(255,255,255)"/><path d=" M 110.864 372.877 L 108.286 372.877 L 108.286 375.807 L 110.864 375.807 L 110.864 375.807 Q 112.212 375.807 113.335 376.119 L 113.335 376.119 L 113.335 376.119 Q 114.458 376.432 115.259 377.077 L 115.259 377.077 L 115.259 377.077 Q 116.04 377.721 116.479 378.688 L 116.479 378.688 L 116.479 378.688 Q 116.919 379.655 116.919 380.983 L 116.919 380.983 L 116.919 380.983 Q 116.919 382.33 116.538 383.317 L 116.538 383.317 L 116.538 383.317 Q 116.157 384.303 115.454 384.967 L 115.454 384.967 L 115.454 384.967 Q 114.751 385.631 113.755 385.953 L 113.755 385.953 L 113.755 385.953 Q 112.759 386.276 111.528 386.276 L 111.528 386.276 L 111.528 386.276 Q 110.298 386.276 109.292 385.924 L 109.292 385.924 L 109.292 385.924 Q 108.286 385.573 107.583 384.928 L 107.583 384.928 L 107.583 384.928 Q 106.88 384.284 106.499 383.366 L 106.499 383.366 L 106.499 383.366 Q 106.118 382.448 106.118 381.334 L 106.118 381.334 L 102.505 381.334 L 102.505 381.334 Q 102.505 383.209 103.218 384.674 L 103.218 384.674 L 103.218 384.674 Q 103.931 386.139 105.142 387.155 L 105.142 387.155 L 105.142 387.155 Q 106.352 388.17 108.003 388.698 L 108.003 388.698 L 108.003 388.698 Q 109.653 389.225 111.528 389.225 L 111.528 389.225 L 111.528 389.225 Q 113.442 389.225 115.093 388.668 L 115.093 388.668 L 115.093 388.668 Q 116.743 388.112 117.954 387.037 L 117.954 387.037 L 117.954 387.037 Q 119.165 385.983 119.849 384.44 L 119.849 384.44 L 119.849 384.44 Q 120.532 382.897 120.532 380.905 L 120.532 380.905 L 120.532 380.905 Q 120.532 379.928 120.308 378.932 L 120.308 378.932 L 120.308 378.932 Q 120.083 377.936 119.536 377.037 L 119.536 377.037 L 119.536 377.037 Q 118.97 376.139 118.042 375.416 L 118.042 375.416 L 118.042 375.416 Q 117.114 374.694 115.727 374.244 L 115.727 374.244 L 115.727 374.244 Q 116.88 373.756 117.71 373.024 L 117.71 373.024 L 117.71 373.024 Q 118.54 372.291 119.067 371.452 L 119.067 371.452 L 119.067 371.452 Q 119.595 370.631 119.849 369.752 L 119.849 369.752 L 119.849 369.752 Q 120.102 368.873 120.102 368.053 L 120.102 368.053 L 120.102 368.053 Q 120.102 366.08 119.477 364.577 L 119.477 364.577 L 119.477 364.577 Q 118.852 363.073 117.72 362.057 L 117.72 362.057 L 117.72 362.057 Q 116.587 361.041 115.005 360.524 L 115.005 360.524 L 115.005 360.524 Q 113.423 360.006 111.509 360.006 L 111.509 360.006 L 111.509 360.006 Q 109.536 360.006 107.925 360.621 L 107.925 360.621 L 107.925 360.621 Q 106.313 361.237 105.161 362.291 L 105.161 362.291 L 105.161 362.291 Q 104.009 363.366 103.374 364.801 L 103.374 364.801 L 103.374 364.801 Q 102.739 366.237 102.739 367.858 L 102.739 367.858 L 106.372 367.858 L 106.372 367.858 Q 106.372 366.744 106.743 365.846 L 106.743 365.846 L 106.743 365.846 Q 107.114 364.948 107.798 364.303 L 107.798 364.303 L 107.798 364.303 Q 108.462 363.659 109.409 363.317 L 109.409 363.317 L 109.409 363.317 Q 110.356 362.975 111.509 362.975 L 111.509 362.975 L 111.509 362.975 Q 112.7 362.975 113.628 363.278 L 113.628 363.278 L 113.628 363.278 Q 114.556 363.58 115.181 364.186 L 115.181 364.186 L 115.181 364.186 Q 115.825 364.811 116.157 365.758 L 116.157 365.758 L 116.157 365.758 Q 116.489 366.705 116.489 367.975 L 116.489 367.975 L 116.489 367.975 Q 116.489 369.049 116.118 369.948 L 116.118 369.948 L 116.118 369.948 Q 115.747 370.846 115.044 371.491 L 115.044 371.491 L 115.044 371.491 Q 114.321 372.135 113.276 372.506 L 113.276 372.506 L 113.276 372.506 Q 112.231 372.877 110.864 372.877 L 110.864 372.877 L 110.864 372.877 Z  M 87.329 386.491 L 87.329 386.491 L 87.329 386.491 Q 87.329 387.623 88.042 388.414 L 88.042 388.414 L 88.042 388.414 Q 88.755 389.205 90.161 389.205 L 90.161 389.205 L 90.161 389.205 Q 91.548 389.205 92.29 388.424 L 92.29 388.424 L 92.29 388.424 Q 93.032 387.643 93.032 386.491 L 93.032 386.491 L 93.032 386.491 Q 93.032 385.319 92.3 384.508 L 92.3 384.508 L 92.3 384.508 Q 91.567 383.698 90.161 383.698 L 90.161 383.698 L 90.161 383.698 Q 88.735 383.698 88.032 384.518 L 88.032 384.518 L 88.032 384.518 Q 87.329 385.338 87.329 386.491 Z  M 87.329 369.381 L 87.329 369.381 L 87.329 369.381 Q 87.329 370.514 88.042 371.305 L 88.042 371.305 L 88.042 371.305 Q 88.755 372.096 90.161 372.096 L 90.161 372.096 L 90.161 372.096 Q 91.548 372.096 92.29 371.315 L 92.29 371.315 L 92.29 371.315 Q 93.032 370.534 93.032 369.381 L 93.032 369.381 L 93.032 369.381 Q 93.032 368.209 92.3 367.399 L 92.3 367.399 L 92.3 367.399 Q 91.567 366.588 90.161 366.588 L 90.161 366.588 L 90.161 366.588 Q 88.735 366.588 88.032 367.409 L 88.032 367.409 L 88.032 367.409 Q 87.329 368.229 87.329 369.381 Z " fill="rgb(255,255,255)"/></g><g><circle vector-effect="non-scaling-stroke" cx="750.9083302815754" cy="305.75471496582037" r="40" fill="rgb(124,179,66)"/><path d=" M 760.916 319.522 L 764.529 319.522 L 764.529 291.084 L 764.236 291.084 L 753.475 295.225 L 753.475 298.526 L 760.916 295.694 L 760.916 319.522 L 760.916 319.522 Z  M 736.072 317.178 L 736.072 317.178 L 736.072 317.178 Q 736.072 318.311 736.785 319.102 L 736.785 319.102 L 736.785 319.102 Q 737.498 319.893 738.904 319.893 L 738.904 319.893 L 738.904 319.893 Q 740.291 319.893 741.033 319.112 L 741.033 319.112 L 741.033 319.112 Q 741.776 318.33 741.776 317.178 L 741.776 317.178 L 741.776 317.178 Q 741.776 316.006 741.043 315.196 L 741.043 315.196 L 741.043 315.196 Q 740.311 314.385 738.904 314.385 L 738.904 314.385 L 738.904 314.385 Q 737.479 314.385 736.776 315.205 L 736.776 315.205 L 736.776 315.205 Q 736.072 316.026 736.072 317.178 Z  M 736.072 300.069 L 736.072 300.069 L 736.072 300.069 Q 736.072 301.202 736.785 301.993 L 736.785 301.993 L 736.785 301.993 Q 737.498 302.784 738.904 302.784 L 738.904 302.784 L 738.904 302.784 Q 740.291 302.784 741.033 302.002 L 741.033 302.002 L 741.033 302.002 Q 741.776 301.221 741.776 300.069 L 741.776 300.069 L 741.776 300.069 Q 741.776 298.897 741.043 298.086 L 741.043 298.086 L 741.043 298.086 Q 740.311 297.276 738.904 297.276 L 738.904 297.276 L 738.904 297.276 Q 737.479 297.276 736.776 298.096 L 736.776 298.096 L 736.776 298.096 Q 736.072 298.916 736.072 300.069 Z " fill="rgb(255,255,255)"/><path d=" M 737.408 243.672 C 737.408 236.221 743.458 230.172 750.908 230.172 C 758.359 230.172 764.408 236.221 764.408 243.672 C 764.408 251.123 758.359 257.172 750.908 257.172 C 743.458 257.172 737.408 251.123 737.408 243.672 Z  M 740.405 243.675 C 740.405 240.885 741.515 238.215 743.485 236.245 C 745.455 234.275 748.125 233.175 750.905 233.175 C 753.695 233.175 756.365 234.275 758.335 236.245 C 760.305 238.215 761.405 240.885 761.405 243.675 C 761.405 246.455 760.305 249.125 758.335 251.095 C 756.365 253.065 753.695 254.175 750.905 254.175 C 748.125 254.175 745.455 253.065 743.485 251.095 C 741.515 249.125 740.405 246.455 740.405 243.675 Z " fill-rule="evenodd" fill="rgb(124,179,66)"/><path d=" M 697.783 346.755 L 699.523 345.755 L 701.523 349.215 L 699.783 350.215 L 675.533 364.215 L 673.803 365.215 L 671.803 361.755 L 673.533 360.755 L 697.783 346.755 Z " fill="rgb(3,155,229)"/><path d=" M 687.283 328.565 L 689.023 327.565 L 691.023 331.035 L 689.283 332.035 L 665.033 346.035 L 663.303 347.035 L 661.303 343.565 L 663.033 342.565 L 687.283 328.565 Z " fill="rgb(3,155,229)"/><path d=" M 722.033 332.755 L 723.763 331.755 L 725.763 335.215 L 724.033 336.215 L 699.783 350.215 L 698.053 351.215 L 696.053 347.755 L 697.783 346.755 L 722.033 332.755 Z " fill="rgb(124,179,66)"/><path d=" M 711.533 314.565 L 713.263 313.565 L 715.263 317.035 L 713.533 318.035 L 689.283 332.035 L 687.553 333.035 L 685.553 329.565 L 687.283 328.565 L 711.533 314.565 Z " fill="rgb(124,179,66)"/><circle vector-effect="non-scaling-stroke" cx="636.163335164388" cy="373.29722595214844" r="40" fill="rgb(3,155,229)"/><path d=" M 636.874 388.834 L 655.507 388.834 L 655.507 385.885 L 641.23 385.885 L 648.866 377.604 L 648.866 377.604 Q 649.941 376.432 650.907 375.25 L 650.907 375.25 L 650.907 375.25 Q 651.874 374.069 652.616 372.858 L 652.616 372.858 L 652.616 372.858 Q 653.339 371.647 653.769 370.407 L 653.769 370.407 L 653.769 370.407 Q 654.198 369.166 654.198 367.897 L 654.198 367.897 L 654.198 367.897 Q 654.198 366.198 653.603 364.752 L 653.603 364.752 L 653.603 364.752 Q 653.007 363.307 651.894 362.252 L 651.894 362.252 L 651.894 362.252 Q 650.781 361.198 649.169 360.602 L 649.169 360.602 L 649.169 360.602 Q 647.558 360.006 645.546 360.006 L 645.546 360.006 L 645.546 360.006 Q 643.359 360.006 641.65 360.709 L 641.65 360.709 L 641.65 360.709 Q 639.941 361.412 638.769 362.604 L 638.769 362.604 L 638.769 362.604 Q 637.577 363.795 636.952 365.387 L 636.952 365.387 L 636.952 365.387 Q 636.327 366.979 636.327 368.776 L 636.327 368.776 L 639.96 368.776 L 639.96 368.776 Q 639.96 367.448 640.302 366.373 L 640.302 366.373 L 640.302 366.373 Q 640.644 365.299 641.347 364.537 L 641.347 364.537 L 641.347 364.537 Q 642.031 363.795 643.075 363.385 L 643.075 363.385 L 643.075 363.385 Q 644.12 362.975 645.546 362.975 L 645.546 362.975 L 645.546 362.975 Q 646.718 362.975 647.646 363.375 L 647.646 363.375 L 647.646 363.375 Q 648.573 363.776 649.238 364.459 L 649.238 364.459 L 649.238 364.459 Q 649.882 365.143 650.224 366.071 L 650.224 366.071 L 650.224 366.071 Q 650.566 366.998 650.566 368.053 L 650.566 368.053 L 650.566 368.053 Q 650.566 368.912 650.351 369.723 L 650.351 369.723 L 650.351 369.723 Q 650.136 370.534 649.628 371.432 L 649.628 371.432 L 649.628 371.432 Q 649.12 372.35 648.281 373.424 L 648.281 373.424 L 648.281 373.424 Q 647.441 374.498 646.191 375.885 L 646.191 375.885 L 636.874 386.237 L 636.874 388.834 L 636.874 388.834 Z  M 621.327 386.491 L 621.327 386.491 L 621.327 386.491 Q 621.327 387.623 622.04 388.414 L 622.04 388.414 L 622.04 388.414 Q 622.753 389.205 624.159 389.205 L 624.159 389.205 L 624.159 389.205 Q 625.546 389.205 626.288 388.424 L 626.288 388.424 L 626.288 388.424 Q 627.031 387.643 627.031 386.491 L 627.031 386.491 L 627.031 386.491 Q 627.031 385.319 626.298 384.508 L 626.298 384.508 L 626.298 384.508 Q 625.566 383.698 624.159 383.698 L 624.159 383.698 L 624.159 383.698 Q 622.734 383.698 622.031 384.518 L 622.031 384.518 L 622.031 384.518 Q 621.327 385.338 621.327 386.491 Z  M 621.327 369.381 L 621.327 369.381 L 621.327 369.381 Q 621.327 370.514 622.04 371.305 L 622.04 371.305 L 622.04 371.305 Q 622.753 372.096 624.159 372.096 L 624.159 372.096 L 624.159 372.096 Q 625.546 372.096 626.288 371.315 L 626.288 371.315 L 626.288 371.315 Q 627.031 370.534 627.031 369.381 L 627.031 369.381 L 627.031 369.381 Q 627.031 368.209 626.298 367.399 L 626.298 367.399 L 626.298 367.399 Q 625.566 366.588 624.159 366.588 L 624.159 366.588 L 624.159 366.588 Q 622.734 366.588 622.031 367.409 L 622.031 367.409 L 622.031 367.409 Q 621.327 368.229 621.327 369.381 Z " fill="rgb(255,255,255)"/><path d=" M 809.383 339.495 L 807.643 338.495 L 809.623 335.025 L 811.363 336.015 L 835.483 349.805 L 837.223 350.795 L 835.243 354.265 L 833.503 353.275 L 809.383 339.495 Z " fill="rgb(3,155,229)"/><path d=" M 785.253 325.705 L 783.513 324.715 L 785.503 321.245 L 787.243 322.235 L 811.363 336.015 L 813.103 337.015 L 811.113 340.485 L 809.383 339.495 L 785.253 325.705 Z " fill="rgb(124,179,66)"/><circle vector-effect="non-scaling-stroke" cx="873.5033315022783" cy="367.5647125244141" r="40" fill="rgb(3,155,229)"/><path d=" M 882.203 367.145 L 879.624 367.145 L 879.624 370.074 L 882.203 370.074 L 882.203 370.074 Q 883.55 370.074 884.673 370.387 L 884.673 370.387 L 884.673 370.387 Q 885.796 370.699 886.597 371.344 L 886.597 371.344 L 886.597 371.344 Q 887.378 371.989 887.818 372.955 L 887.818 372.955 L 887.818 372.955 Q 888.257 373.922 888.257 375.25 L 888.257 375.25 L 888.257 375.25 Q 888.257 376.598 887.876 377.584 L 887.876 377.584 L 887.876 377.584 Q 887.496 378.571 886.792 379.235 L 886.792 379.235 L 886.792 379.235 Q 886.089 379.899 885.093 380.221 L 885.093 380.221 L 885.093 380.221 Q 884.097 380.543 882.867 380.543 L 882.867 380.543 L 882.867 380.543 Q 881.636 380.543 880.63 380.192 L 880.63 380.192 L 880.63 380.192 Q 879.624 379.84 878.921 379.196 L 878.921 379.196 L 878.921 379.196 Q 878.218 378.551 877.837 377.633 L 877.837 377.633 L 877.837 377.633 Q 877.456 376.715 877.456 375.602 L 877.456 375.602 L 873.843 375.602 L 873.843 375.602 Q 873.843 377.477 874.556 378.942 L 874.556 378.942 L 874.556 378.942 Q 875.269 380.407 876.48 381.422 L 876.48 381.422 L 876.48 381.422 Q 877.691 382.438 879.341 382.965 L 879.341 382.965 L 879.341 382.965 Q 880.992 383.492 882.867 383.492 L 882.867 383.492 L 882.867 383.492 Q 884.781 383.492 886.431 382.936 L 886.431 382.936 L 886.431 382.936 Q 888.081 382.379 889.292 381.305 L 889.292 381.305 L 889.292 381.305 Q 890.503 380.25 891.187 378.707 L 891.187 378.707 L 891.187 378.707 Q 891.871 377.164 891.871 375.172 L 891.871 375.172 L 891.871 375.172 Q 891.871 374.196 891.646 373.199 L 891.646 373.199 L 891.646 373.199 Q 891.421 372.203 890.874 371.305 L 890.874 371.305 L 890.874 371.305 Q 890.308 370.407 889.38 369.684 L 889.38 369.684 L 889.38 369.684 Q 888.453 368.961 887.066 368.512 L 887.066 368.512 L 887.066 368.512 Q 888.218 368.024 889.048 367.291 L 889.048 367.291 L 889.048 367.291 Q 889.878 366.559 890.406 365.719 L 890.406 365.719 L 890.406 365.719 Q 890.933 364.899 891.187 364.02 L 891.187 364.02 L 891.187 364.02 Q 891.441 363.141 891.441 362.321 L 891.441 362.321 L 891.441 362.321 Q 891.441 360.348 890.816 358.844 L 890.816 358.844 L 890.816 358.844 Q 890.191 357.34 889.058 356.324 L 889.058 356.324 L 889.058 356.324 Q 887.925 355.309 886.343 354.791 L 886.343 354.791 L 886.343 354.791 Q 884.761 354.274 882.847 354.274 L 882.847 354.274 L 882.847 354.274 Q 880.874 354.274 879.263 354.889 L 879.263 354.889 L 879.263 354.889 Q 877.652 355.504 876.499 356.559 L 876.499 356.559 L 876.499 356.559 Q 875.347 357.633 874.712 359.069 L 874.712 359.069 L 874.712 359.069 Q 874.078 360.504 874.078 362.125 L 874.078 362.125 L 877.71 362.125 L 877.71 362.125 Q 877.71 361.012 878.081 360.114 L 878.081 360.114 L 878.081 360.114 Q 878.453 359.215 879.136 358.571 L 879.136 358.571 L 879.136 358.571 Q 879.8 357.926 880.747 357.584 L 880.747 357.584 L 880.747 357.584 Q 881.695 357.242 882.847 357.242 L 882.847 357.242 L 882.847 357.242 Q 884.038 357.242 884.966 357.545 L 884.966 357.545 L 884.966 357.545 Q 885.894 357.848 886.519 358.453 L 886.519 358.453 L 886.519 358.453 Q 887.163 359.078 887.496 360.026 L 887.496 360.026 L 887.496 360.026 Q 887.828 360.973 887.828 362.242 L 887.828 362.242 L 887.828 362.242 Q 887.828 363.317 887.456 364.215 L 887.456 364.215 L 887.456 364.215 Q 887.085 365.114 886.382 365.758 L 886.382 365.758 L 886.382 365.758 Q 885.66 366.403 884.615 366.774 L 884.615 366.774 L 884.615 366.774 Q 883.57 367.145 882.203 367.145 L 882.203 367.145 L 882.203 367.145 Z  M 858.667 380.758 L 858.667 380.758 L 858.667 380.758 Q 858.667 381.891 859.38 382.682 L 859.38 382.682 L 859.38 382.682 Q 860.093 383.473 861.499 383.473 L 861.499 383.473 L 861.499 383.473 Q 862.886 383.473 863.628 382.692 L 863.628 382.692 L 863.628 382.692 Q 864.371 381.91 864.371 380.758 L 864.371 380.758 L 864.371 380.758 Q 864.371 379.586 863.638 378.776 L 863.638 378.776 L 863.638 378.776 Q 862.906 377.965 861.499 377.965 L 861.499 377.965 L 861.499 377.965 Q 860.074 377.965 859.371 378.785 L 859.371 378.785 L 859.371 378.785 Q 858.667 379.606 858.667 380.758 Z  M 858.667 363.649 L 858.667 363.649 L 858.667 363.649 Q 858.667 364.782 859.38 365.573 L 859.38 365.573 L 859.38 365.573 Q 860.093 366.364 861.499 366.364 L 861.499 366.364 L 861.499 366.364 Q 862.886 366.364 863.628 365.582 L 863.628 365.582 L 863.628 365.582 Q 864.371 364.801 864.371 363.649 L 864.371 363.649 L 864.371 363.649 Q 864.371 362.477 863.638 361.666 L 863.638 361.666 L 863.638 361.666 Q 862.906 360.856 861.499 360.856 L 861.499 360.856 L 861.499 360.856 Q 860.074 360.856 859.371 361.676 L 859.371 361.676 L 859.371 361.676 Q 858.667 362.496 858.667 363.649 Z " fill="rgb(255,255,255)"/></g></g></svg>